<?xml version="1.0" standalone="no"?>
<!DOCTYPE svg PUBLIC "-//W3C//DTD SVG 1.1//EN" "http://www.w3.org/Graphics/SVG/1.1/DTD/svg11.dtd" >
<svg>
<metadata>
Created by FontForge 20090914 at Sat Sep 21 13:57:17 2013
 By www-data
2002, Fredrick Nader. All rights reserved. apostrophe@apostrophiclab.com
</metadata>
<defs>
<font id="DayRoman" horiz-adv-x="480" >
  <font-face 
    font-family="Day Roman"
    font-weight="400"
    font-stretch="normal"
    units-per-em="1000"
    panose-1="2 2 5 0 6 4 11 2 4 3"
    ascent="800"
    descent="-200"
    x-height="448.998"
    cap-height="723.999"
    bbox="-141.941 -290.547 1119.01 1001.5"
    underline-thickness="40"
    underline-position="-107"
    unicode-range="U+0005-U+2122"
  />
<missing-glyph horiz-adv-x="289" 
 />
    <glyph glyph-name=".notdef" horiz-adv-x="289" 
 />
    <glyph glyph-name="breve" horiz-adv-x="469" 
d="M240 572c10.667 0 20.8311 1.99902 30.498 5.99902s18.167 9.5 25.5 16.5s13.166 15 17.499 24s6.5 18.833 6.5 29.5h41c0 -17.333 -3.5 -33.333 -10.5 -48s-16.167 -27.5 -27.5 -38.5s-24.5 -19.667 -39.5 -26s-30.833 -9.5 -47.5 -9.5c-2.66699 0 -6 0.666992 -10 2
c-13.333 0.666992 -26.166 4.83398 -38.499 12.501s-23.333 17.334 -33 29.001s-17.5 24.334 -23.5 38.001s-9.33301 27.167 -10 40.5h47c0.666992 -8.66699 2.83398 -17.334 6.50098 -26.001s8.5 -16.5 14.5 -23.5s12.833 -12.833 20.5 -17.5
s15.834 -7.33398 24.501 -8.00098c1.33301 -0.666992 3.33301 -1 6 -1z" />
    <glyph glyph-name="dotaccent" horiz-adv-x="455" 
d="M308 623c0 -18 -6.49902 -33.332 -19.499 -45.999s-28.5 -19 -46.5 -19c-2.66699 0 -4.33398 0.333008 -5.00098 1c-7.33301 0.666992 -14.333 3.16699 -21 7.5s-12.5 9.66602 -17.5 15.999s-9 13.333 -12 21s-4.5 15.167 -4.5 22.5c0 15.333 6 29.333 18 42
s25.667 19 41 19c17.333 0 32.833 -6.33301 46.5 -19s20.5 -27.667 20.5 -45z" />
    <glyph glyph-name="ring" horiz-adv-x="463" 
d="M297 620c0 16.667 -6.16895 30.833 -18.502 42.5s-26.5 17.5 -42.5 17.5c-14.667 0 -27.334 -5.66699 -38.001 -17s-16 -24.333 -16 -39c0 -6.66699 1.33301 -13.5 4 -20.5s6.33398 -13.5 11.001 -19.5s10 -11 16 -15s12.333 -6.33301 19 -7
c0.666992 -0.666992 2.33398 -1 5.00098 -1c16.667 0 30.834 5.66699 42.501 17s17.5 25.333 17.5 42zM328.998 619.999c0 -13.333 -2.49707 -25.667 -7.49707 -37s-11.833 -21.166 -20.5 -29.499s-18.834 -15 -30.501 -20s-23.834 -7.5 -36.501 -7.5
c-4 0 -6.66699 0.666992 -8 2c-10.667 0.666992 -20.834 4.16699 -30.501 10.5s-18.167 14.166 -25.5 23.499s-13.166 19.5 -17.499 30.5s-6.5 21.833 -6.5 32.5c0 11.333 2.33301 22.333 7 33s11 20.167 19 28.5s17.167 15 27.5 20s21.166 7.5 32.499 7.5
c28.667 0 52 -9 70 -27s27 -40.333 27 -67z" />
    <glyph glyph-name="hungarumlaut" unicode="&#xa;" horiz-adv-x="520" 
d="M254 701c4 -3.33301 6.99902 -5.5 8.99902 -6.5s3.83301 -2.16699 5.5 -3.5s4 -3 7 -5l13.5 -9c5.33301 -2 7.83301 -5.5 7.5 -10.5s-2.16602 -8.83301 -5.49902 -11.5c-4.66699 -5.33301 -13 -15.5 -25 -30.5l-38 -47l-37.5 -44.5
c-11.667 -13.333 -19.167 -21 -22.5 -23c-6 -4 -11.5 -4.16699 -16.5 -0.5s-5.5 9.16699 -1.5 16.5c3.33301 8.66699 8.66602 20.834 15.999 36.501l23 49l23.5 48.5c7.66699 15.333 13.834 27 18.501 35c3.33301 5.33301 6.5 8.66602 9.5 9.99902s7.5 0 13.5 -4z
M386.999 701c4 -3.33301 6.99902 -5.5 8.99902 -6.5s3.83301 -2.16699 5.5 -3.5s4 -3 7 -5l13.5 -9c5.33301 -2 7.83301 -5.5 7.5 -10.5s-2.16602 -8.83301 -5.49902 -11.5c-4.66699 -5.33301 -13 -15.5 -25 -30.5l-38 -47l-37.5 -44.5
c-11.667 -13.333 -19.167 -21 -22.5 -23c-6 -4 -11.5 -4.16699 -16.5 -0.5s-5.5 9.16699 -1.5 16.5c3.33301 8.66699 8.66602 20.834 15.999 36.501l23 49l23.5 48.5c7.66699 15.333 13.834 27 18.501 35c3.33301 5.33301 6.5 8.66602 9.5 9.99902s7.5 0 13.5 -4z" />
    <glyph glyph-name="ogonek" horiz-adv-x="473" 
d="M282 -45c2 16.667 7.33105 30.8379 15.998 42.5049s19.167 20.834 31.5 27.501s26 11.167 41 13.5s30.167 2.5 45.5 0.5c2 -0.666992 3.33301 -2.83398 4 -6.50098s-0.666016 -14.167 -3.99902 -31.5c-6 0.666992 -12.833 -0.333008 -20.5 -3
s-14.667 -6.33398 -21 -11.001s-11.833 -10.334 -16.5 -17.001s-7.33398 -13.334 -8.00098 -20.001c-2 -15.333 1.33301 -29.5 10 -42.5s25.667 -19.833 51 -20.5c14.667 -0.666992 28.334 -0.333984 41.001 0.999023s27.334 4 44.001 8
c3.33301 -4 5.16602 -7.66699 5.49902 -11s0.833008 -7.66602 1.5 -12.999c-15.333 -6 -31 -11.833 -47 -17.5s-32 -8.83398 -48 -9.50098c-18.667 -0.666992 -36.167 1.66602 -52.5 6.99902s-30.166 13 -41.499 23s-20 21.833 -26 35.5s-8 28.5 -6 44.5z" />
    <glyph glyph-name="caron" horiz-adv-x="422" 
d="M326 699c4 0 6 -2.33008 6 -6.99707c0 -2 -2.16699 -7.66699 -6.5 -17s-10 -20.333 -17 -33l-23 -41l-24 -41c-7.66699 -12.667 -14.667 -23.667 -21 -33s-10.833 -15 -13.5 -17c-6 3.33301 -9.33301 6 -10 8l-55.5 90.5c-17.667 28.333 -31.167 54.833 -40.5 79.5
c-1.33301 4 -2 6.66699 -2 8c0 5.33301 3 7.66602 9 6.99902c3.33301 -0.666992 9 -5.83398 17 -15.501l26.5 -33.5c9.66699 -12.667 19.5 -24.834 29.5 -36.501s18.667 -19.834 26 -24.501c7.33301 4.66699 15.5 12.834 24.5 24.501l26.5 35.5
c8.66699 12 17.167 22.667 25.5 32s15.833 14 22.5 14z" />
    <glyph glyph-name="dotlessi" unicode="&#xd;" horiz-adv-x="313" 
d="M274 5c0 -7.33301 -3.50293 -11.3291 -10.5029 -11.9961s-12.833 -1 -17.5 -1c-12 0 -23.833 0.833008 -35.5 2.5s-23.167 2.5 -34.5 2.5c-17.333 0 -35 -0.833008 -53 -2.5s-35.667 -2.5 -53 -2.5h-11c-5.33301 0 -10.333 0.666992 -15 2s-7 5.66602 -7 12.999
c0 2 0.666992 3.66699 2 5l4 4c6 4.66699 12.833 7.5 20.5 8.5l22.5 3c7.33301 1 13.833 3.33301 19.5 7s9.5 10.834 11.5 21.501c1.33301 6.66699 2 11.334 2 14.001v15c0.666992 21.333 0.833984 42.166 0.500977 62.499s-0.166016 41.166 0.500977 62.499
c0.666992 16 1.5 31.833 2.5 47.5s1.5 31.5 1.5 47.5c0 8 -0.5 17.667 -1.5 29s-4.16699 20.333 -9.5 27c-3.33301 4 -8 7.33301 -14 10l-17.5 7.5c-5.66699 2.33301 -10.667 4.66602 -15 6.99902s-6.5 5.16602 -6.5 8.49902s2 6.33301 6 9s8.83301 5.16699 14.5 7.5
s11.167 4.33301 16.5 6s9.33301 2.83398 12 3.50098c4.66699 1.33301 11.334 4.33301 20.001 9l26.5 14.5l24.5 13.5c7.33301 4 12.333 6 15 6c4 0 6 -1.66699 6 -5c0 -10 -0.166992 -19.833 -0.5 -29.5s-0.833008 -19.5 -1.5 -29.5
c-0.666992 -20 -1.16699 -40.167 -1.5 -60.5s-0.5 -40.5 -0.5 -60.5c0 -24.667 0.166992 -49.167 0.5 -73.5s0.833008 -48.833 1.5 -73.5c0 -11.333 -0.166992 -22.833 -0.5 -34.5s0.166992 -23.167 1.5 -34.5c1.33301 -14 5.83301 -23.333 13.5 -28
s16 -7.83398 25 -9.50098s17.167 -3.33398 24.5 -5.00098s11 -6.5 11 -14.5z" />
    <glyph glyph-name="fraction" horiz-adv-x="265" 
d="M415 646c-18.667 -28 -38.333 -55.167 -59 -81.5l-63 -79.5l-187 -237c-62 -78 -122.333 -158.333 -181 -241c-3.33301 1.33301 -9.33301 5 -18 11s-20.667 11.667 -36 17l245 318l244 321c7.33301 0 16.5 -3.66699 27.5 -11s20.167 -13 27.5 -17z" />
    <glyph glyph-name="fi" horiz-adv-x="610" 
d="M571 5c0 -7.33301 -3.50391 -11.335 -10.5039 -12.002s-12.833 -1 -17.5 -1c-12 0 -23.833 0.833008 -35.5 2.5s-23.167 2.5 -34.5 2.5c-17.333 0 -35 -0.833008 -53 -2.5s-35.667 -2.5 -53 -2.5h-11c-5.33301 0 -10.333 0.666992 -15 2s-7 5.66602 -7 12.999
c0 2 0.666992 3.66699 2 5l4 4c6 4.66699 12.833 7.5 20.5 8.5l22.5 3c7.33301 1 13.833 3.33301 19.5 7s9.5 10.834 11.5 21.501c1.33301 6.66699 2 11.334 2 14.001v15c0.666992 21.333 0.833984 42.166 0.500977 62.499s-0.166016 41.166 0.500977 62.499
c0.666992 16 1.5 31.833 2.5 47.5s1.5 31.5 1.5 47.5c0 10.667 -0.833008 21.334 -2.5 32.001s-4.83398 20.334 -9.50098 29.001s-11.167 15.834 -19.5 21.501s-19.166 8.83398 -32.499 9.50098h-104c-16 0 -30 -0.166992 -42 -0.5s-20.333 -0.5 -25 -0.5
c-4.66699 -4.66699 -6.83398 -12 -6.50098 -22s0.5 -18 0.5 -24c0 -46 -0.166992 -91 -0.5 -135s-0.5 -89 -0.5 -135c0 -14.667 2.33301 -25.667 7 -33s10.667 -12.833 18 -16.5s16 -6 26 -7s20.667 -2.5 32 -4.5c2.66699 -2.66699 4 -6.33398 4 -11.001
s-1.66699 -7.66699 -5 -9l-1 -3c-4.66699 -2.66699 -11 -4 -19 -4c-12.667 0 -25.334 1 -38.001 3s-25.334 3 -38.001 3c-19.333 0 -38.666 -1 -57.999 -3s-38.666 -3 -57.999 -3c-3.33301 0 -8.5 0.333008 -15.5 1s-10.5 3.66699 -10.5 9c0 9.33301 4 15 12 17l27 6.5
c10 2.33301 19 7 27 14s12 20.167 12 39.5v287c0 8.66699 -1 17.667 -3 27c-16 2 -31.667 3 -47 3c-5.33301 0 -11.333 0.666992 -18 2s-10 5.66602 -10 12.999c0 2.66699 0.166992 5.83398 0.5 9.50098s1.16602 6.83398 2.49902 9.50098
c2 3.33301 6.16699 5.66602 12.5 6.99902s13.333 2.5 21 3.5s15.334 1.83301 23.001 2.5s13.5 2 17.5 4c2 26 3.33301 52.5 4 79.5s4.33398 53.167 11.001 78.5c6 25.333 15 49.5 27 72.5s26.833 43.167 44.5 60.5s38 31 61 41s48.167 14.667 75.5 14
c14 0 28.167 -1 42.5 -3s27.166 -5.83301 38.499 -11.5s20.666 -13.167 27.999 -22.5s11.333 -21 12 -35c2 -8 0.833008 -15.667 -3.5 -23s-10.166 -13.166 -17.499 -17.499s-15.166 -6.83301 -23.499 -7.5s-15.166 1.33301 -20.499 6c-4 2.66699 -7.16699 7.66699 -9.5 15
s-6.66602 14.5 -12.999 21.5s-16.166 13.333 -29.499 19s-33 8.5 -59 8.5c-14 0 -26 -4.33301 -36 -13s-18.333 -19.834 -25 -33.501s-12 -29.167 -16 -46.5s-7 -34.833 -9 -52.5s-3.33301 -34.5 -4 -50.5s-1 -29.667 -1 -41v-14c0 -8 0.166992 -17.5 0.5 -28.5
s2.16602 -18.167 5.49902 -21.5h229c10.667 0 20.334 1.5 29.001 4.5s16.5 6.16699 23.5 9.5s12.833 5.83301 17.5 7.5s8 1.5 10 -0.5c1.33301 -1.33301 2.66602 -2.16602 3.99902 -2.49902s2 -1.16602 2 -2.49902c0 -10 -0.166992 -19.833 -0.5 -29.5
s-0.833008 -19.5 -1.5 -29.5c-0.666992 -20 -1.16699 -40.167 -1.5 -60.5s-0.5 -40.5 -0.5 -60.5c0 -24.667 0.166992 -49.167 0.5 -73.5s0.833008 -48.833 1.5 -73.5c0 -11.333 -0.166992 -22.833 -0.5 -34.5s0.166992 -23.167 1.5 -34.5
c1.33301 -14 5.83301 -23.333 13.5 -28s16 -7.83398 25 -9.50098s17.167 -3.33398 24.5 -5.00098s11 -6.5 11 -14.5z" />
    <glyph glyph-name="fl" horiz-adv-x="616" 
d="M576 8c0 -7.33301 -3.33105 -12 -9.99805 -14c-0.666992 -0.666992 -2.33398 -1 -5.00098 -1h-4c-15.333 0 -30.833 0.833008 -46.5 2.5s-31.167 2.5 -46.5 2.5c-19.333 0 -38.333 -1 -57 -3s-37.667 -3 -57 -3c-3.33301 0 -8.33301 0.5 -15 1.5s-10 4.16699 -10 9.5
c0 8.66699 2 13.5 6 14.5s10.333 2.83301 19 5.5c11.333 3.33301 22 7.16602 32 11.499s17.333 12.5 22 24.5c2 5.33301 3.33301 12 4 20s1 15 1 21c0 90 0.166992 178.5 0.5 265.5s0.5 175.5 0.5 265.5c0 24.667 -4 45.334 -12 62.001s-18.667 29.5 -32 38.5
s-28.5 14.333 -45.5 16s-34.5 0.166992 -52.5 -4.5c-21.333 -5.33301 -38 -17.5 -50 -36.5s-21 -40.5 -27 -64.5s-9.83301 -48.5 -11.5 -73.5s-2.5 -45.833 -2.5 -62.5v-14c0 -8 0.166992 -17.5 0.5 -28.5s2.16602 -18.167 5.49902 -21.5h112c8.66699 0 15 -2 19 -6
c0 -3.33301 0.166992 -6.33301 0.5 -9s0.5 -5.66699 0.5 -9c0 -7.33301 -1.66699 -13.666 -5 -18.999c-3.33301 -0.666992 -7 -1.16699 -11 -1.5s-8 -0.5 -12 -0.5h-62h-20c-6 0 -12.333 -0.333008 -19 -1c-4.66699 -4.66699 -6.83398 -12 -6.50098 -22s0.5 -18 0.5 -24
c0 -46 -0.166992 -91 -0.5 -135s-0.5 -89 -0.5 -135c0 -14.667 2.33301 -25.667 7 -33s10.667 -12.833 18 -16.5s16 -6 26 -7s20.667 -2.5 32 -4.5c2.66699 -2.66699 4 -6.33398 4 -11.001s-1.66699 -7.66699 -5 -9l-1 -3c-4.66699 -2.66699 -11 -4 -19 -4
c-12.667 0 -25.334 1 -38.001 3s-25.334 3 -38.001 3c-19.333 0 -38.666 -1 -57.999 -3s-38.666 -3 -57.999 -3c-3.33301 0 -8.5 0.333008 -15.5 1s-10.5 3.66699 -10.5 9c0 9.33301 4 15 12 17l27 6.5c10 2.33301 19 7 27 14s12 20.167 12 39.5v287
c0 8.66699 -1 17.667 -3 27c-16 2 -31.667 3 -47 3c-5.33301 0 -11.333 0.666992 -18 2s-10 5.66602 -10 12.999c0 2.66699 0.166992 5.83398 0.5 9.50098s1.16602 6.83398 2.49902 9.50098c2 3.33301 6.16699 5.66602 12.5 6.99902s13.333 2.5 21 3.5
s15.334 1.83301 23.001 2.5s13.5 2 17.5 4c2 26 3.33301 52.5 4 79.5s4.33398 53.167 11.001 78.5c6 25.333 15 49.5 27 72.5s26.833 43.167 44.5 60.5s38 31 61 41s48.167 14.667 75.5 14c20 -0.666992 38 -3.16699 54 -7.5s29.667 -12.833 41 -25.5l40.5 14.5l24.5 8.5
l6 -4c0 -9.33301 0.166992 -18.333 0.5 -27s0.5 -17.667 0.5 -27c0 -109.333 -0.166992 -217.333 -0.5 -324s-0.5 -214.667 -0.5 -324c0 -22 5.83301 -35.833 17.5 -41.5s26.5 -9.5 44.5 -11.5c1.33301 -1.33301 2.83301 -1.83301 4.5 -1.5s3.16699 0.5 4.5 0.5
c10.667 0 16 -5 16 -15z" />
    <glyph glyph-name="Lslash" horiz-adv-x="627" 
d="M40 304c-0.666992 2 1.00391 4.49707 5.00391 7.49707s8.83301 6 14.5 9s11.667 6 18 9s11.166 5.5 14.499 7.5c9.33301 4 18.833 8.83301 28.5 14.5l28.5 16.5v232c0 16.667 -1.33301 31.667 -4 45c-2.66699 14.667 -9.83398 24.5 -21.501 29.5s-24 8.33301 -37 10
s-24.667 3.33398 -35 5.00098s-15.5 7.16699 -15.5 16.5s3.83301 14.666 11.5 15.999s15.167 2 22.5 2c23.333 0 46.166 -1.16699 68.499 -3.5s45.166 -3.5 68.499 -3.5c24.667 0 48.167 0.666992 70.5 2s47.5 2 75.5 2c6 -5.33301 9 -10.666 9 -15.999
c0 -8 -3.83301 -13.167 -11.5 -15.5s-16.834 -4 -27.501 -5l-32 -3c-10.667 -1 -19.334 -4.16699 -26.001 -9.5c-4.66699 -4 -8.16699 -9.33301 -10.5 -16s-4 -13.667 -5 -21s-1.66699 -14.666 -2 -21.999s-0.5 -13.666 -0.5 -18.999c0 -30 -0.166992 -59.667 -0.5 -89
s-0.5 -59 -0.5 -89l56.5 28l46.5 23c3.33301 1.33301 7.5 -3.33398 12.5 -14.001l17.5 -36c0.666992 -2 -0.333008 -4.16699 -3 -6.5s-6 -4.83301 -10 -7.5s-8.33301 -5 -13 -7s-9 -4 -13 -6l-95 -49v-142c0 -12 0.166992 -25.167 0.5 -39.5s1.16602 -28 2.49902 -41
s3.33301 -24.667 6 -35s6.33398 -17.5 11.001 -21.5c16.667 -12.667 35.834 -20.334 57.501 -23.001s42.834 -2.5 63.501 0.5s39.334 7.5 56.001 13.5s28 11 34 15c10.667 6 21.834 16.5 33.501 31.5s22.5 30.667 32.5 47l26 44c7.33301 13 12 20.5 14 22.5
c6 4.66699 12.667 6.16699 20 4.5s12.333 -5.5 15 -11.5c-16.667 -26.667 -29.667 -53.167 -39 -79.5s-16.666 -50 -21.999 -71s-9.83301 -38 -13.5 -51s-7.83398 -19.5 -12.501 -19.5c-44 0 -89.333 3 -136 9s-92 9 -136 9c-22 0 -41.167 -0.666992 -57.5 -2l-47 -4l-47 -4
c-16.333 -1.33301 -35.5 -2 -57.5 -2c-4 0 -7.33301 1.66699 -10 5s-4 7 -4 11c0 9.33301 3.33301 15.166 10 17.499s15 3.83301 25 4.5s20.667 1.83398 32 3.50098s21.666 6.83398 30.999 15.501c8 8 13.333 21.333 16 40s4.16699 39.834 4.5 63.501s-0.166992 48 -1.5 73
s-2.33301 47.5 -3 67.5l-39 -20c-2.66699 -1.33301 -6.66699 -3.16602 -12 -5.49902l-15.5 -6.5c-5 -2 -9.5 -3.5 -13.5 -4.5s-6 -0.833008 -6 0.5c-2.66699 3.33301 -5.33398 8.16602 -8.00098 14.499s-7.66699 17.5 -15 33.5z" />
    <glyph glyph-name="lslash" horiz-adv-x="317" 
d="M284 7c0 -7.33301 -3.33008 -12 -9.99707 -14c-0.666992 -0.666992 -2.33398 -1 -5.00098 -1h-4c-15.333 0 -30.833 0.833008 -46.5 2.5s-31.167 2.5 -46.5 2.5c-19.333 0 -38.333 -1 -57 -3s-37.667 -3 -57 -3c-3.33301 0 -8.33301 0.5 -15 1.5s-10 4.16699 -10 9.5
c0 8.66699 2 13.5 6 14.5s10.333 2.83301 19 5.5c11.333 3.33301 22 7.16602 32 11.499s17.333 12.5 22 24.5c2 5.33301 3.33301 12 4 20s1 15 1 21v229l-48 -25c-2.66699 -1.33301 -6.66699 -3.16602 -12 -5.49902l-15.5 -6.5c-5 -2 -9.5 -3.5 -13.5 -4.5
s-6 -0.833008 -6 0.5c-2.66699 3.33301 -5.33398 8.16602 -8.00098 14.499s-7.66699 17.5 -15 33.5c-0.666992 2 1 4.5 5 7.5s8.83301 6 14.5 9s11.667 6 18 9s11.166 5.5 14.499 7.5c5.33301 2 12 5.33301 20 10s23.667 12.667 47 24v59c0 18.667 0.166992 37 0.5 55
s0.5 36 0.5 54v60c0 10 -0.5 20.833 -1.5 32.5s-5.16699 21.5 -12.5 29.5c-2.66699 2.66699 -6.5 5.33398 -11.5 8.00098l-15 8c-5 2.66699 -9.5 5.33398 -13.5 8.00098s-6 5.66699 -6 9v4c0 2 0.666992 3 2 3c6 0 16.167 2.16699 30.5 6.5s29 9.33301 44 15
s28 11.167 39 16.5s16.5 9.33301 16.5 12l6 -4c0 -9.33301 0.166992 -18.333 0.5 -27s0.5 -17.667 0.5 -27v-74c0 -22.667 -0.166992 -45 -0.5 -67s-0.5 -44.667 -0.5 -68v-73l21.5 11l19.5 10.5l22.5 12l29.5 15.5c3.33301 1.33301 7.5 -3.33398 12.5 -14.001l17.5 -36
c0.666992 -2 -0.333008 -4.16699 -3 -6.5s-6 -4.83301 -10 -7.5s-8.33301 -5 -13 -7s-9 -4 -13 -6l-84 -45v-293c0 -22 5.83301 -35.833 17.5 -41.5s26.5 -9.5 44.5 -11.5c1.33301 -1.33301 2.83301 -1.83301 4.5 -1.5s3.16699 0.5 4.5 0.5c10.667 0 16 -5 16 -15z" />
    <glyph glyph-name="Zcaron" horiz-adv-x="757" 
d="M503 941c4 0 6 -2.33008 6 -6.99707c0 -2 -2.16699 -7.66699 -6.5 -17s-10 -20.333 -17 -33l-23 -41l-24 -41c-7.66699 -12.667 -14.667 -23.667 -21 -33s-10.833 -15 -13.5 -17c-6 3.33301 -9.33301 6 -10 8l-55.5 90.5c-17.667 28.333 -31.167 54.833 -40.5 79.5
c-1.33301 4 -2 6.66699 -2 8c0 5.33301 3 7.66602 9 6.99902c3.33301 -0.666992 9 -5.83398 17 -15.501l26.5 -33.5c9.66699 -12.667 19.5 -24.834 29.5 -36.501s18.667 -19.834 26 -24.501c7.33301 4.66699 15.5 12.834 24.5 24.501l26.5 35.5
c8.66699 12 17.167 22.667 25.5 32s15.833 14 22.5 14zM90 732.003c7.33301 0 12.665 -0.333008 15.998 -1s6.33301 -1.5 9 -2.5l9.5 -3.5c3.66699 -1.33301 9.16699 -2.33301 16.5 -3c6 -4 15 -6.66699 27 -8s23.333 -2 34 -2h19c30 0 63.333 0.333008 100 1
s74.167 1.16699 112.5 1.5s76 0.833008 113 1.5s70.5 1 100.5 1c6.66699 0 15 0.833008 25 2.5s19.167 2.83398 27.5 3.50098s15.333 -0.333008 21 -3s7.5 -8 5.5 -16c0 -0.666992 -5.66699 -7.83398 -17 -21.501l-45.5 -53.5l-65 -75.5l-75 -87.5l-77 -89.5l-70 -82
l-54 -64c-15 -17.667 -24.833 -29.5 -29.5 -35.5c-5.33301 -7.33301 -13.5 -17.5 -24.5 -30.5l-34 -41c-11.667 -14.333 -22 -28 -31 -41s-14.167 -23.5 -15.5 -31.5c0 -5.33301 2.16699 -9.33301 6.5 -12s9.5 -4.33398 15.5 -5.00098s12.333 -0.833984 19 -0.500977
s12.667 0.5 18 0.5c30 0 62.5 0.166992 97.5 0.5s67.5 0.5 97.5 0.5c23.333 0 48.666 0.5 75.999 1.5s52.666 4.83301 75.999 11.5c16.667 6.66699 29.5 15.834 38.5 27.501s18.167 25.167 27.5 40.5c4 7.33301 7.33301 15.5 10 24.5s5.83398 16.833 9.50098 23.5
s8 10.834 13 12.501s11.5 -0.833008 19.5 -7.5c2 -11.333 3 -22 3 -32c0 -11.333 -1.5 -22.833 -4.5 -34.5s-5.5 -23.167 -7.5 -34.5c-1.33301 -8 -2.5 -16.5 -3.5 -25.5s-2.83301 -17.333 -5.5 -25s-6.66699 -13.834 -12 -18.501s-13.333 -7 -24 -7
c-25.333 0 -50.666 0.666992 -75.999 2s-50.666 2 -75.999 2h-87c-60.667 0 -123.834 -1.16699 -189.501 -3.5s-128.834 -3.5 -189.501 -3.5c-10.667 0 -16 5 -16 15c0 1.33301 5.5 8.83301 16.5 22.5l43 54l61.5 76l72 87.5l73.5 89.5l67 81l52 63l28.5 35.5
c4.66699 6 13.334 16 26.001 30l39 43.5l37 42.5c11.333 13.333 18 22.333 20 27c1.33301 1.33301 3 3.83301 5 7.5s3.33301 6.5 4 8.5c0.666992 2.66699 -1.5 4.5 -6.5 5.5s-11.167 1.5 -18.5 1.5c-6.66699 0 -13.334 -0.166992 -20.001 -0.5s-11 -0.5 -13 -0.5h-70
c-19.333 0 -39.333 -0.166992 -60 -0.5l-61.5 -1l-59 -1c-19 -0.333008 -35.833 -0.833008 -50.5 -1.5c-21.333 -1.33301 -40.666 -4.66602 -57.999 -9.99902s-33.666 -16.333 -48.999 -33c-5.33301 -5.33301 -10.333 -12 -15 -20l-13.5 -24
c-4.33301 -8 -8.83301 -14.833 -13.5 -20.5s-9 -8.5 -13 -8.5c-3.33301 0 -8.16602 0.833008 -14.499 2.5s-8.5 5.16699 -6.5 10.5c4 17.333 8.66699 34.666 14 51.999l16 52c5.33301 14.667 9.83301 27.834 13.5 39.501s10.167 17.5 19.5 17.5z" />
    <glyph glyph-name="zcaron" horiz-adv-x="465" 
d="M334 689c4 0 6 -2.33008 6 -6.99707c0 -2 -2.16699 -7.66699 -6.5 -17s-10 -20.333 -17 -33l-23 -41l-24 -41c-7.66699 -12.667 -14.667 -23.667 -21 -33s-10.833 -15 -13.5 -17c-6 3.33301 -9.33301 6 -10 8l-55.5 90.5c-17.667 28.333 -31.167 54.833 -40.5 79.5
c-1.33301 4 -2 6.66699 -2 8c0 5.33301 3 7.66602 9 6.99902c3.33301 -0.666992 9 -5.83398 17 -15.501l26.5 -33.5c9.66699 -12.667 19.5 -24.834 29.5 -36.501s18.667 -19.834 26 -24.501c7.33301 4.66699 15.5 12.834 24.5 24.501l26.5 35.5
c8.66699 12 17.167 22.667 25.5 32s15.833 14 22.5 14zM421 86.0029c0 -8 -0.167969 -16.6748 -0.500977 -26.0078s-1 -18.166 -2 -26.499s-2.16699 -15.666 -3.5 -21.999s-3 -10.166 -5 -11.499c-2.66699 -4.66699 -6.16699 -5.83398 -10.5 -3.50098
s-8.83301 3.5 -13.5 3.5c-50 0 -98.333 -0.333008 -145 -1s-95 -1 -145 -1h-14c-5.33301 0 -11 0.166992 -17 0.5s-11.667 0.833008 -17 1.5s-9.83301 1.83398 -13.5 3.50098s-5.5 3.5 -5.5 5.5c0 3.33301 0.666992 6 2 8s2.66602 4.33301 3.99902 7
c5.33301 8 11.333 15.667 18 23s13 14.666 19 21.999l86.5 114.5l83.5 115.5c4 6 10 14.167 18 24.5l24 32l22.5 31.5c7 10 11.5 17.667 13.5 23c0.666992 2.66699 -1.66602 4.5 -6.99902 5.5s-11.833 1.66699 -19.5 2s-15.167 0.333008 -22.5 0s-13 -0.5 -17 -0.5h-31
c-17.333 0 -35.5 -0.166992 -54.5 -0.5s-35.167 -2.16602 -48.5 -5.49902c-11.333 -2 -20.166 -6 -26.499 -12s-12 -12.333 -17 -19s-9.83301 -12.5 -14.5 -17.5s-11 -7.5 -19 -7.5c-3.33301 0 -6.66602 0.5 -9.99902 1.5s-4.33301 3.83301 -3 8.5
c2 6.66699 3.5 11.334 4.5 14.001s2 5 3 7s2 4.33301 3 7s2.5 7.33398 4.5 14.001c1.33301 5.33301 2.83301 11 4.5 17s3.5 11.667 5.5 17c1.33301 4 3.33301 7.83301 6 11.5s6.66699 5.5 12 5.5c9.33301 0 17.5 -1.5 24.5 -4.5s17.833 -4.5 32.5 -4.5h156
c12 0 24.167 0.333008 36.5 1s24.5 1 36.5 1h15c9.33301 0 19.666 -0.666992 30.999 -2s18.666 -3.66602 21.999 -6.99902c3.33301 -4.66699 3.66602 -9.66699 0.999023 -15l-94.5 -129.5l-94.5 -129.5l-47.5 -62.5c-17.667 -22.333 -31.167 -44.166 -40.5 -65.499
c-1.33301 -3.33301 1 -5 7 -5h57c14 0 29 0.166992 45 0.5s31.5 1.33301 46.5 3s28.167 3.66699 39.5 6s19.333 5.5 24 9.5s8.33398 9.5 11.001 16.5s4.83398 14 6.50098 21l5 20.5c1.66699 6.66699 4.16699 11.667 7.5 15h5c6.66699 0.666992 11 -0.666016 13 -3.99902
s3 -8 3 -14v-23z" />
    <glyph glyph-name="space" unicode=" " horiz-adv-x="285" 
 />
    <glyph glyph-name="exclam" unicode="!" horiz-adv-x="242" 
d="M179 45c0 -18.667 -6.5 -33.332 -19.5 -43.999s-28.167 -16 -45.5 -16c-16 0 -29.333 6.33301 -40 19s-16 26.667 -16 42c0 17.333 5.83301 32.166 17.5 44.499s26.167 18.5 43.5 18.5c16 0 30 -6.66699 42 -20s18 -28 18 -44zM62 700.002
c-0.666992 10 0.000976562 16.666 2.00098 19.999s5.5 5.16602 10.5 5.49902s11.5 -0.166992 19.5 -1.5s18 -2 30 -2c10 0 19 0.5 27 1.5s15 1.5 21 1.5c7.33301 0 12.666 -1.5 15.999 -4.5s4.33301 -9.83301 3 -20.5c-2.66699 -24.667 -6.5 -57.5 -11.5 -98.5l-16 -130.5
l-17.5 -137.5c-6 -45.667 -11.667 -85.167 -17 -118.5c-0.666992 -3.33301 -3.5 -4.66602 -8.5 -3.99902s-8.83301 2 -11.5 4c-3.33301 36 -7.33301 74.833 -12 116.5l-14.5 126.5c-5 42.667 -9.33301 84.834 -13 126.501s-6.16699 80.167 -7.5 115.5z" />
    <glyph glyph-name="quotedbl" unicode="&#x22;" horiz-adv-x="297" 
d="M216 728c4 0 8.33203 -0.166992 12.999 -0.5s11 -0.5 19 -0.5c5.33301 2 9.16602 0.5 11.499 -4.5s2.83301 -9.16699 1.5 -12.5c-1.33301 -7.33301 -3.16602 -20.5 -5.49902 -39.5l-7 -60c-2.33301 -21 -4.83301 -40.333 -7.5 -58s-5 -28.5 -7 -32.5
c-1.33301 -3.33301 -3.66602 -5.66602 -6.99902 -6.99902s-6.83301 -1.83301 -10.5 -1.5s-7.16699 1.66602 -10.5 3.99902s-5.33301 5.5 -6 9.5l-6 39c-2.66699 17.333 -5.16699 35.333 -7.5 54s-4.33301 36.5 -6 53.5s-2.5 30.167 -2.5 39.5
c-0.666992 6 -0.166992 10.333 1.5 13s6.16699 4 13.5 4h23zM74.999 728c4 0 8.33105 -0.166992 12.998 -0.5s11 -0.5 19 -0.5c5.33301 2 9.16602 0.5 11.499 -4.5s2.83301 -9.16699 1.5 -12.5c-1.33301 -7.33301 -3.16602 -20.5 -5.49902 -39.5s-4.66602 -39 -6.99902 -60
s-4.83301 -40.333 -7.5 -58s-5 -28.5 -7 -32.5c-1.33301 -3.33301 -3.66602 -5.66602 -6.99902 -6.99902s-6.83301 -1.83301 -10.5 -1.5s-7.16699 1.66602 -10.5 3.99902s-5.33301 5.5 -6 9.5l-6 39c-2.66699 17.333 -5.16699 35.333 -7.5 54s-4.33301 36.5 -6 53.5
s-2.5 30.167 -2.5 39.5c-0.666992 6 -0.166992 10.333 1.5 13s6.16699 4 13.5 4h23z" />
    <glyph glyph-name="numbersign" unicode="#" horiz-adv-x="512" 
d="M316 328c-14 0 -29 -0.166992 -45 -0.5s-33 -0.5 -51 -0.5c-4.66699 -20.667 -8.5 -38.5 -11.5 -53.5s-6.16699 -28.833 -9.5 -41.5h97l10 47.5zM480 360c0 -5.33301 -0.168945 -11.165 -0.501953 -17.498s-2.16602 -11.5 -5.49902 -15.5
c-6.66699 0.666992 -13.667 1 -21 1h-23h-61c-4.66699 -21.333 -8.5 -39.5 -11.5 -54.5s-6.16699 -28.833 -9.5 -41.5h87c8.66699 -12 12.167 -22.833 10.5 -32.5s-5.16699 -20.167 -10.5 -31.5c-14.667 -0.666992 -30.5 -1.16699 -47.5 -1.5s-34.5 -0.5 -52.5 -0.5
c-4 -19.333 -8 -41.166 -12 -65.499l-16 -98.5c-3.33301 0 -9.16602 -0.333008 -17.499 -1s-20.833 -0.333984 -37.5 0.999023l16.5 90.5l14.5 73.5h-97c-4 -19.333 -8 -41.166 -12 -65.499l-16 -98.5c-3.33301 0 -9.16602 -0.333008 -17.499 -1
s-20.833 -0.333984 -37.5 0.999023l16.5 90.5l14.5 74.5c-18 0 -34.667 0.166992 -50 0.5s-29 0.833008 -41 1.5c0 6 -0.833008 11.333 -2.5 16s-2.5 10 -2.5 16c0 4 0.833008 9 2.5 15s2.83398 11 3.50098 15c12 0 26.833 0.166992 44.5 0.5s37.167 0.5 58.5 0.5l10 47
l10 48h-79c-7.33301 11.333 -11.333 21.166 -12 29.499s3.33301 19.833 12 34.5c15.333 0 30.5 -0.166992 45.5 -0.5s30.167 -0.5 45.5 -0.5c4 22 8.16699 46.167 12.5 72.5l14.5 88.5c6.66699 2 16 3 28 3c5.33301 0 10.5 -0.166992 15.5 -0.5s9.16699 -0.833008 12.5 -1.5
c-3.33301 -28 -7.5 -55.333 -12.5 -82s-10.5 -53.334 -16.5 -80.001c17.333 0 33.666 -0.166992 48.999 -0.5s30.666 -0.5 45.999 -0.5l12.5 72.5l14.5 89.5c6.66699 2 16 3 28 3c5.33301 0 10.5 -0.166992 15.5 -0.5s9.16699 -0.833008 12.5 -1.5
c-3.33301 -28 -7.5 -55.167 -12.5 -81.5s-10.5 -53.5 -16.5 -81.5h96c1.33301 -6.66699 2 -11.667 2 -15v-14v0z" />
    <glyph glyph-name="dollar" unicode="$" horiz-adv-x="521" 
d="M128 587c0 -31.333 10.667 -58 32 -80s47 -41.667 77 -59c0 50 0.166992 96 0.5 138s0.5 81 0.5 117c-30.667 -4 -56.667 -15.833 -78 -35.5s-32 -46.5 -32 -80.5zM389 152c-0.666992 36 -11.832 65.501 -33.499 88.501s-48.5 43.833 -80.5 62.5v-286
c34 5.33301 61.667 19.666 83 42.999s31.666 54 30.999 92zM255.002 800.001c3.33301 0 7.00391 -0.162109 11.0039 -0.495117s7.33301 -1.83301 10 -4.5c-0.666992 -4 -1 -8.33301 -1 -13v-13v-15c0 -4.66699 -0.333008 -9.66699 -1 -15
c13.333 -1.33301 27.833 -5.33301 43.5 -12s29.167 -13.334 40.5 -20.001c7.33301 -4 12.833 -4.16699 16.5 -0.5s7.16699 8.83398 10.5 15.501s7.5 13 12.5 19s12.5 9 22.5 9c4.66699 0 7.66699 -3.33301 9 -10s2 -14.667 2 -24s-0.5 -19 -1.5 -29s-1.5 -18.667 -1.5 -26
c0.666992 -34.667 -0.333008 -69.334 -3 -104.001c-1.33301 -6 -3 -10 -5 -12s-4.33301 -3 -7 -3s-5.33398 0.333008 -8.00098 1s-5 1 -7 1c-4 0 -7.33301 3 -10 9s-5 13.167 -7 21.5l-6 26c-2 9 -5 16.833 -9 23.5c-9.33301 22 -22.333 39.667 -39 53
s-34.334 21.666 -53.001 24.999v-274l58.5 -29.5c19.667 -9.66699 37.5 -19.5 53.5 -29.5c28 -18.667 49.833 -43 65.5 -73s23.834 -62 24.501 -96c0 -66.667 -18.5 -118.5 -55.5 -155.5s-85.5 -58.833 -145.5 -65.5c-0.666992 -6.66699 -1 -12.667 -1 -18v-17v-15
c0 -5.33301 -0.333008 -10.333 -1 -15h-20c-8 0 -13 0.333008 -15 1c-0.666992 4 -1 8.33301 -1 13v15v33c-12.667 0 -24.5 1.66699 -35.5 5s-21.167 6.83301 -30.5 10.5l-26.5 10.5c-8.33301 3.33301 -15.833 5 -22.5 5c-8 0 -13.833 -2.16699 -17.5 -6.5
s-7.16699 -9.33301 -10.5 -15s-7.33301 -10.667 -12 -15s-12 -6.5 -22 -6.5c-4.66699 0 -7.66699 4.16699 -9 12.5s-2 18.166 -2 29.499s0.5 23 1.5 35s1.5 21.667 1.5 29c0 17.333 0.166992 33 0.5 47s1.16602 29.667 2.49902 47c0.666992 6 2.16699 10 4.5 12
s4.83301 3 7.5 3s5.16699 -0.333008 7.5 -1s4.5 -1 6.5 -1c4.66699 0 8.33398 -2.83301 11.001 -8.5s5 -12.667 7 -21l6.5 -26.5c2.33301 -9.33301 5.16602 -17.333 8.49902 -24c10.667 -24.667 27.5 -44 50.5 -58s47.167 -22 72.5 -24v309l-69 38.5
c-22.667 13 -43 27.667 -61 44s-32.667 35.166 -44 56.499s-17 46.666 -17 75.999s4.83301 55.833 14.5 79.5s23.167 44 40.5 61s37.666 30.5 60.999 40.5s48.666 16.333 75.999 19v59c4 1.33301 6.66699 2 8 2h9v0z" />
    <glyph glyph-name="percent" unicode="%" horiz-adv-x="780" 
d="M661 145c0 32.667 -8.83105 58.667 -26.498 78s-39.167 29 -64.5 29c-20.667 0 -39.834 -9.16699 -57.501 -27.5s-26.834 -42.5 -27.501 -72.5c-1.33301 -34 6.66699 -59.5 24 -76.5s38.333 -25.5 63 -25.5c22 0 42.167 8 60.5 24s27.833 39.667 28.5 71zM294.002 550
c0 32.667 -8.83105 58.667 -26.498 78s-39.167 29 -64.5 29c-20.667 0 -39.834 -9.16699 -57.501 -27.5s-26.834 -42.5 -27.501 -72.5c-1.33301 -34 6.66699 -59.5 24 -76.5s38.333 -25.5 63 -25.5c22 0 42.167 8 60.5 24s27.833 39.667 28.5 71zM655.004 646
c-18.667 -28 -38.333 -55.167 -59 -81.5l-63 -79.5l-187 -237c-62 -78 -122.333 -158.333 -181 -241c-3.33301 1.33301 -9.33301 5 -18 11s-20.667 11.667 -36 17l245 318l244 321c7.33301 0 16.5 -3.66699 27.5 -11s20.167 -13 27.5 -17zM730.005 155
c0 -22.667 -3.83301 -44 -11.5 -64s-18.5 -37.5 -32.5 -52.5s-30.667 -27 -50 -36s-40.666 -13.5 -63.999 -13.5c-24 0 -45.833 3.66699 -65.5 11s-36.5 18 -50.5 32s-24.833 30.667 -32.5 50s-11.5 41 -11.5 65c0 22.667 3.83301 44 11.5 64s18.5 37.5 32.5 52.5
s30.667 26.833 50 35.5s40.666 13 63.999 13c21.333 0 41.666 -4 60.999 -12s36.333 -19 51 -33s26.334 -30.667 35.001 -50s13 -40 13 -62zM363.005 560c0 -22.667 -3.83301 -44 -11.5 -64s-18.5 -37.5 -32.5 -52.5s-30.667 -27 -50 -36s-40.666 -13.5 -63.999 -13.5
c-24 0 -45.833 3.66699 -65.5 11s-36.5 18 -50.5 32s-24.833 30.667 -32.5 50s-11.5 41 -11.5 65c0 22.667 3.83301 44 11.5 64s18.5 37.5 32.5 52.5s30.667 26.833 50 35.5s40.666 13 63.999 13c21.333 0 41.666 -4 60.999 -12s36.333 -19 51 -33
s26.334 -30.667 35.001 -50s13 -40 13 -62z" />
    <glyph glyph-name="ampersand" unicode="&#x26;" horiz-adv-x="792" 
d="M391 535c0 25.333 -6.83008 46.499 -20.4971 63.499s-33.834 25.5 -60.501 25.5c-23.333 0 -42.333 -7.66699 -57 -23s-22 -34.666 -22 -57.999c0 -14 3 -27.333 9 -40c2.66699 -6.66699 7.16699 -14.167 13.5 -22.5s13.5 -16.5 21.5 -24.5s16.167 -15.333 24.5 -22
s15.5 -11.667 21.5 -15c3.33301 1.33301 6.16602 2.83301 8.49902 4.5s4.83301 3.16699 7.5 4.5c17.333 12 30.666 27.5 39.999 46.5s14 39.167 14 60.5zM263.003 355.999c-34 -13.333 -62.001 -34.334 -84.001 -63.001s-33 -62 -33 -100c0 -21.333 4 -41 12 -59
s19 -33.667 33 -47s30.167 -23.833 48.5 -31.5s38.166 -11.5 59.499 -11.5c32 0 59.333 6.66699 82 20s44.667 31 66 53c4.66699 4.66699 8.83398 9.83398 12.501 15.501s7.5 11.167 11.5 16.5c-4 10 -9.66699 19 -17 27s-14.666 16.667 -21.999 26
c-24 30 -50.167 57.833 -78.5 83.5s-58.5 49.167 -90.5 70.5zM303.002 650.998c20.667 0 40.3281 -1.99707 58.9951 -5.99707s35 -10.5 49 -19.5s25.167 -20.833 33.5 -35.5s12.5 -32.667 12.5 -54c0 -16 -3.5 -30.667 -10.5 -44s-16.167 -25.5 -27.5 -36.5
s-23.833 -20.833 -37.5 -29.5s-26.834 -16 -39.501 -22c6 -5.33301 12.167 -10.166 18.5 -14.499s12.833 -9.16602 19.5 -14.499c12.667 -10 25.334 -21.333 38.001 -34s25.167 -25.834 37.5 -39.501l36.5 -41l34 -38.5c2.66699 1.33301 4.83398 3.16602 6.50098 5.49902
l4.5 6.5c6.66699 8.66699 14 17.667 22 27s15.167 18.666 21.5 27.999s11.666 19 15.999 29s6.5 20.333 6.5 31c0 12.667 -1.66699 21.167 -5 25.5s-6.83301 7.16602 -10.5 8.49902s-7.16699 2.83301 -10.5 4.5s-5 6.5 -5 14.5c0 2.66699 2.66699 4.66699 8 6s10.333 2 15 2
h65c14.667 0 29.334 0.666992 44.001 2s29.667 2 45 2c4 0 7.66699 -1.16699 11 -3.5s5 -5.83301 5 -10.5s-1.66699 -8.16699 -5 -10.5s-7.16602 -4.16602 -11.499 -5.49902s-9.16602 -2.16602 -14.499 -2.49902s-10 -0.5 -14 -0.5c-9.33301 0 -19.333 -4.33301 -30 -13
s-21 -18.667 -31 -30s-18.833 -22.5 -26.5 -33.5l-17.5 -24.5l-35 -46l-35 -45c12.667 -18 25.834 -35.5 39.501 -52.5s28 -32.167 43 -45.5s31 -24.5 48 -33.5s35.5 -14.5 55.5 -16.5c4.66699 -2 9.83398 -3.83301 15.501 -5.5s10.334 -3.83398 14.001 -6.50098
s5.66699 -6.16699 6 -10.5s-1.83398 -10.166 -6.50098 -17.499c-4 -1.33301 -9.16699 -2.5 -15.5 -3.5s-13 -1.66699 -20 -2l-20.5 -1c-6.66699 -0.333008 -12.334 -0.5 -17.001 -0.5c-32 0 -58.333 4.83301 -79 14.5s-38 21.167 -52 34.5s-26.167 27.166 -36.5 41.499
s-20.833 26.166 -31.5 35.499c-0.666992 -0.666992 -1.16699 -1.33398 -1.5 -2.00098s-0.833008 -1.33398 -1.5 -2.00098c-7.33301 -11.333 -16.666 -23.166 -27.999 -35.499s-23.666 -24.333 -36.999 -36s-27 -22.334 -41 -32.001s-27 -16.834 -39 -21.501
c-26 -10.667 -55.333 -16 -88 -16c-21.333 0 -41 2.33301 -59 7c-20 4.66699 -38.333 12.334 -55 23.001s-30.667 23.5 -42 38.5s-20.166 31.833 -26.499 50.5s-9.5 38.334 -9.5 59.001v19c0 34.667 10 65.5 30 92.5s44 49.5 72 67.5c11.333 7.33301 24.5 14.5 39.5 21.5
s27.167 15.167 36.5 24.5c-1.33301 2 -5 5.33301 -11 10c-16 14 -30.833 31.833 -44.5 53.5s-20.5 43.5 -20.5 65.5c0 20 3.66699 38.667 11 56s17.166 32.5 29.499 45.5s27.166 23.333 44.499 31s36 11.5 56 11.5z" />
    <glyph glyph-name="quotesingle" unicode="'" horiz-adv-x="156" 
d="M75 728c4 0 8.33105 -0.166992 12.998 -0.5s11 -0.5 19 -0.5c5.33301 2 9.16602 0.5 11.499 -4.5s2.83301 -9.16699 1.5 -12.5c-1.33301 -7.33301 -3.16602 -20.5 -5.49902 -39.5s-4.66602 -39 -6.99902 -60s-4.83301 -40.333 -7.5 -58s-5 -28.5 -7 -32.5
c-1.33301 -3.33301 -3.66602 -5.66602 -6.99902 -6.99902s-6.83301 -1.83301 -10.5 -1.5s-7.16699 1.66602 -10.5 3.99902s-5.33301 5.5 -6 9.5l-6 39c-2.66699 17.333 -5.16699 35.333 -7.5 54s-4.33301 36.5 -6 53.5s-2.5 30.167 -2.5 39.5
c-0.666992 6 -0.166992 10.333 1.5 13s6.16699 4 13.5 4h23z" />
    <glyph glyph-name="parenleft" unicode="(" horiz-adv-x="353" 
d="M317 717c-0.666992 -4 -3.00195 -8 -7.00195 -12c-24 -24 -44 -47.333 -60 -70c-38 -54.667 -66.833 -113.667 -86.5 -177s-29.5 -128.333 -29.5 -195c0 -24 1.33301 -49.167 4 -75.5s6.83398 -52.666 12.501 -78.999s12.834 -51.833 21.501 -76.5s19 -47.334 31 -68.001
l45 -81c15.333 -27.333 35 -51 59 -71c4.66699 -6 6 -12.5 4 -19.5s-6.66699 -10.5 -14 -10.5c-6 0 -13.667 4 -23 12s-16 14 -20 18c-60.667 62 -108.5 129 -143.5 201s-52.5 152 -52.5 240c0 38 4 76.333 12 115s19.5 76.5 34.5 113.5s33.167 72.167 54.5 105.5
s45.333 63.666 72 90.999c2.66699 3.33301 7 8 13 14s12.5 12 19.5 18s13.833 11.333 20.5 16s12 7.33398 16 8.00098c7.33301 -4 13 -9.66699 17 -17z" />
    <glyph glyph-name="parenright" unicode=")" horiz-adv-x="353" 
d="M290 263c0 -58 -8.83398 -115.171 -26.501 -171.504s-41.5 -108.5 -71.5 -156.5c-8 -13.333 -17.167 -27.166 -27.5 -41.499s-21.666 -28.5 -33.999 -42.5s-25.166 -27 -38.499 -39s-26.666 -22 -39.999 -30c-12 3.33301 -19.333 10.333 -22 21l64.5 80
c21 27.333 39.167 56.333 54.5 87c22.667 44 39.167 90.167 49.5 138.5s15.5 97.5 15.5 147.5c0 32 -2.16699 64.833 -6.5 98.5s-11 66.834 -20 99.501s-20.5 64.334 -34.5 95.001s-30.333 59 -49 85s-33.334 44.167 -44.001 54.5s-18.667 19.166 -24 26.499
c-1.33301 2.66699 0.166992 6.83398 4.5 12.501s8.16602 8.5 11.499 8.5c2 0 5 -1.16699 9 -3.5s8 -5.16602 12 -8.49902l11.5 -9.5c3.66699 -3 6.5 -5.5 8.5 -7.5c60.667 -60.667 108.667 -128 144 -202s53 -154.667 53 -242z" />
    <glyph glyph-name="asterisk" unicode="*" horiz-adv-x="520" 
d="M490 567c3.33301 -6.66699 3.83301 -11.168 1.5 -13.501s-6.16602 -4.5 -11.499 -6.5c-8.66699 -3.33301 -21.334 -7.33301 -38.001 -12l-52.5 -14.5l-52.5 -14c-16.667 -4.33301 -29.334 -7.5 -38.001 -9.5c-8 -2.66699 -13.167 -1.16699 -15.5 4.5
s-1.5 10.834 2.5 15.501c2.66699 3.33301 11.834 9.5 27.501 18.5l51.5 29l53.5 29.5c17 9.33301 28.167 16 33.5 20c3.33301 1.33301 7.33301 1.83301 12 1.5s7.33398 -3.5 8.00098 -9.5c3.33301 -6.66699 5.66602 -11.667 6.99902 -15s2.5 -6 3.5 -8l3 -6
c1 -2 2.5 -5.33301 4.5 -10zM255 729.999c2 0 4.66602 -0.164062 7.99902 -0.49707s8.66602 -0.5 15.999 -0.5c6 1.33301 10 -0.333984 12 -5.00098s2.33301 -8.66699 1 -12c-1.33301 -7.33301 -2.83301 -20.5 -4.5 -39.5s-3.5 -38.833 -5.5 -59.5
s-4.16699 -39.834 -6.5 -57.501s-4.5 -28.5 -6.5 -32.5c-2.66699 -6.66699 -7 -10 -13 -10c-5.33301 0 -8.66602 4.66699 -9.99902 14c-2 8.66699 -4.33301 21.5 -7 38.5l-8 53.5c-2.66699 18.667 -5 36.667 -7 54s-3.33301 30.666 -4 39.999
c0.666992 5.33301 1.83398 9.5 3.50098 12.5s6.16699 4.5 13.5 4.5h18zM91.999 324.002c-5.33301 5.33301 -7.99902 9 -7.99902 11c0 3.33301 2.33301 7.33301 7 12c6 6.66699 15.333 16 28 28l40 36.5l41 35c13.333 11 23.666 19.167 30.999 24.5
c6.66699 6 12.334 7.16699 17.001 3.5s5.66699 -9.16699 3 -16.5c-1.33301 -4 -6.83301 -13.333 -16.5 -28l-32.5 -48l-34.5 -49.5l-22.5 -32.5c-1.33301 -3.33301 -4.33301 -6 -9 -8s-8.66699 -0.333008 -12 5c-6 4.66699 -10.167 8 -12.5 10l-6 5
c-1.66699 1.33301 -3.33398 2.83301 -5.00098 4.5s-4.5 4.16699 -8.5 7.5zM391 293.002c-8.66699 -6.66699 -16.998 -5.33203 -24.998 4.00098c-4.66699 7.33301 -11.334 18.5 -20.001 33.5l-27.5 47l-27 47c-8.33301 15 -14.5 26.5 -18.5 34.5
c-4 7.33301 -3.83301 13 0.5 17s9.5 4 15.5 0c4 -1.33301 12.5 -8.33301 25.5 -21l41.5 -42l41.5 -44c13 -14 21.833 -23 26.5 -27c3.33301 -2.66699 5.5 -6.33398 6.5 -11.001s-1.16699 -8 -6.5 -10c-6 -5.33301 -10.333 -9.33301 -13 -12s-4.83398 -4.66699 -6.50098 -6
l-5 -4c-1.66699 -1.33301 -4.5 -3.33301 -8.5 -6zM29.002 566.004c2 4.66699 3.50195 8 4.50195 10s1.83301 4 2.5 6s1.66699 4.5 3 7.5l7 15.5c0.666992 6.66699 3.33398 10 8.00098 10c5.33301 0 9.66602 -1.66699 12.999 -5c6 -4 17.333 -10.5 34 -19.5l52.5 -29
l50.5 -29c15.333 -9 24.333 -15.167 27 -18.5c4.66699 -5.33301 5.66699 -10.833 3 -16.5s-8.33398 -7.5 -17.001 -5.5l-37 9.5c-16.667 4.33301 -34.167 9.16602 -52.5 14.499l-53 15.5c-17 5 -29.5 9.5 -37.5 13.5c-5.33301 2 -8.83301 4.33301 -10.5 7
s-0.833984 7.33398 2.49902 14.001z" />
    <glyph glyph-name="plus" unicode="+" 
d="M239 47c-5.33301 0 -11.167 0.169922 -17.5 0.50293s-11.5 2.16602 -15.5 5.49902c1.33301 17.333 1.83301 38.666 1.5 63.999s-0.5 58.666 -0.5 99.999h-159c-7.33301 11.333 -11.333 21.166 -12 29.499s3.33301 19.833 12 34.5c14 -0.666992 27.667 -1 41 -1h40h77v159
c11.333 7.33301 21.166 11.333 29.499 12s19.833 -3.33301 34.5 -12c-0.666992 -14 -1 -28 -1 -42v-40v-78h169c1.33301 -6.66699 2 -11.667 2 -15v-14c0 -5.33301 -0.166992 -11.166 -0.5 -17.499s-2.16602 -11.5 -5.49902 -15.5
c-17.333 1.33301 -38.833 1.83301 -64.5 1.5s-59.5 -0.5 -101.5 -0.5v-169c-6.66699 -1.33301 -11.667 -2 -15 -2h-14v0z" />
    <glyph glyph-name="comma" unicode="," horiz-adv-x="258" 
d="M212 -9c0 -23.333 -5.16992 -45.332 -15.5029 -65.999s-23.833 -39 -40.5 -55c-12.667 -12.667 -27.5 -24.5 -44.5 -35.5s-32.167 -17.5 -45.5 -19.5c-3.33301 -0.666992 -6.66602 1 -9.99902 5s-4.66602 7.66699 -3.99902 11
c1.33301 4.66699 7.16602 10.167 17.499 16.5s21.333 14.333 33 24s22.334 21 32.001 34s14.5 28.167 14.5 45.5c0 10.667 -1.33301 18.834 -4 24.501s-6.5 10 -11.5 13s-10.833 5.5 -17.5 7.5s-14 4.66699 -22 8c-11.333 5.33301 -21.166 11.5 -29.499 18.5
s-12.5 17.167 -12.5 30.5c0 10 2.16699 18.5 6.5 25.5s10 12.667 17 17s14.667 7.5 23 9.5s16.833 3 25.5 3c14 0 26.5 -3.83301 37.5 -11.5s20.167 -17.334 27.5 -29.001s13 -24.334 17 -38.001s6 -26.5 6 -38.5z" />
    <glyph glyph-name="hyphen" unicode="-" horiz-adv-x="377" 
d="M47 271c0 3.33301 5.00098 5.33203 15.001 5.99902s19.667 1 29 1h17c38 0 76 -0.333008 114 -1s76 0 114 2c4 0 6 -6 6 -18v-40c0 -3.33301 -3.5 -5.5 -10.5 -6.5s-14.5 -1.5 -22.5 -1.5h-226c-8 0 -16 0.333008 -24 1s-12 2 -12 4
c-0.666992 4.66699 -0.833984 10.334 -0.500977 17.001s0.5 18.667 0.5 36z" />
    <glyph glyph-name="period" unicode="." horiz-adv-x="251" 
d="M177 43c0 -17.333 -5.66699 -31.333 -17 -42s-25.666 -16 -42.999 -16s-31.833 5.5 -43.5 16.5s-17.5 25.5 -17.5 43.5s6.16699 32.833 18.5 44.5s27.166 17.5 44.499 17.5c18.667 0 33 -6.33301 43 -19s15 -27.667 15 -45z" />
    <glyph glyph-name="slash" unicode="/" horiz-adv-x="378" 
d="M351 727c-9.33301 -32.667 -20.001 -64.499 -32.001 -95.499l-36 -94.5l-107 -282.5c-35.333 -93 -69 -187.833 -101 -284.5c-3.33301 0 -9.16602 -0.333008 -17.499 -1s-20.833 -0.333984 -37.5 0.999023l140 377c47.333 124 92.333 250.333 135 379
c6.66699 2 16 3 28 3c5.33301 0 10.5 -0.166992 15.5 -0.5s9.16699 -0.833008 12.5 -1.5z" />
    <glyph glyph-name="zero" unicode="0" horiz-adv-x="578" 
d="M444 213c0 22.667 -2.83105 45.499 -8.49805 68.499s-14.667 43.833 -27 62.5s-28.666 33.834 -48.999 45.501s-44.833 17.5 -73.5 17.5c-25.333 0.666992 -47.333 -4.66602 -66 -15.999s-34 -26 -46 -44s-21 -38.167 -27 -60.5s-9.33301 -44.166 -10 -65.499
c-0.666992 -23.333 1.66602 -46 6.99902 -68s14.166 -41.667 26.499 -59s28.333 -31.333 48 -42s43.5 -16.334 71.5 -17.001c26.667 -0.666992 49.5 4.16602 68.5 14.499s34.667 24 47 41s21.666 36.167 27.999 57.5s9.83301 43 10.5 65zM528.002 227.999
c0 -34 -5.83203 -66.166 -17.499 -96.499s-27.834 -56.833 -48.501 -79.5s-45.667 -40.667 -75 -54s-61.333 -20 -96 -20c-35.333 0 -67.833 5.66699 -97.5 17s-55.167 27.5 -76.5 48.5s-37.833 46 -49.5 75s-17.5 61.5 -17.5 97.5c0 34 5.83301 66 17.5 96
s28 56.167 49 78.5s46 40.166 75 53.499s60.833 20 95.5 20c32.667 0 63.5 -6 92.5 -18s54.5 -28.5 76.5 -49.5s39.5 -46 52.5 -75s19.5 -60.167 19.5 -93.5z" />
    <glyph glyph-name="one" unicode="1" horiz-adv-x="364" 
d="M330 431c0 -9.33301 -3.5 -15.002 -10.5 -17.002s-15.167 -3 -24.5 -3c-18 0 -32 -1.66699 -42 -5s-17.333 -8 -22 -14s-7.33398 -13.667 -8.00098 -23s-1 -20 -1 -32c0 -38 -0.5 -75.667 -1.5 -113s-1.5 -75 -1.5 -113v-14v14v-24v10c0.666992 -9.33301 2 -19 4 -29
s6.33301 -18 13 -24c6 -5.33301 14.167 -9 24.5 -11s20.333 -3.83301 30 -5.5s18.167 -3.5 25.5 -5.5s11 -6 11 -12c0 -10 -4.83301 -15.5 -14.5 -16.5s-19.5 -1.5 -29.5 -1.5c-18.667 0 -37.334 1 -56.001 3s-37.334 3 -56.001 3c-10 0 -18.667 -0.333008 -26 -1
s-14.166 -1.5 -20.499 -2.5s-13.166 -1.83301 -20.499 -2.5s-16 -1 -26 -1h-14c-6.66699 0 -13.167 1.16699 -19.5 3.5s-9.5 7.5 -9.5 15.5c0 6 3.33301 10.167 10 12.5s14.5 4.33301 23.5 6s18.5 3.66699 28.5 6s18.333 6.5 25 12.5
c6.66699 5.33301 10.834 14.833 12.501 28.5s2.5 26.834 2.5 39.501v21l1 71c0 17.333 0.166992 34.333 0.5 51s0.5 33.334 0.5 50.001v19c0 11.333 -1 23.666 -3 36.999s-5 22.666 -9 27.999c-7.33301 7.33301 -16 11.833 -26 13.5s-19.667 2.83398 -29 3.50098
s-17.166 2.33398 -23.499 5.00098s-9.5 8.66699 -9.5 18c0 6.66699 3.16699 10.5 9.5 11.5s12.166 1.5 17.499 1.5h11c19.333 0 36.333 -1 51 -3s31.667 -3 51 -3c9.33301 0 19 0.5 29 1.5s19.667 1.5 29 1.5h87c4 -4 6 -7.66699 6 -11z" />
    <glyph glyph-name="two" unicode="2" horiz-adv-x="456" 
d="M46 354c0 2.66699 1.1709 6.50195 3.50391 11.502s5.33301 10 9 15l10.5 14.5c3.33301 4.66699 6 8 8 10c13.333 14.667 25.666 25.834 36.999 33.501s22.166 13.167 32.499 16.5s20.333 5.33301 30 6s19.5 1 29.5 1c48 0 83 -15.167 105 -45.5s26 -70.5 12 -120.5
c-3.33301 -13.333 -9.83301 -28.5 -19.5 -45.5s-21 -34.667 -34 -53s-26.833 -36.333 -41.5 -54s-28.667 -33.667 -42 -48s-25 -26.333 -35 -36s-16.667 -15.5 -20 -17.5c8.66699 -4 23.167 -6.66699 43.5 -8s41.666 -1.5 63.999 -0.5s43 3.5 62 7.5s31.167 9.33301 36.5 16
l21.5 29l22 31l18.5 26.5l10 14.5c5.33301 7.33301 11.833 9.5 19.5 6.5s12.834 -7.5 15.501 -13.5c-16.667 -26.667 -28.167 -50.5 -34.5 -71.5s-10.5 -38.5 -12.5 -52.5s-3.33301 -24.667 -4 -32s-3.66699 -10.666 -9 -9.99902c-18.667 1.33301 -42 4.16602 -70 8.49902
s-63 7.16602 -105 8.49902c-17.333 0 -36.833 -0.166992 -58.5 -0.5s-41.167 -0.5 -58.5 -0.5c-2.66699 0 -6.16699 -2.83301 -10.5 -8.5s-7.83301 -7.83398 -10.5 -6.50098c-6.66699 0 -11.667 1.33301 -15 4s-5 8.33398 -5 17.001c0 3.33301 1.66699 6.66602 5 9.99902
c18.667 20.667 37.334 43 56.001 67s36.167 48 52.5 72s30.833 47.167 43.5 69.5s22.667 42.5 30 60.5c14 36.667 14 65.667 0 87s-38 32 -72 32c-20.667 0 -36.834 -2.83301 -48.501 -8.5s-20.834 -12.334 -27.501 -20.001s-11.834 -14.834 -15.501 -21.501
s-7.5 -11 -11.5 -13s-7.83301 -1.66699 -11.5 1s-5.5 6.33398 -5.5 11.001z" />
    <glyph glyph-name="three" unicode="3" horiz-adv-x="407" 
d="M41 370c-0.666992 8.66699 3.16797 18.335 11.501 29.002s19.166 20.667 32.499 30s28.166 17.333 44.499 24s32.166 10 47.499 10c16 0 31.5 -2 46.5 -6s28.5 -10.5 40.5 -19.5s21.667 -20.5 29 -34.5s11 -31.333 11 -52c0 -14 -4.66699 -29.833 -14 -47.5
s-20.5 -34.667 -33.5 -51s-26.5 -31.333 -40.5 -45s-25.667 -23.834 -35 -30.501c29.333 2.66699 55.833 0.166992 79.5 -7.5s43.667 -19.334 60 -35.001s28.833 -34.5 37.5 -56.5s13 -45.667 13 -71c0 -38 -10 -74.167 -30 -108.5s-45.333 -64.5 -76 -90.5
s-64.5 -46.667 -101.5 -62s-72.833 -23.333 -107.5 -24c-4 0 -6.83301 1.16699 -8.5 3.5s-2.33398 5 -2.00098 8s1.33301 5.66699 3 8s3.83398 3.5 6.50098 3.5c30.667 8.66699 60 19.834 88 33.501s52.5 30 73.5 49s37.667 40.833 50 65.5s18.5 52.334 18.5 83.001
c0 16 -2.33301 32 -7 48s-11.334 30.833 -20.001 44.5s-19.5 25.167 -32.5 34.5s-27.833 15.666 -44.5 18.999c-13.333 2.66699 -27.333 4.66699 -42 6s-29 -1.66699 -43 -9c-4.66699 -2 -11.167 -5.83301 -19.5 -11.5s-14.166 -8.5 -17.499 -8.5c-10 0 -15 5.66699 -15 17
c0 6 4.5 11.167 13.5 15.5l19.5 9.5c14.667 8 30.834 18.5 48.501 31.5s34.334 27.667 50.001 44s28.667 33.666 39 51.999s15.5 36.5 15.5 54.5c0 32 -8 55.667 -24 71s-34.667 23 -56 23s-38.5 -5.33301 -51.5 -16s-27.167 -24.667 -42.5 -42
c-2.66699 -2.66699 -5.66699 -2.5 -9 0.5s-5.33301 6.5 -6 10.5z" />
    <glyph glyph-name="four" unicode="4" horiz-adv-x="578" 
d="M566 23c0 -14 -7.00195 -21.0049 -21.002 -21.0049c-8 0 -16 0.333008 -24 1s-16.333 1 -25 1h-19c-12 0 -23 0.166992 -33 0.5s-18.5 0 -25.5 -1s-12.5 -3.16699 -16.5 -6.5s-6 -8.66602 -6 -15.999v-199c0 -5.33301 -0.166992 -10.5 -0.5 -15.5s0.5 -10.167 2.5 -15.5
c-1.33301 -10.667 -7 -18.167 -17 -22.5s-20.667 -6.5 -32 -6.5c-9.33301 0 -17.666 1.33301 -24.999 4s-11 6 -11 10c1.33301 11.333 2.16602 26 2.49902 44s0.5 36.333 0.5 55v91c0 4.66699 0.166992 10 0.5 16s0.5 12 0.5 18c0 14 -2.33301 24.167 -7 30.5
s-10.5 10.5 -17.5 12.5s-14.667 2.66699 -23 2s-16.166 -1 -23.499 -1c-38 0 -75.333 -1.33301 -112 -4s-74 -4 -112 -4c-5.33301 0 -9.33301 2.83301 -12 8.5s-2 11.167 2 16.5l31 45l41.5 58l47 64.5l47 64l42 56.5l32.5 42c9.33301 12 16 21.333 20 28
s7.5 12.834 10.5 18.501l10 18.5c3.66699 6.66699 9.83398 16.334 18.501 29.001c4.66699 6.66699 11.5 11.334 20.5 14.001s18.167 4 27.5 4s17.333 -1.66699 24 -5s9.66699 -7.66602 9 -12.999c0 -2 0.333008 -6.33301 1 -13s1 -21.667 1 -45v-317
c0 -9.33301 7 -14 21 -14h48c14 0 27.333 0.166992 40 0.5s22 0.5 28 0.5c9.33301 0 17.333 -3.33301 24 -10s10 -14.667 10 -24zM94.998 66.9951c0 -5.33301 2.33398 -8.83398 7.00098 -10.501s9 -2.5 13 -2.5c6.66699 0 18.667 0.333008 36 1s35.666 1.16699 54.999 1.5
s37 0.833008 53 1.5s26 1 30 1c13.333 0 21.333 1.83301 24 5.5s4 9.83398 4 18.501v57c0 22.667 -0.166992 47 -0.5 73s-0.5 52.333 -0.5 79v75l-89 -115c-34 -42.667 -69 -89.334 -105 -140.001c-4 -6 -9.5 -13.167 -16.5 -21.5s-10.5 -16.166 -10.5 -23.499z" />
    <glyph glyph-name="five" unicode="5" horiz-adv-x="487" 
d="M418 537c2 -2 2.66113 -6.00195 1.99414 -12.002s-2.16699 -13.5 -4.5 -22.5s-5.16602 -19.333 -8.49902 -31s-6.33301 -24.167 -9 -37.5l-6.5 -21c-2.33301 -7.33301 -5.66602 -14.166 -9.99902 -20.499s-10 -11.5 -17 -15.5s-15.833 -6 -26.5 -6h-42h-59
c-20.667 0 -39.334 -0.5 -56.001 -1.5s-26.667 -2.5 -30 -4.5c-5.33301 0 -10.666 -6.66699 -15.999 -20s-10.5 -28.5 -15.5 -45.5s-9.66699 -33.667 -14 -50s-8.5 -27.833 -12.5 -34.5c10 4.66699 21 10.667 33 18s25.833 14.166 41.5 20.499s33.167 11.333 52.5 15
s41 3.83398 65 0.500977c29.333 -4.66699 54.833 -13.834 76.5 -27.501s39.334 -30.5 53.001 -50.5s23.167 -42.833 28.5 -68.5s6.33301 -52.834 3 -81.501c-5.33301 -44.667 -20.666 -85.667 -45.999 -123s-56 -69.333 -92 -96c-13.333 -10 -23 -15 -29 -15
s-13 5.33301 -21 16c-2 2 1.16699 7 9.5 15s18.5 19.333 30.5 34s24 33.167 36 55.5s20.333 49.5 25 81.5c3.33301 25.333 4.5 47.833 3.5 67.5s-5.16699 37 -12.5 52s-18.166 28.333 -32.499 40s-33.166 22.167 -56.499 31.5c-8.66699 3.33301 -20.334 4.5 -35.001 3.5
s-30 -3.33301 -46 -7s-31.333 -8.33398 -46 -14.001s-26 -11.167 -34 -16.5c-5.33301 -2 -9.5 -5.33301 -12.5 -10s-6.33301 -9 -10 -13s-8.5 -6.83301 -14.5 -8.5s-14 -0.5 -24 3.5c-6 4.66699 -9 10.334 -9 17.001c0 11.333 3.16699 22 9.5 32s10.5 17.667 12.5 23
l16.5 47c6.33301 18.667 12.5 38.334 18.5 59.001s11.333 41 16 61s7.66699 37.333 9 52c0.666992 3.33301 1.66699 6.5 3 9.5s4.33301 4.5 9 4.5c6.66699 0.666992 16.834 0.833984 30.501 0.500977s30 -0.666016 49 -0.999023s40.167 -0.333008 63.5 0s48.333 1.5 75 3.5
l51 92c3.33301 4.66699 7.5 6 12.5 4z" />
    <glyph glyph-name="six" unicode="6" horiz-adv-x="572" 
d="M515 229c0 -31.333 -5.33008 -61.498 -15.9971 -90.498s-25.5 -54.833 -44.5 -77.5s-41.833 -40.667 -68.5 -54s-56.334 -20 -89.001 -20c-32 0 -64 6.66699 -96 20c-26 11.333 -48.167 25.833 -66.5 43.5s-33.333 37.667 -45 60s-20.334 46.333 -26.001 72
s-8.5 51.834 -8.5 78.501c0 52.667 8.5 102.834 25.5 150.501s40.5 91.834 70.5 132.501s65 77.167 105 109.5s83 59.166 129 80.499c7.33301 3.33301 15.833 7 25.5 11s18.167 6.33301 25.5 7c3.33301 -2 6.83301 -4.66699 10.5 -8s5.5 -7.33301 5.5 -12
c0 -3.33301 -2.5 -7 -7.5 -11s-10.667 -7.66699 -17 -11s-12.833 -6.5 -19.5 -9.5s-11.334 -5.16699 -14.001 -6.5c-11.333 -6.66699 -22.166 -13.834 -32.499 -21.501s-20.5 -15.834 -30.5 -24.501c-44 -38 -80.167 -81.833 -108.5 -131.5s-48.5 -102.834 -60.5 -159.501
c8 8 17.833 16.333 29.5 25s24.5 16.667 38.5 24s29.167 13.333 45.5 18s33.5 7 51.5 7c28.667 0 54.667 -5.16699 78 -15.5s43.166 -24.5 59.499 -42.5s28.833 -39.333 37.5 -64s13 -51.334 13 -80.001zM288.003 386.002c-14 0 -27.668 -2.83301 -41.001 -8.5
s-25.833 -12.5 -37.5 -20.5s-22.334 -16.5 -32.001 -25.5s-17.5 -17.167 -23.5 -24.5l-3.5 -34c-1 -10 -1.5 -21.333 -1.5 -34c0 -23.333 2.16699 -47.833 6.5 -73.5s11.833 -49.5 22.5 -71.5s25.334 -40.167 44.001 -54.5s42.334 -21.5 71.001 -21.5
c24.667 0 45.5 6 62.5 18s30.833 27.333 41.5 46s18.334 39.167 23.001 61.5s7 43.833 7 64.5c0 22 -2.66699 43.667 -8 65s-13.5 40.333 -24.5 57s-25.333 30.167 -43 40.5s-38.834 15.5 -63.501 15.5z" />
    <glyph glyph-name="seven" unicode="7" horiz-adv-x="483" 
d="M463 429c0 -2 -1.83301 -7.50195 -5.5 -16.502s-8.5 -19.833 -14.5 -32.5l-19 -41.5l-20 -43l-17.5 -36.5l-10.5 -22l-119 -260c-39.333 -85.333 -83 -170 -131 -254c-2 -3.33301 -5.66699 -4.83301 -11 -4.5s-10.666 1.83301 -15.999 4.5s-9.66602 6 -12.999 10
s-4.33301 7.66699 -3 11l95 194l95 194l46.5 100c15.667 32.667 30.167 66 43.5 100l2 10c0.666992 3.33301 1 6.66602 1 9.99902c0 6.66699 -3.16699 10.5 -9.5 11.5s-11.833 1.5 -16.5 1.5h-304c-6 0 -11.5 0.833008 -16.5 2.5s-6.5 5.16699 -4.5 10.5
c6 16 11.333 32.5 16 49.5l13 46.5c4 14 7.83301 25.5 11.5 34.5s7.16699 13.5 10.5 13.5s7.83301 -0.666992 13.5 -2s8.5 -4.66602 8.5 -9.99902c-0.666992 -12.667 -0.833984 -24.167 -0.500977 -34.5s0.166016 -21.166 -0.500977 -32.499l39 -1h80h40
c14 0 27.667 0.333008 41 1c21.333 0.666992 42.833 1.5 64.5 2.5s43.167 1.5 64.5 1.5h13c7.33301 0 14.833 -1.16699 22.5 -3.5s11.5 -7.16602 11.5 -14.499z" />
    <glyph glyph-name="eight" unicode="8" horiz-adv-x="496" 
d="M453 182c0.666992 -27.333 -4.00195 -52.8369 -14.002 -76.5039s-23.833 -44.334 -41.5 -62.001s-38.5 -31.5 -62.5 -41.5s-49.333 -15 -76 -15c-26 0 -51.5 2.83301 -76.5 8.5s-47.333 14.834 -67 27.501s-35.667 29.5 -48 50.5s-18.833 46.833 -19.5 77.5
c-0.666992 20.667 2.33301 39.667 9 57s16 33.333 28 48s25.667 27.834 41 39.501s31.333 22.167 48 31.5l21 12c-3.33301 3.33301 -6.66602 6.16602 -9.99902 8.49902s-6.66602 4.83301 -9.99902 7.5c-15.333 10 -30.5 20.667 -45.5 32s-28.333 23.833 -40 37.5
s-21.334 28.5 -29.001 44.5s-11.834 34 -12.501 54c-0.666992 28.667 4.5 54.5 15.5 77.5s25.833 42.667 44.5 59s40.334 28.833 65.001 37.5s50.334 13 77.001 13c24 0 47.667 -3.5 71 -10.5s44.166 -17.167 62.499 -30.5s33.333 -30.166 45 -50.499
s17.834 -43.5 18.501 -69.5c0.666992 -24 -3 -44.833 -11 -62.5s-18.833 -33 -32.5 -46s-29.5 -24.667 -47.5 -35s-36.333 -20.166 -55 -29.499c4 -3.33301 8.33301 -6.33301 13 -9l14 -8c15.333 -9.33301 30.5 -20.166 45.5 -32.499s28.333 -26 40 -41
s21.167 -31.167 28.5 -48.5s11 -35.666 11 -54.999zM371.998 146.996c-0.666992 23.333 -5.16602 44.3379 -13.499 63.0049s-19.166 35 -32.499 49s-28.833 26.333 -46.5 37s-36.167 19.667 -55.5 27c-32.667 -12.667 -58 -33.334 -76 -62.001s-26.333 -60.334 -25 -95.001
c0.666992 -19.333 3.16699 -37.833 7.5 -55.5s11 -33.334 20 -47.001s20.667 -24.667 35 -33s31.833 -12.5 52.5 -12.5c13.333 0 25.666 0.666992 36.999 2s23.333 5 36 11c23.333 11.333 39.666 27.166 48.999 47.499s13.333 43.166 12 68.499zM371.999 544.001
c-0.666992 18.667 -4.16992 36.498 -10.5029 53.498s-15 31.667 -26 44s-24.5 22.166 -40.5 29.499s-34 11 -54 11c-35.333 0 -63.833 -11.833 -85.5 -35.5s-32.5 -53.167 -32.5 -88.5c0.666992 -25.333 9 -49.666 25 -72.999c5.33301 -7.33301 13 -15.833 23 -25.5
s20.833 -19.167 32.5 -28.5s23.334 -17.5 35.001 -24.5s22.167 -11.5 31.5 -13.5c16 4.66699 30.333 12.334 43 23.001s23.334 22.834 32.001 36.501s15.334 28.5 20.001 44.5s7 31.667 7 47z" />
    <glyph glyph-name="nine" unicode="9" horiz-adv-x="572" 
d="M282 45c14 0 27.668 2.83301 41.001 8.5s25.833 12.5 37.5 20.5s22.334 16.5 32.001 25.5s17.5 17.167 23.5 24.5l3.5 34c1 10 1.5 21.333 1.5 34c0 22.667 -2.16699 47 -6.5 73s-11.833 50 -22.5 72s-25.334 40.167 -44.001 54.5s-42.334 21.5 -71.001 21.5
c-24.667 0 -45.5 -6 -62.5 -18s-30.833 -27.333 -41.5 -46s-18.334 -39.167 -23.001 -61.5s-7 -43.833 -7 -64.5c0 -22 2.66699 -43.667 8 -65s13.5 -40.333 24.5 -57s25.333 -30.167 43 -40.5s38.834 -15.5 63.501 -15.5zM55.001 202
c0 31.333 5.33105 61.502 15.998 90.502s25.5 54.833 44.5 77.5s41.833 40.667 68.5 54s56.334 20 89.001 20c32 0 64 -6.66699 96 -20c26 -11.333 48.167 -25.833 66.5 -43.5s33.333 -37.667 45 -60s20.334 -46.333 26.001 -72s8.5 -51.834 8.5 -78.501
c0 -52.667 -7.5 -101.834 -22.5 -147.501s-35 -86.834 -60 -123.501s-54.167 -68.5 -87.5 -95.5s-68 -47.833 -104 -62.5c-7.33301 -3.33301 -15.833 -7 -25.5 -11s-18.167 -6.33301 -25.5 -7c-3.33301 2 -6.83301 4.66699 -10.5 8s-5.5 7.33301 -5.5 12
c0 2 4 5.66699 12 11s17.333 11.166 28 17.499l32 19c10.667 6.33301 18.667 11.833 24 16.5c40 34.667 70 73.834 90 117.501s36 93.5 48 149.5c-8 -8 -17.833 -16.333 -29.5 -25s-24.5 -16.667 -38.5 -24s-29.167 -13.333 -45.5 -18s-33.5 -7 -51.5 -7
c-29.333 0 -55.5 5.16699 -78.5 15.5s-42.667 24.5 -59 42.5s-28.833 39.333 -37.5 64s-13 51.334 -13 80.001z" />
    <glyph glyph-name="colon" unicode=":" horiz-adv-x="257" 
d="M183 396c0 -18 -6.49902 -33.332 -19.499 -45.999s-28.5 -19 -46.5 -19c-2.66699 0 -4.33398 0.333008 -5.00098 1c-7.33301 0.666992 -14.333 3.16699 -21 7.5s-12.5 9.66602 -17.5 15.999s-9 13.333 -12 21s-4.5 15.167 -4.5 22.5c0 15.333 6 29.333 18 42
s25.667 19 41 19c17.333 0 32.833 -6.33301 46.5 -19s20.5 -27.667 20.5 -45zM183.001 50.001c0 -17.333 -6.33203 -33 -18.999 -47s-28 -21 -46 -21c-8.66699 0 -16.834 2 -24.501 6s-14.167 9.16699 -19.5 15.5s-9.66602 13.5 -12.999 21.5s-5 16.333 -5 25
c0 17.333 6.16699 31.833 18.5 43.5s27.166 17.5 44.499 17.5c16 0 30.667 -6 44 -18s20 -26.333 20 -43z" />
    <glyph glyph-name="semicolon" unicode=";" horiz-adv-x="258" 
d="M191 396c0 -18 -6.16699 -33.334 -18.5 -46.001s-27.5 -19 -45.5 -19c-2 0 -3.33301 0.333008 -4 1c-16.667 1.33301 -29.5 8.33301 -38.5 21s-13.5 26.667 -13.5 42c0 18.667 5.5 33.834 16.5 45.501s25.833 17.5 44.5 17.5c16 0 29.833 -6.5 41.5 -19.5
s17.5 -27.167 17.5 -42.5zM212 -12.001c0 -24.667 -4.83203 -46.834 -14.499 -66.501s-23.5 -37.5 -41.5 -53.5c-3.33301 -2.66699 -9 -6.83398 -17 -12.501l-25.5 -17.5c-9 -6 -17.667 -11.167 -26 -15.5s-14.5 -6.5 -18.5 -6.5c-4.66699 0 -7.33398 2.33301 -8.00098 7
c-3.33301 1.33301 -5 4.33301 -5 9c0 0.666992 1.16699 2.16699 3.5 4.5s4.83301 4.66602 7.5 6.99902s5.33398 4.5 8.00098 6.5s4.66699 3.33301 6 4c10 6.66699 19.167 13.334 27.5 20.001s15.5 13.834 21.5 21.501s10.667 16.334 14 26.001s5 21.167 5 34.5
c0 12 -2.5 20.833 -7.5 26.5s-11.333 10 -19 13s-15.834 5.5 -24.501 7.5s-16.667 5.33301 -24 10c-15.333 9.33301 -23 22 -23 38c0 18 7.66699 32 23 42s31 15 47 15s29.667 -3.66699 41 -11s20.833 -16.833 28.5 -28.5s13.167 -24.5 16.5 -38.5s5 -28 5 -42z" />
    <glyph glyph-name="less" unicode="&#x3c;" horiz-adv-x="458" 
d="M133 225l81.999 -63l65 -48l63.5 -44.5l77.5 -53.5c0 -6 -0.5 -10.333 -1.5 -13s-2.16699 -5.16699 -3.5 -7.5s-2.5 -4.83301 -3.5 -7.5s-1.5 -7 -1.5 -13c-38.667 20 -71.5 37.833 -98.5 53.5l-79 47.5l-81 51.5l-103.5 65.5v62l73.5 43.5l57.5 37l49.5 34l49 33l56 35
c20.333 12.333 44.166 25.833 71.499 40.5c0 -6 0.333008 -10.333 1 -13s1.33398 -5 2.00098 -7s1.33398 -4.16699 2.00098 -6.5s1 -6.5 1 -12.5l-81.5 -61l-67 -52l-62.5 -49z" />
    <glyph glyph-name="equal" unicode="=" horiz-adv-x="512" 
d="M452 332c0 -5.33301 -0.168945 -11.166 -0.501953 -17.499s-2.16602 -11.5 -5.49902 -15.5c-7.33301 0.666992 -15.333 1 -24 1h-27h-75c-30 0 -66.167 -0.166992 -108.5 -0.5s-92.833 -0.5 -151.5 -0.5c-7.33301 11.333 -11.333 21.166 -12 29.499
s3.33301 19.833 12 34.5c61.333 0 119.833 -0.333008 175.5 -1s103.834 -1 144.501 -1h70c1.33301 -6.66699 2 -11.667 2 -15v-14v0zM55.998 203c14 0 29.999 0.166992 47.999 0.5s42 0.5 72 0.5h271c8.66699 -12 12.167 -22.833 10.5 -32.5s-5.16699 -20.167 -10.5 -31.5
c-14 -0.666992 -29 -1 -45 -1h-52h-109c-36 0 -70.5 0.166992 -103.5 0.5s-60.5 0.833008 -82.5 1.5c0 6 -0.833008 11.333 -2.5 16s-2.5 10 -2.5 16c0 4 0.833008 9 2.5 15s2.83398 11 3.50098 15z" />
    <glyph glyph-name="greater" unicode="&#x3e;" horiz-adv-x="458" 
d="M335 225l-68.5029 52l-62 48.5l-67 52l-81.5 61.5c0 6 0.333008 10.167 1 12.5s1.33398 4.5 2.00098 6.5s1.33398 4.33301 2.00098 7s1 7 1 13c40.667 -22 74.334 -41.5 101.001 -58.5l75.5 -50l76.5 -51.5c27.333 -18 62 -39 104 -63v-62l-73 -45.5l-59.5 -38l-52.5 -33
l-51.5 -31.5l-57 -33l-68.5 -37c0 6 -0.5 10.333 -1.5 13s-2.16699 5.16699 -3.5 7.5s-2.5 4.83301 -3.5 7.5s-1.5 7 -1.5 13l78 55l64 46.5l65 48z" />
    <glyph glyph-name="question" unicode="?" horiz-adv-x="359" 
d="M170 39c0 -16.667 -6.50098 -30.666 -19.501 -41.999s-27.833 -15.333 -44.5 -12c-15.333 1.33301 -27.166 7.66602 -35.499 18.999s-12.5 24.333 -12.5 39c0 16.667 5 30.5 15 41.5s23.667 16.5 41 16.5c16.667 0 30.167 -6.5 40.5 -19.5s15.5 -27.167 15.5 -42.5z
M319.999 468.001c0 -25.333 -4.33789 -46.6641 -13.0049 -63.9971s-19.5 -32.166 -32.5 -44.499s-27.333 -22.833 -43 -31.5l-45 -24.5c-14.333 -7.66699 -26.833 -15.667 -37.5 -24s-17.667 -18.5 -21 -30.5c-2.66699 -2 -4 -7.33301 -4 -16v-26
c0 -8.66699 -1.16699 -16.834 -3.5 -24.501s-7.16602 -11.834 -14.499 -12.501c-8.66699 2 -13.334 7.33301 -14.001 16c-0.666992 2.66699 -1.16699 5.5 -1.5 8.5s-0.5 6.5 -0.5 10.5v26c0 9.33301 0.166992 18 0.5 26s0.5 14.667 0.5 20c0 12.667 -0.333008 23.5 -1 32.5
s-0.833984 16.833 -0.500977 23.5s1.33301 12.167 3 16.5s4.83398 8.16602 9.50098 11.499c18 7.33301 36.333 15.5 55 24.5s35.834 19.667 51.501 32s28.334 26.833 38.001 43.5s14.5 36.667 14.5 60c0 16 -2.83301 31.667 -8.5 47s-13.5 29.166 -23.5 41.499
s-22 22.333 -36 30s-29.333 11.5 -46 11.5c-11.333 0 -22.666 -2 -33.999 -6s-22.666 -6 -33.999 -6s-21.166 3.5 -29.499 10.5s-12.5 16.167 -12.5 27.5c0 10 2 18 6 24s9.33301 10.833 16 14.5s14 6 22 7s16 1.5 24 1.5c28 0 55 -8.5 81 -25.5s49 -38.167 69 -63.5
s35.833 -53 47.5 -83s17.5 -58 17.5 -84z" />
    <glyph glyph-name="at" unicode="@" horiz-adv-x="877" 
d="M500 91c4 4.66699 8.83398 11.334 14.501 20.001s9.5 16.667 11.5 24l2 35v28c0 5.33301 -0.166992 10.333 -0.5 15s-0.833008 8.66699 -1.5 12c-6 -1.33301 -13 -3.16602 -21 -5.49902s-16.167 -5 -24.5 -8l-24 -9c-7.66699 -3 -14.5 -5.5 -20.5 -7.5
c-18 -6.66699 -34.5 -16.334 -49.5 -29.001s-22.5 -29.334 -22.5 -50.001c0 -18.667 4.33301 -33.5 13 -44.5s23.667 -16.5 45 -16.5c14 0 28.167 3.5 42.5 10.5s26.166 15.5 35.499 25.5zM522.001 79c-7.33301 -10 -16.499 -19.6641 -27.499 -28.9971
s-23.167 -17.833 -36.5 -25.5s-27.166 -13.667 -41.499 -18s-28.166 -6.5 -41.499 -6.5c-34 0 -57.833 9.33301 -71.5 28s-20.5 43 -20.5 73c0 14.667 3.83301 28.167 11.5 40.5s17.334 23.5 29.001 33.5s24.334 18.667 38.001 26s26.5 13.333 38.5 18
c23.333 8.66699 44.5 16.167 63.5 22.5s40.5 12.5 64.5 18.5v73c0 28 -5.16699 50.667 -15.5 68s-30.5 26 -60.5 26c-20 0 -36 -3.16699 -48 -9.5s-21.5 -13.833 -28.5 -22.5s-11.833 -17.334 -14.5 -26.001l-6 -20c-3.33301 -10.667 -10.333 -19.834 -21 -27.501
s-22.334 -11.5 -35.001 -11.5c-7.33301 0 -11.666 3.16699 -12.999 9.5s-2 12.166 -2 17.499c0 16 6.66699 32.167 20 48.5s29.666 31.333 48.999 45s40.333 24.834 63 33.501s43.334 13 62.001 13c4.66699 0 10.5 -0.5 17.5 -1.5s14.167 -2.16699 21.5 -3.5
s14.333 -3 21 -5s12 -4 16 -6c22 -11.333 35.667 -26.166 41 -44.499s8 -38.833 8 -61.5c0 -28 -0.333008 -55.833 -1 -83.5s-1 -55.5 -1 -83.5v-29c0 -15.333 0.5 -30.833 1.5 -46.5s3.16699 -26.167 6.5 -31.5c2.66699 -4.66699 6.66699 -7.83398 12 -9.50098
s10.666 -2.5 15.999 -2.5c20 0 37.833 8 53.5 24s29 35.333 40 58s19.333 46 25 70s8.5 44 8.5 60c0 42 -8.16699 80.667 -24.5 116s-38.5 65.666 -66.5 90.999s-60.333 45 -97 59s-75.334 21 -116.001 21c-49.333 0 -93.833 -9.5 -133.5 -28.5s-73.5 -44.5 -101.5 -76.5
s-49.5 -69.333 -64.5 -112s-22.5 -87.334 -22.5 -134.001c0 -46 7.33301 -88 22 -126s35.334 -72 62.001 -102c30.667 -32.667 66.5 -58 107.5 -76s86.5 -27 136.5 -27c18.667 0 39.167 1.83301 61.5 5.5s44.333 9.33398 66 17.001s42.167 17 61.5 28s35.333 23.833 48 38.5
l22.5 -6c7.66699 -2 15.167 -3.66699 22.5 -5c-38.667 -42 -82.334 -73.833 -131.001 -95.5s-101.334 -32.5 -158.001 -32.5c-41.333 0 -81.333 5.83301 -120 17.5s-74.5 28.5 -107.5 50.5s-62.333 48.5 -88 79.5s-45.834 66.167 -60.501 105.5
c-8.66699 22.667 -14.667 46 -18 70s-5 48 -5 72c0 52 10.833 101.833 32.5 149.5s51.5 89.5 89.5 125.5s80.833 62.833 128.5 80.5s97.5 26.5 149.5 26.5c32.667 0 65.5 -4.16699 98.5 -12.5s64 -20.833 93 -37.5s55.333 -37 79 -61s42.5 -51.667 56.5 -83
c9.33301 -20.667 16.666 -41.834 21.999 -63.501s8 -43.834 8 -66.501c0 -29.333 -4.5 -59.166 -13.5 -89.499s-21.667 -58.666 -38 -84.999s-36.5 -49 -60.5 -68s-51 -31.5 -81 -37.5c-3.33301 -0.666992 -7 -1.16699 -11 -1.5s-7.66699 -0.5 -11 -0.5
c-22 0 -39.333 7 -52 21s-21.667 31 -27 51h-1z" />
    <glyph glyph-name="A" unicode="A" horiz-adv-x="778" 
d="M10 11c0 8.66699 2.66113 14.3311 7.99414 16.998s11.833 4.66699 19.5 6s15.667 3.33301 24 6s15.5 8.66699 21.5 18c2 2.66699 5 8.5 9 17.5l12.5 28.5c4.33301 10 8.33301 19.833 12 29.5s6.5 16.834 8.5 21.501l42.5 106.5l43.5 106.5l74 181l74 181
c1.33301 4 2.83301 7.16699 4.5 9.5s5.16699 3.5 10.5 3.5c4.66699 0 8.33398 -1.83301 11.001 -5.5s4.66699 -7.16699 6 -10.5l47 -116l47 -116c28 -72.667 57.333 -144.667 88 -216s63 -142.333 97 -213c6 -12.667 14.5 -21 25.5 -25s21.833 -7 32.5 -9
s20 -4.16699 28 -6.5s12 -7.83301 12 -16.5c0 -6 -3.5 -10.167 -10.5 -12.5s-13.833 -3.5 -20.5 -3.5h-11c-16 0 -32 1 -48 3s-32 3 -48 3c-23.333 0 -46.5 -1 -69.5 -3s-46.167 -3 -69.5 -3c-6 0 -11.333 2 -16 6s-7 9 -7 15c0 7.33301 4.66699 11.666 14 12.999
s19.833 2.33301 31.5 3s22.167 2.33398 31.5 5.00098s14 9.66699 14 21c0 2 -0.333008 4.16699 -1 6.5s-1.33398 4.5 -2.00098 6.5c-2 6.66699 -5.66699 16.834 -11 30.501l-19 48.5l-25 62l-29 70c-3.33301 6.66699 -6.16602 12.667 -8.49902 18
s-4.16602 8.66602 -5.49902 9.99902c-5.33301 5.33301 -13.333 8.5 -24 9.5s-21.667 1.5 -33 1.5h-19c-8 0 -18.5 0.166992 -31.5 0.5s-26.5 0.5 -40.5 0.5c-13.333 0 -26.5 -0.333008 -39.5 -1s-23.833 -2 -32.5 -4c-12 -28 -23.167 -55.833 -33.5 -83.5
s-19.166 -52.834 -26.499 -75.501s-13.166 -41.667 -17.499 -57s-6.5 -24.666 -6.5 -27.999c0 -14 5.33301 -23 16 -27s22.5 -6.66699 35.5 -8s24.833 -3.16602 35.5 -5.49902s16 -8.5 16 -18.5c0 -5.33301 -2 -9.83301 -6 -13.5s-8.66699 -5.5 -14 -5.5
c-21.333 0 -43 1.16699 -65 3.5s-43.667 3.5 -65 3.5c-15.333 0 -29.166 -0.833008 -41.499 -2.5s-26.166 -2.5 -41.499 -2.5c-4.66699 0 -8.16699 1.66699 -10.5 5s-3.5 7 -3.5 11zM356.994 599.997l-23.999 -55.5l-20 -48.5l-23 -56l-33 -79h27
c11.333 0 28.5 0.166992 51.5 0.5s55.5 0.5 97.5 0.5c0 0.666992 1.16699 1.16699 3.5 1.5s4.16602 0.833008 5.49902 1.5l-27 74.5l-26 74l-20.5 58.5c-5.66699 16 -9.5 25.333 -11.5 28z" />
    <glyph glyph-name="B" unicode="B" horiz-adv-x="689" 
d="M489 557c0 44.667 -13.832 78.668 -41.499 102.001s-62.834 35 -105.501 35h-14c-7.33301 0 -15.333 -0.166992 -24 -0.5s-17.167 -1.66602 -25.5 -3.99902s-15.5 -5.83301 -21.5 -10.5s-9.66699 -11.334 -11 -20.001c-1.33301 -7.33301 -2.16602 -14.833 -2.49902 -22.5
s-0.5 -15.167 -0.5 -22.5v-191c0 -3.33301 2.66699 -7 8 -11s13.666 -6 24.999 -6h34c24 0 46.833 2.66699 68.5 8s40.667 14 57 26s29.333 27.667 39 47s14.5 42.666 14.5 69.999zM536.001 201.001c0 31.333 -7.33301 59.332 -22 83.999
c-12 20.667 -26.5 36.834 -43.5 48.501s-35.5 20.5 -55.5 26.5s-40.833 9.66699 -62.5 11s-43.167 2 -64.5 2h-17c-7.33301 0 -14.166 -1.66699 -20.499 -5s-9.5 -10 -9.5 -20v-204c0 -15.333 1.16699 -31.333 3.5 -48s9.83301 -30.667 22.5 -42
c10.667 -9.33301 24.667 -15 42 -17s32.666 -3 45.999 -3c61.333 0 106.833 15.5 136.5 46.5s44.5 71.167 44.5 120.5zM641.001 211c0 -37.333 -6.83691 -69.501 -20.5039 -96.501s-32 -49.333 -55 -67s-49.833 -30.834 -80.5 -39.501s-63.334 -13.334 -98.001 -14.001
c-3.33301 -0.666992 -6.33301 -1 -9 -1h-9h-295c-7.33301 0 -15.666 0.833008 -24.999 2.5s-14 7.5 -14 17.5c0 6.66699 5.16699 10.834 15.5 12.501l34.5 5.5c12.667 2 24.667 5.33301 36 10s18 12.667 20 24c0.666992 1.33301 1.33398 12 2.00098 32
s1.16699 45.833 1.5 77.5s0.833008 67.334 1.5 107.001s1.16699 80.167 1.5 121.5s0.5 81.666 0.5 120.999v104c0 12.667 -1.33301 22.834 -4 30.501s-6.66699 13.5 -12 17.5s-12.166 6.83301 -20.499 8.5s-18.166 3.16699 -29.499 4.5c-2 0 -5.16699 0.333008 -9.5 1
s-8.5 1.66699 -12.5 3s-7.66699 3 -11 5s-5 4.33301 -5 7c0 6.66699 4 11.334 12 14.001s17.833 4.33398 29.5 5.00098s23.667 0.666992 36 0s22.5 -1 30.5 -1c30 0 59.833 1.33301 89.5 4s59.834 4 90.501 4c27.333 0 55.833 -3 85.5 -9s57 -15.833 82 -29.5
s45.5 -31.834 61.5 -54.501s24 -50.334 24 -83.001c0 -38 -11.667 -69.167 -35 -93.5s-52 -42.166 -86 -53.499c3.33301 -2.66699 10 -5.5 20 -8.5s17.667 -5.5 23 -7.5c40 -15.333 72.333 -38.333 97 -69s37 -68 37 -112z" />
    <glyph glyph-name="C" unicode="C" horiz-adv-x="727" 
d="M666 758c4.66699 0 7.67285 -3.33398 9.00586 -10.001s2 -14.667 2 -24s-0.5 -19 -1.5 -29s-1.5 -18.667 -1.5 -26c0 -17.333 -0.333008 -34.666 -1 -51.999s-1.66699 -34.666 -3 -51.999c-1.33301 -6 -3 -10 -5 -12s-4.33301 -3 -7 -3s-5.16699 0.333008 -7.5 1
s-4.5 1 -6.5 1c-4 0 -7.33301 3 -10 9s-5 13.167 -7 21.5l-6.5 26c-2.33301 9 -5.5 16.833 -9.5 23.5c-21.333 23.333 -47.5 41.166 -78.5 53.499s-62.833 18.5 -95.5 18.5c-46 0 -85.333 -9 -118 -27s-59.334 -42 -80.001 -72s-35.834 -64.833 -45.501 -104.5
s-14.5 -80.834 -14.5 -123.501c0 -46 4.83301 -90.667 14.5 -134s25.167 -81.833 46.5 -115.5s49 -60.834 83 -81.501s75.333 -31 124 -31c16 0 32.667 1.83301 50 5.5s34.166 9 50.499 16s31.666 15.5 45.999 25.5s26.833 21.667 37.5 35
c3.33301 4.66699 7.16602 11 11.499 19l13.5 24c4.66699 8 9 15 13 21s7.66699 9 11 9c7.33301 0 12.5 -1.33301 15.5 -4s4.5 -7.66699 4.5 -15c0 -5.33301 -0.833008 -14 -2.5 -26s-3.83398 -24.5 -6.50098 -37.5s-5.66699 -24.833 -9 -35.5s-6.66602 -17.667 -9.99902 -21
c-11.333 -10 -26.333 -18.5 -45 -25.5s-38.667 -12.833 -60 -17.5s-43.166 -8 -65.499 -10s-42.5 -3 -60.5 -3c-58.667 0 -111.5 10.833 -158.5 32.5s-87 50.834 -120 87.501s-58.333 79.334 -76 128.001s-26.5 99.667 -26.5 153c0 58 9.16699 109.5 27.5 154.5
s43.666 83 75.999 114s71.166 54.5 116.499 70.5s95 24 149 24c22.667 0 45.167 -1.33301 67.5 -4s44.833 -6.33398 67.5 -11.001c5.33301 -1.33301 11.5 -3.16602 18.5 -5.49902s14.167 -4.5 21.5 -6.5c4.66699 -4 8.66699 -3.83301 12 0.5s7 9.83301 11 16.5
s9 13.167 15 19.5s14 9.5 24 9.5z" />
    <glyph glyph-name="D" unicode="D" horiz-adv-x="833" 
d="M659 359c0 80.667 -20.502 149.501 -61.502 206.501s-100.833 97.167 -179.5 120.5c-14 4 -28.333 7.5 -43 10.5s-29.667 4.5 -45 4.5h-28c0.666992 0 -1.16602 -0.166992 -5.49902 -0.5s-9.5 -1.5 -15.5 -3.5s-12.167 -5.16699 -18.5 -9.5s-11.166 -10.5 -14.499 -18.5
c-2 -6.66699 -3.33301 -13.167 -4 -19.5s-1 -12.833 -1 -19.5c0 -17.333 0.166992 -35 0.5 -53s0.5 -35.667 0.5 -53c0 -58.667 -0.333008 -116.834 -1 -174.501s-1 -115.834 -1 -174.501c0 -29.333 1.83301 -53.666 5.5 -72.999s9.66699 -34.666 18 -45.999
s18.833 -19.333 31.5 -24s28 -7 46 -7c46.667 0 89.5 8.66699 128.5 26s72.333 41.166 100 71.499s49.167 65.833 64.5 106.5s23 84 23 130zM772.998 352.001c0 -57.333 -12 -108.338 -36 -153.005s-55.667 -82.334 -95 -113.001s-84.333 -54 -135 -70
s-102.334 -24 -155.001 -24c-16 0 -29.167 0.333008 -39.5 1s-20.166 1.33398 -29.499 2.00098s-19.166 1.33398 -29.499 2.00098s-23.5 1 -39.5 1c-28 0 -54.833 -0.833008 -80.5 -2.5s-52.5 -2.5 -80.5 -2.5c-6 0 -9 3 -9 9c0 6.66699 1.83301 11.667 5.5 15s8 6 13 8
s10.333 3.33301 16 4s10.834 1.66699 15.501 3c21.333 4.66699 34.5 11.834 39.5 21.501s8.16699 24.5 9.5 44.5c0.666992 6.66699 1.16699 14.334 1.5 23.001s0.666016 20.5 0.999023 35.5s0.666016 34.5 0.999023 58.5s0.5 55.333 0.5 94v233
c0 10.667 -0.166992 22.334 -0.5 35.001s-0.833008 24.834 -1.5 36.501s-1.5 22 -2.5 31s-2.16699 15.167 -3.5 18.5c-4.66699 10 -11.834 16.167 -21.501 18.5s-19.5 3.5 -29.5 3.5c-5.33301 0 -10.666 -0.166992 -15.999 -0.5s-10.666 -0.5 -15.999 -0.5
c-6 0 -11.667 1.66699 -17 5c-3.33301 2.66699 -4.5 6.66699 -3.5 12s2.83301 9.33301 5.5 12s10.667 5.16699 24 7.5s29.5 4.33301 48.5 6s39.333 3 61 4s42.667 1.83301 63 2.5s38.5 1.16699 54.5 1.5s27.333 0.5 34 0.5c66.667 0 127.5 -8.66699 182.5 -26
s102.167 -42.5 141.5 -75.5s69.666 -73.167 90.999 -120.5s32 -101 32 -161z" />
    <glyph glyph-name="E" unicode="E" horiz-adv-x="671" 
d="M561 568c-6.66699 0 -11.9951 4.16797 -15.9951 12.501s-8 18.166 -12 29.499s-8.5 22.5 -13.5 33.5s-12.167 19.167 -21.5 24.5c-6 3.33301 -14.667 6.16602 -26 8.49902s-24 4.16602 -38 5.49902s-28.5 2.16602 -43.5 2.49902s-29.167 0.5 -42.5 0.5h-44
c-15.333 0 -27 -3.16699 -35 -9.5s-13.833 -14.5 -17.5 -24.5s-5.83398 -21.167 -6.50098 -33.5s-1 -24.166 -1 -35.499c0 -22.667 0.166992 -45.334 0.5 -68.001s0.5 -45.334 0.5 -68.001v-23c0 -8.66699 0.666992 -15.667 2 -21
c2.66699 -3.33301 6.66699 -5.66602 12 -6.99902s11.166 -2.16602 17.499 -2.49902s12.5 -0.333008 18.5 0s11 0.5 15 0.5c18 0 36.333 0.166992 55 0.5s37 1.83301 55 4.5c20 3.33301 34.333 11.666 43 24.999s13.667 29.666 15 48.999c2 4 4.16699 7.83301 6.5 11.5
s6.16602 5.5 11.499 5.5c7.33301 0 11.333 -3.33301 12 -10s1 -13.667 1 -21c0 -14 -0.333008 -28 -1 -42s-1 -28 -1 -42s0.333008 -27.833 1 -41.5s1 -27.5 1 -41.5c0 -3.33301 0.166992 -7.5 0.5 -12.5s0.166016 -9.83301 -0.500977 -14.5s-2.16699 -8.5 -4.5 -11.5
s-5.83301 -4.5 -10.5 -4.5s-8.33398 3 -11.001 9s-4.83398 12.833 -6.50098 20.5s-3.16699 15.334 -4.5 23.001s-3 13.167 -5 16.5c-2.66699 12.667 -9.5 22.167 -20.5 28.5s-24 10.666 -39 12.999s-30.667 3.33301 -47 3s-30.833 -0.5 -43.5 -0.5
c-3.33301 0 -7.66602 -0.166992 -12.999 -0.5s-11 -0.666016 -17 -0.999023s-11.833 -0.833008 -17.5 -1.5s-9.83398 -1.33398 -12.501 -2.00098c-4 -0.666992 -6.66699 -3.66699 -8 -9s-2.33301 -11.333 -3 -18s-0.833984 -13.334 -0.500977 -20.001
s0.5 -11.334 0.5 -14.001v-158c0 -7.33301 0.166992 -15.5 0.5 -24.5s1.33301 -18 3 -27s4.33398 -17.333 8.00098 -25s9.16699 -13.5 16.5 -17.5c5.33301 -2.66699 14.666 -4.83398 27.999 -6.50098s27.5 -2.83398 42.5 -3.50098s29.5 -1.16699 43.5 -1.5s24 -0.5 30 -0.5
h31c8.66699 0 18.334 0.333008 29.001 1s20.834 1.5 30.501 2.5s18.667 2.5 27 4.5s15.166 4.66699 20.499 8c9.33301 6 18 15.333 26 28s15.5 25.334 22.5 38.001s13.667 23.834 20 33.501s12.166 14.5 17.499 14.5c8 0 12.5 -2.66699 13.5 -8
s0.166992 -10.666 -2.5 -15.999c0 -0.666992 -0.666992 -4 -2 -10s-2.33301 -9.66699 -3 -11c-0.666992 -2 -2.33398 -8.83301 -5.00098 -20.5l-8.5 -37l-8 -35.5l-3.5 -16c-5.33301 -8 -13.666 -12 -24.999 -12h-472c-9.33301 0 -18.833 -0.333008 -28.5 -1
s-19.5 -1 -29.5 -1c-7.33301 0 -14.666 0.333008 -21.999 1s-11 6 -11 16c0 5.33301 4.16699 9.33301 12.5 12s18.333 5.33398 30 8.00098s23.167 6.16699 34.5 10.5s20 10.833 26 19.5c5.33301 8 9 21 11 39s3 37.667 3 59c0 22 -0.333008 44.167 -1 66.5
s-1 41.833 -1 58.5c0 54 -0.333008 107.667 -1 161s-1 107 -1 161v18v9c0 2.66699 -0.333008 5.66699 -1 9c-1.33301 17.333 -7.5 28.833 -18.5 34.5s-23 9.33398 -36 11.001s-24.667 3.33398 -35 5.00098s-15.5 6.83398 -15.5 15.501c0 6 2.83301 10.167 8.5 12.5
s12.334 4 20.001 5s15.834 1.33301 24.501 1s16 -0.5 22 -0.5c22.667 0 45.334 -0.5 68.001 -1.5s45.667 -1.5 69 -1.5c46 0 91.167 0.5 135.5 1.5s89.5 1.5 135.5 1.5h11c7.33301 0 14.666 -0.666992 21.999 -2s11.666 -4.66602 12.999 -9.99902
c2.66699 -13.333 4 -25.666 4 -36.999c0 -6 -0.166992 -13.167 -0.5 -21.5s-0.5 -18.5 -0.5 -30.5c0 -13.333 -0.833008 -25.833 -2.5 -37.5s-5.16699 -17.834 -10.5 -18.501z" />
    <glyph glyph-name="F" unicode="F" horiz-adv-x="608" 
d="M40 703c0 4 0.673828 7.32812 2.00684 9.99512s4.5 4.83398 9.5 6.50098s12.333 2.66699 22 3s23.167 0.5 40.5 0.5c16 0 31.167 -0.166992 45.5 -0.5s24.166 -0.5 29.499 -0.5h155c30.667 0 61 0.166992 91 0.5s60.333 0.5 91 0.5h22c5.33301 0 10 -0.166992 14 -0.5
s6.66699 -0.5 8 -0.5c3.33301 -0.666992 5.66602 -6.16699 6.99902 -16.5s2.16602 -22 2.49902 -35s0.333008 -25.833 0 -38.5s-0.5 -21.667 -0.5 -27v-13c0 -4.66699 -0.333008 -9 -1 -13s-2 -7.33301 -4 -10s-5 -4 -9 -4c-10 0 -16.333 4.66699 -19 14
s-5.16699 20.166 -7.5 32.499s-6.33301 24.666 -12 36.999s-15.834 21.166 -30.501 26.499c-6.66699 2.66699 -16 4.66699 -28 6s-24.5 2.5 -37.5 3.5s-25.667 1.66699 -38 2s-22.166 0.5 -29.499 0.5h-22c-13.333 0 -27.833 -1 -43.5 -3s-26.834 -5 -33.501 -9
c-12 -8 -18.833 -17.833 -20.5 -29.5s-2.5 -24.167 -2.5 -37.5c0 -30 0.166992 -60 0.5 -90s0.5 -60 0.5 -90c0 -10.667 1.5 -18.5 4.5 -23.5s7 -8.33301 12 -10s10.667 -2.33398 17 -2.00098s13.166 0.5 20.499 0.5h36c11.333 0 23.333 0.166992 36 0.5
s24.834 1.33301 36.501 3s22 3.83398 31 6.50098s15.833 6.33398 20.5 11.001c6.66699 6.66699 11.5 14.667 14.5 24s5.5 18 7.5 26s4.66699 14.833 8 20.5s9 8.5 17 8.5c4.66699 0 7.5 -3 8.5 -9s1.5 -10.667 1.5 -14c0 -14.667 -0.333008 -29 -1 -43s-1 -28.333 -1 -43
s0.5 -29 1.5 -43s1.5 -28.333 1.5 -43c0 -4 0.166992 -8.5 0.5 -13.5s0 -10 -1 -15s-2.66699 -9.16699 -5 -12.5s-5.83301 -5 -10.5 -5c-6.66699 0 -11.334 4.66699 -14.001 14l-9 31.5c-3.33301 11.667 -8.33301 23.167 -15 34.5s-17.334 19 -32.001 23
c-9.33301 3.33301 -23.333 5.5 -42 6.5s-35.667 1.5 -51 1.5h-27c-4.66699 0 -10.667 0.166992 -18 0.5s-14.5 0 -21.5 -1s-13 -3.16699 -18 -6.5s-7.5 -8.33301 -7.5 -15c0 -30 -0.333008 -59.667 -1 -89s-1 -59 -1 -89v-21v-23c0 -8 0.333008 -15.833 1 -23.5
s1.16699 -14.5 1.5 -20.5s1.16602 -10 2.49902 -12c6 -12.667 15.5 -21 28.5 -25s26.167 -6.66699 39.5 -8s25 -3.16602 35 -5.49902s15 -8.16602 15 -17.499c0 -6 -3.16699 -10.167 -9.5 -12.5s-12.833 -3.5 -19.5 -3.5h-10c-24.667 0 -49.334 1.16699 -74.001 3.5
s-49.334 3.5 -74.001 3.5c-19.333 0 -38.166 -1.16699 -56.499 -3.5s-36.833 -3.5 -55.5 -3.5c-5.33301 0 -11.666 0.5 -18.999 1.5s-11 5.16699 -11 12.5c0 5.33301 3 9.5 9 12.5s13 5.16699 21 6.5s16.167 2.5 24.5 3.5s14.5 2.16699 18.5 3.5
c14.667 2.66699 24.667 10.667 30 24c2 4 3.66699 11.333 5 22s2.33301 22.834 3 36.501s1.16699 27.667 1.5 42s0.5 27.5 0.5 39.5v37c0 66.667 -0.5 132.334 -1.5 197.001s-1.5 130.334 -1.5 197.001c0 16 -2.66699 28.167 -8 36.5s-11.833 14.333 -19.5 18
s-16 5.83398 -25 6.50098s-17.333 1.16699 -25 1.5s-14.167 1.33301 -19.5 3s-8 5.5 -8 11.5z" />
    <glyph glyph-name="G" unicode="G" horiz-adv-x="806" 
d="M668 739c4.66699 0 7.66992 -3.33496 9.00293 -10.002s2 -14.667 2 -24s-0.5 -19 -1.5 -29s-1.5 -18.667 -1.5 -26c0 -17.333 -0.333008 -34.666 -1 -51.999s-1.66699 -34.666 -3 -51.999c-1.33301 -6 -3 -10 -5 -12s-4.33301 -3 -7 -3s-5.16699 0.333008 -7.5 1
s-4.5 1 -6.5 1c-4 0 -7.5 2.66699 -10.5 8s-5.66699 12 -8 20s-4.5 16.5 -6.5 25.5s-4.33301 17.167 -7 24.5c-6 14 -15.333 26.667 -28 38s-27.334 21 -44.001 29s-34.334 14.167 -53.001 18.5s-37 6.5 -55 6.5c-49.333 0 -90.166 -9.5 -122.499 -28.5
s-58.166 -44.167 -77.499 -75.5s-33 -67.166 -41 -107.499s-12 -81.5 -12 -123.5c0 -44 4.33301 -86.167 13 -126.5s22.667 -76 42 -107s44.166 -55.667 74.499 -74s67.166 -27.5 110.499 -27.5c44 0 78.167 3.83301 102.5 11.5s42.166 18.667 53.499 33s18 32 20 53
s3 45.167 3 72.5c0 36.667 -0.666992 65.334 -2 86.001s-4.66602 36.167 -9.99902 46.5s-13.333 16.666 -24 18.999s-25.334 3.5 -44.001 3.5c-8.66699 0 -16.5 0.666992 -23.5 2s-10.5 7.66602 -10.5 18.999c0 4.66699 1.83301 8.16699 5.5 10.5s8 4 13 5s10 1.66699 15 2
s9.16699 0.5 12.5 0.5c20 0 36.833 -0.666992 50.5 -2s30.5 -2 50.5 -2c22 0 41.167 0.833008 57.5 2.5s35.5 2.5 57.5 2.5c7.33301 0 15.166 -0.666992 23.499 -2s12.5 -6.66602 12.5 -15.999c0 -6.66699 -2.83301 -10.834 -8.5 -12.501s-12.834 -2.66699 -21.501 -3
s-17.667 -1.16602 -27 -2.49902s-17.666 -5 -24.999 -11c-2.66699 -1.33301 -5 -4.66602 -7 -9.99902s-3.5 -11.833 -4.5 -19.5s-1.83301 -15.834 -2.5 -24.501s-1 -16.667 -1 -24v-20c0 -8.66699 0.166992 -20.334 0.5 -35.001l1 -45.5l1 -45.5
c0.333008 -14.667 0.5 -26.334 0.5 -35.001c0 -4.66699 -0.166992 -10.334 -0.5 -17.001s-2.16602 -11.667 -5.49902 -15c-12 -15.333 -29.833 -27.166 -53.5 -35.499s-49 -14.666 -76 -18.999s-53.333 -7 -79 -8s-46.167 -1.5 -61.5 -1.5
c-52 0 -99.833 7.16699 -143.5 21.5s-81 36.166 -112 65.499s-55.167 66.333 -72.5 111s-26 97 -26 157c0 60.667 9.16699 115 27.5 163s44.166 88.833 77.499 122.5s73.333 59.334 120 77.001s98.667 26.5 156 26.5c28.667 0 58.834 -4 90.501 -12s59.167 -19.667 82.5 -35
c4.66699 -3.33301 9 -2.83301 13 1.5s8 9.83301 12 16.5s8.33301 13 13 19s10 9 16 9z" />
    <glyph glyph-name="H" unicode="H" horiz-adv-x="865" 
d="M830 698c-2 -4 -7.17578 -6.50293 -15.5088 -7.50293s-17.666 -1.83301 -27.999 -2.5s-20.333 -2 -30 -4s-16.834 -6 -21.501 -12c-5.33301 -6 -8.83301 -14 -10.5 -24s-2.5 -20.667 -2.5 -32v-17c0 -84 -0.333008 -167.167 -1 -249.5s-1 -165.5 -1 -249.5
c0 -16.667 2.66699 -29.5 8 -38.5s12 -15.667 20 -20s16.667 -7.16602 26 -8.49902s18 -2.66602 26 -3.99902s14.667 -3.33301 20 -6s8 -7.66699 8 -15c0 -10 -3.5 -15.333 -10.5 -16s-14.5 -1 -22.5 -1c-22 0 -44.167 1 -66.5 3s-44.5 3 -66.5 3
c-21.333 0 -42.833 -1 -64.5 -3s-43.167 -3 -64.5 -3c-14 0 -21 5.33301 -21 16c0 10 3.5 16 10.5 18s15.5 3 25.5 3s20.5 0.833008 31.5 2.5s20.167 7.16699 27.5 16.5s12 21 14 35s3 26.667 3 38v182c0 10 -2 17.167 -6 21.5s-9 7.16602 -15 8.49902
s-12.5 1.83301 -19.5 1.5s-13.5 -0.5 -19.5 -0.5h-244c-8 0 -16.667 0.166992 -26 0.5s-17.833 -0.333984 -25.5 -2.00098s-14 -4.66699 -19 -9s-7.5 -11.5 -7.5 -21.5v-196c0 -13.333 0.166992 -21.166 0.5 -23.499s0.5 -4.5 0.5 -6.5c2 -18 8.66699 -29.833 20 -35.5
s23.333 -9.16699 36 -10.5l34.5 -3.5c10.333 -1 15.5 -6.16699 15.5 -15.5c0 -10 -3.5 -15.5 -10.5 -16.5s-14.833 -1.5 -23.5 -1.5c-17.333 0 -35 0.833008 -53 2.5s-35.667 2.5 -53 2.5h-39c-18 0 -35.667 -1 -53 -3s-34.666 -3 -51.999 -3
c-5.33301 0 -11.666 0.333008 -18.999 1s-11 4.66699 -11 12c0 10 5.16699 16.167 15.5 18.5s21.833 4.5 34.5 6.5s24.834 6.16699 36.501 12.5s18.834 18.5 21.501 36.5c2 14.667 3.16699 29.667 3.5 45s0.5 30.333 0.5 45v439c0 20 -2.5 35.333 -7.5 46
s-11.5 18.5 -19.5 23.5s-16.333 8.16699 -25 9.5s-17 2.5 -25 3.5s-14.5 2.66699 -19.5 5s-7.5 7.5 -7.5 15.5c0 6 3.16699 9.83301 9.5 11.5s12.833 2.5 19.5 2.5h11c17.333 0 34.333 -0.5 51 -1.5s33.667 -1.5 51 -1.5c24 0 48.167 0.333008 72.5 1s48.5 1 72.5 1
c4 0 8 -1 12 -3s6 -5.33301 6 -10c0 -13.333 -5.33301 -20.833 -16 -22.5s-22.667 -2.5 -36 -2.5c-6.66699 0 -13 -0.666992 -19 -2s-11.5 -3.83301 -16.5 -7.5s-9 -9 -12 -16s-4.5 -16.167 -4.5 -27.5c0 -9.33301 -0.166992 -18.666 -0.5 -27.999
s-0.5 -18.666 -0.5 -27.999v-170c0 -18.667 8.66699 -28 26 -28c28 0 52.833 -0.166992 74.5 -0.5s42.834 -0.5 63.501 -0.5s41.834 -0.166992 63.501 -0.5s46.5 -0.5 74.5 -0.5c6.66699 0 14.167 -0.166992 22.5 -0.5s16.5 -0.333008 24.5 0s14.833 1.33301 20.5 3
s9.16699 4.5 10.5 8.5c0.666992 2 1.16699 8.16699 1.5 18.5s0.5 22.833 0.5 37.5c0 15.333 0.166992 31.5 0.5 48.5s0.5 33.167 0.5 48.5v65c0 4.66699 -0.166992 10.167 -0.5 16.5s-1 12.666 -2 18.999s-2.5 12.333 -4.5 18s-5 10.167 -9 13.5
c-4 2.66699 -9 4.83398 -15 6.50098s-12.333 2.83398 -19 3.50098s-12.667 1.5 -18 2.5s-9 2.5 -11 4.5c-6.66699 0 -12.167 0.666992 -16.5 2s-6.5 6 -6.5 14c0 5.33301 1.33301 9.16602 4 11.499s6.33398 4 11.001 5s9.5 1.33301 14.5 1s10.167 -0.5 15.5 -0.5
c17.333 0 34.333 -0.833008 51 -2.5s33.334 -2.5 50.001 -2.5c20.667 0 41.334 0.666992 62.001 2s41.334 2 62.001 2c15.333 0 25.166 -1.33301 29.499 -4s6.5 -9 6.5 -19z" />
    <glyph glyph-name="I" unicode="I" horiz-adv-x="380" 
d="M345 706c0 -9.33301 -3.49707 -15.0039 -10.4971 -17.0039s-15.167 -3 -24.5 -3c-18 0 -32 -1.33301 -42 -4s-17.333 -7 -22 -13s-7.33398 -13.333 -8.00098 -22s-1 -19 -1 -31c0 -42 -0.5 -83.667 -1.5 -125s-1.5 -83 -1.5 -125v-255
c0 -10.667 0.833008 -22.667 2.5 -36s6.5 -23.666 14.5 -30.999c6 -5.33301 14.167 -9 24.5 -11s20.333 -3.83301 30 -5.5s18.167 -3.5 25.5 -5.5s11 -6 11 -12c0 -10 -4.83301 -15.5 -14.5 -16.5s-19.5 -1.5 -29.5 -1.5c-18.667 0 -37.334 1 -56.001 3s-37.334 3 -56.001 3
c-20 0 -38 -1.16699 -54 -3.5s-34 -3.5 -54 -3.5h-14c-6.66699 0 -13.167 1.16699 -19.5 3.5s-9.5 7.5 -9.5 15.5c0 6 3.33301 10.167 10 12.5s14.5 4.33301 23.5 6s18.5 3.66699 28.5 6s18.333 6.5 25 12.5c6.66699 5.33301 10.834 14.833 12.501 28.5
s2.5 26.834 2.5 39.501v21l1 350c0 17.333 0.166992 34.333 0.5 51s0.5 33.334 0.5 50.001v19c0 11.333 -1 23.666 -3 36.999s-5 22.666 -9 27.999c-7.33301 7.33301 -16 11.833 -26 13.5s-19.667 2.83398 -29 3.50098s-17.166 2.33398 -23.499 5.00098
s-9.5 8.66699 -9.5 18c0 6.66699 3.16699 10.5 9.5 11.5s12.166 1.5 17.499 1.5h11c19.333 0 38.833 -1 58.5 -3s39.167 -3 58.5 -3c9.33301 0 19 0.5 29 1.5s19.667 1.5 29 1.5h87c1.33301 -1.33301 2.66602 -3.66602 3.99902 -6.99902s2 -6 2 -8z" />
    <glyph glyph-name="J" unicode="J" horiz-adv-x="357" 
d="M335 704c0 -3.33301 -1.83496 -6.5 -5.50195 -9.5s-12.167 -5.16699 -25.5 -6.5c-28 0.666992 -47 -5 -57 -17s-15 -32 -15 -60c0 -7.33301 0.166992 -14.5 0.5 -21.5s0.5 -14.167 0.5 -21.5c0 -76.667 -0.166992 -152.5 -0.5 -227.5s-0.5 -150.833 -0.5 -227.5
c0 -37.333 -3.16699 -75.5 -9.5 -114.5s-17.333 -75.333 -33 -109s-37.167 -62.834 -64.5 -87.501s-62 -41.667 -104 -51c-4 -0.666992 -7.16699 0.666016 -9.5 3.99902s-3.5 7.33301 -3.5 12s1 9.16699 3 13.5s5.33301 6.83301 10 7.5c18.667 2 34.334 10 47.001 24
s23.167 31.333 31.5 52s14.666 43.334 18.999 68.001s7.5 49 9.5 73s3.33301 46 4 66s1.33398 35.667 2.00098 47c0.666992 40 1.16699 80 1.5 120s0.5 80 0.5 120v244c0 15.333 -1 31 -3 47c-1.33301 15.333 -7.83301 25 -19.5 29s-24.334 6.33301 -38.001 7
s-26.167 1.83398 -37.5 3.50098s-17 7.83398 -17 18.501c0 5.33301 2.16699 9.33301 6.5 12s8.83301 4 13.5 4c30.667 0 61.167 -1 91.5 -3s60.833 -3 91.5 -3c14.667 0 29.334 0.833008 44.001 2.5s29.334 2.5 44.001 2.5c5.33301 0 10.5 -1.33301 15.5 -4
s7.5 -7.33398 7.5 -14.001z" />
    <glyph glyph-name="K" unicode="K" horiz-adv-x="800" 
d="M220 718c15.333 0 30.333 0.835938 45 2.50293s29.667 2.5 45 2.5h9c5.33301 0 11 -1 17 -3s9 -5 9 -9c-1.33301 -2.66699 -2.33301 -5.83398 -3 -9.50098s-1.66699 -6.5 -3 -8.5c-3.33301 -5.33301 -10.166 -7.5 -20.499 -6.5s-21 0.833008 -32 -0.5s-20.667 -6 -29 -14
s-12.5 -24 -12.5 -48v-53c0 -16 0.166992 -31.5 0.5 -46.5s0.5 -30.5 0.5 -46.5v-53c0 -1.33301 -0.5 -4.16602 -1.5 -8.49902s-0.833008 -6.83301 0.5 -7.5c7.33301 0 14.666 2 21.999 6s14.333 8.66699 21 14s12.667 10.666 18 15.999l13 13
c4.66699 4.66699 13.167 12.667 25.5 24l41.5 38.5l48.5 45.5l46.5 45.5c14 14.333 25.5 26.833 34.5 37.5s13.5 18 13.5 22c0 6.66699 -4.66699 10.667 -14 12s-19.5 2.16602 -30.5 2.49902s-21.167 1.16602 -30.5 2.49902s-14 5.33301 -14 12v8
c3.33301 8.66699 10 13.167 20 13.5s19.667 0.5 29 0.5c18 0 36.167 -0.5 54.5 -1.5s36.833 -1.5 55.5 -1.5c16.667 0 33.167 0.5 49.5 1.5s32.833 1.5 49.5 1.5c5.33301 0 10.333 -1.33301 15 -4s7 -7 7 -13c0 -7.33301 -3.66699 -12.333 -11 -15s-16.333 -4.66699 -27 -6
s-21.834 -2.83301 -33.501 -4.5s-21.834 -4.83398 -30.501 -9.50098c-5.33301 -2.66699 -15.5 -10 -30.5 -22l-51.5 -42.5l-61 -53l-59 -53.5l-45.5 -43c-12.333 -12 -19.166 -19.667 -20.499 -23c1.33301 -3.33301 7.83301 -11.666 19.5 -24.999l42 -47.5l53.5 -59
l55 -59.5l46 -49.5c13.333 -14.333 22.333 -23.833 27 -28.5l35 -40.5c12 -14.333 24.5 -27.833 37.5 -40.5s26.667 -23.834 41 -33.501s29.833 -16.5 46.5 -20.5c8.66699 -1.33301 17 -3.16602 25 -5.49902s11.667 -8.83301 11 -19.5
c-0.666992 -5.33301 -4.16699 -8.5 -10.5 -9.5s-11.5 -1.5 -15.5 -1.5c-21.333 0 -42.333 0.833008 -63 2.5s-41.667 2.5 -63 2.5c-25.333 0 -51 -0.833008 -77 -2.5s-51.667 -2.5 -77 -2.5c-6.66699 0 -12 0.833008 -16 2.5s-6 6.5 -6 14.5c0 6.66699 3.5 11.667 10.5 15
s15.167 5.66602 24.5 6.99902s18.333 1.83301 27 1.5s14.667 -0.5 18 -0.5c5.33301 0 10.5 1 15.5 3s4.83301 7 -0.5 15c-0.666992 1.33301 -2.66699 4.16602 -6 8.49902l-11 14.5l-11.5 15c-3.66699 4.66699 -6.16699 8 -7.5 10l-30.5 36l-43.5 51l-50 57l-50.5 54.5
c-16.333 17 -31.166 31.667 -44.499 44s-24 20.5 -32 24.5c-7.33301 0.666992 -12.833 1.66699 -16.5 3s-6.16699 -0.666992 -7.5 -6c-0.666992 -3.33301 -1.16699 -9.16602 -1.5 -17.499s-0.5 -17.166 -0.5 -26.499v-45c0 -24.667 -0.166992 -49 -0.5 -73
s-0.5 -48.333 -0.5 -73c0 -10 0.5 -21 1.5 -33s3.33301 -23 7 -33s9.5 -18 17.5 -24s19 -8.33301 33 -7c2.66699 -2 6.83398 -2.83301 12.501 -2.5s11.5 0.333008 17.5 0s11.167 -1.33301 15.5 -3s6.5 -5.5 6.5 -11.5c0 -7.33301 -3 -12.5 -9 -15.5s-12.333 -4.5 -19 -4.5
h-13c-14 0 -27.833 0.833008 -41.5 2.5s-27.5 2.5 -41.5 2.5c-28 0 -55 -1 -81 -3s-53 -3 -81 -3c-6 0 -12.833 0.666992 -20.5 2s-11.5 5.66602 -11.5 12.999c0 8 3.33301 13.5 10 16.5s14.5 5 23.5 6s18.167 1.66699 27.5 2s16.666 1.83301 21.999 4.5
c6 2.66699 10.833 7.16699 14.5 13.5s6.5 13.166 8.5 20.499s3.33301 14.833 4 22.5s1 14.5 1 20.5c0 66.667 0.5 132.834 1.5 198.501s1.5 131.834 1.5 198.501v122c0 10.667 -1.5 21.5 -4.5 32.5s-10.833 17.5 -23.5 19.5c-6.66699 1.33301 -14.167 1.83301 -22.5 1.5
s-16.333 0 -24 1s-14 3.16699 -19 6.5s-7.5 9 -7.5 17c0 5.33301 3.16699 8.83301 9.5 10.5s12.5 2.5 18.5 2.5h11c17.333 0 34.333 -1 51 -3s33.667 -3 51 -3h31z" />
    <glyph glyph-name="L" unicode="L" horiz-adv-x="627" 
d="M207 717c24.667 0 48.1689 0.665039 70.502 1.99805s47.5 2 75.5 2c6 -5.33301 9 -10.666 9 -15.999c0 -8 -3.83301 -13.167 -11.5 -15.5s-16.834 -4 -27.501 -5l-32 -3c-10.667 -1 -19.334 -4.16699 -26.001 -9.5c-4.66699 -4 -8.16699 -9.33301 -10.5 -16
s-4 -13.667 -5 -21s-1.66699 -14.666 -2 -21.999s-0.5 -13.666 -0.5 -18.999c0 -60.667 -0.333008 -120.167 -1 -178.5s-1 -117.833 -1 -178.5v-38c0 -12 0.166992 -25.167 0.5 -39.5s1.16602 -28 2.49902 -41s3.33301 -24.667 6 -35s6.33398 -17.5 11.001 -21.5
c16.667 -12.667 35.834 -20.334 57.501 -23.001s42.834 -2.5 63.501 0.5s39.334 7.5 56.001 13.5s28 11 34 15c10.667 6 21.834 16.5 33.501 31.5s22.5 30.667 32.5 47l26 44c7.33301 13 12 20.5 14 22.5c6 4.66699 12.667 6.16699 20 4.5s12.333 -5.5 15 -11.5
c-16.667 -26.667 -29.667 -53.167 -39 -79.5s-16.666 -50 -21.999 -71s-9.83301 -38 -13.5 -51s-7.83398 -19.5 -12.501 -19.5c-44 0 -89.333 3 -136 9s-92 9 -136 9c-22 0 -41.167 -0.666992 -57.5 -2l-47 -4l-47 -4c-16.333 -1.33301 -35.5 -2 -57.5 -2
c-4 0 -7.33301 1.66699 -10 5s-4 7 -4 11c0 9.33301 3.33301 15.166 10 17.499s15 3.83301 25 4.5s20.667 1.83398 32 3.50098s21.666 6.83398 30.999 15.501c8 8 13.333 22.667 16 44s4 44.666 4 69.999c0 26 -0.666992 52.167 -2 78.5s-2 48.833 -2 67.5v292
c0 16.667 -1.33301 31.667 -4 45c-2.66699 14.667 -9.83398 24.5 -21.501 29.5s-24 8.33301 -37 10s-24.667 3.33398 -35 5.00098s-15.5 7.16699 -15.5 16.5s3.83301 14.666 11.5 15.999s15.167 2 22.5 2c23.333 0 46.166 -1.16699 68.499 -3.5s45.166 -3.5 68.499 -3.5z
" />
    <glyph glyph-name="M" unicode="M" horiz-adv-x="1001" 
d="M959 699c0 -5.33301 -2.66016 -9.50293 -7.99316 -12.5029s-11.666 -5.16699 -18.999 -6.5s-14.666 -2.16602 -21.999 -2.49902s-13 -0.5 -17 -0.5c-13.333 0 -23.666 -2.5 -30.999 -7.5s-12.666 -11.5 -15.999 -19.5s-5.33301 -17.333 -6 -28s-1 -21.334 -1 -32.001v-25
c1.33301 -76 3.66602 -150 6.99902 -222s7 -147.333 11 -226c0.666992 -12 2 -25.333 4 -40s8.66699 -25.667 20 -33c3.33301 -2 9 -4.16699 17 -6.5s16.667 -4.66602 26 -6.99902l27 -7c8.66699 -2.33301 15.667 -4.83301 21 -7.5c4 -2 6 -5.66699 6 -11
c0 -6.66699 -3.16699 -10.5 -9.5 -11.5s-12.833 -1.5 -19.5 -1.5h-10c-19.333 0 -38.833 1.16699 -58.5 3.5s-39.167 3.5 -58.5 3.5c-21.333 0 -42.833 -1.16699 -64.5 -3.5s-43.167 -3.5 -64.5 -3.5c-4.66699 0 -11.167 0.666992 -19.5 2s-12.5 5.33301 -12.5 12
c0 6 2.66699 10.5 8 13.5s10 5.83301 14 8.5c18 0 32.5 1.66699 43.5 5s19.167 8.66602 24.5 15.999s8.83301 16.833 10.5 28.5s2.5 26.167 2.5 43.5l-13 333c-0.666992 17.333 -1.16699 33 -1.5 47s-0.5 25.667 -0.5 35c0 20 -2.66699 31.667 -8 35
c-2.66699 -2 -5.5 -5.5 -8.5 -10.5s-5.83301 -10.5 -8.5 -16.5l-7.5 -17.5c-2.33301 -5.66699 -4.16602 -9.83398 -5.49902 -12.501l-90.5 -201c-29.667 -64.667 -58.834 -132 -87.501 -202c-3.33301 -8 -7.33301 -18.5 -12 -31.5s-9.83398 -25.5 -15.501 -37.5
s-11.167 -22.5 -16.5 -31.5s-10 -13.5 -14 -13.5c-7.33301 0 -13 4.66699 -17 14s-6.66699 16.666 -8 21.999c-22 62.667 -45.167 124.334 -69.5 185.001s-50.5 121 -78.5 181c-2.66699 6 -7.83398 18.333 -15.501 37l-25 59c-9 20.667 -17.5 39 -25.5 55s-13.667 24 -17 24
c-1.33301 0 -2.5 -9.83301 -3.5 -29.5s-2 -45.167 -3 -76.5s-1.83301 -66.166 -2.5 -104.499s-1.16699 -75.833 -1.5 -112.5s-0.666016 -70.667 -0.999023 -102s-0.5 -55.333 -0.5 -72c0 -11.333 2.83301 -20 8.5 -26s12.667 -10.667 21 -14s17.5 -5.66602 27.5 -6.99902
s19.167 -2.66602 27.5 -3.99902s15.333 -3.5 21 -6.5s8.5 -7.83301 8.5 -14.5c0 -7.33301 -4.16699 -11.333 -12.5 -12s-14.833 -1 -19.5 -1c-17.333 0 -34.5 0.666992 -51.5 2s-34.167 2 -51.5 2c-21.333 0 -42.5 -0.666992 -63.5 -2s-42.167 -2 -63.5 -2
c-4 0 -9.83301 0.833008 -17.5 2.5s-11.5 5.16699 -11.5 10.5c0 10.667 4.66699 17.167 14 19.5s20 4.33301 32 6s24 4.33398 36 8.00098s20.667 12.167 26 25.5c4 10 7 21 9 33s3.66699 23.667 5 35c7.33301 78.667 14 158 20 238s9 159.333 9 238
c0 23.333 -5.33301 40.666 -16 51.999s-28.334 19.333 -53.001 24l-15 3c-6.66699 1.33301 -13.5 2.83301 -20.5 4.5s-13.167 3.83398 -18.5 6.50098s-8 6 -8 10c0 7.33301 3.66699 11.5 11 12.5s13.666 1.5 18.999 1.5c11.333 0 22.166 -0.666992 32.499 -2
s21.166 -2 32.499 -2c17.333 0 34.166 0.666992 50.499 2s33.166 2 50.499 2c5.33301 0 9.66602 -0.166992 12.999 -0.5s6.66602 -2.83301 9.99902 -7.5c12.667 -17.333 22.667 -36.833 30 -58.5s15.333 -42.5 24 -62.5l60.5 -139l60.5 -141l16 -40l18 -44.5
c6 -14.333 11.5 -26.5 16.5 -36.5s9.16699 -15 12.5 -15s6.33301 2.66699 9 8s5 10.333 7 15c38 78.667 73.667 158.167 107 238.5s69 159.833 107 238.5c8 17.333 14.333 28.5 19 33.5s10.667 7.5 18 7.5h21c12 0 20.833 -0.333008 26.5 -1s13.5 -1 23.5 -1
c14.667 0 29 0.333008 43 1s28.333 1 43 1c4.66699 0 10.667 -1.16699 18 -3.5s10.666 -7.5 9.99902 -15.5z" />
    <glyph glyph-name="N" unicode="N" horiz-adv-x="901" 
d="M186 -4c-22 0 -43.998 -0.666016 -65.998 -1.99902s-44.333 -2 -67 -2c-5.33301 0 -11.5 1 -18.5 3s-10.5 6.66699 -10.5 14c0 6 2.5 10.333 7.5 13s11.167 4.5 18.5 5.5s15 1.66699 23 2s14.667 0.833008 20 1.5c11.333 2 20.166 6 26.499 12s11 13.333 14 22
s4.83301 18 5.5 28s1 19.667 1 29l4 236.5c1.33301 77.667 2 156.5 2 236.5c0 10.667 -0.5 20.834 -1.5 30.501s-3.83301 18.167 -8.5 25.5s-11.334 13.666 -20.001 18.999s-20.667 9.33301 -36 12c-4 0.666992 -9.66699 1.16699 -17 1.5s-14.666 1.16602 -21.999 2.49902
s-13.666 3.33301 -18.999 6s-8 6.66699 -8 12c0 6 3.5 10.667 10.5 14s12.833 5 17.5 5c14.667 0 29 -0.333008 43 -1s28.333 -1 43 -1c11.333 0 22.166 0.333008 32.499 1s21.166 1 32.499 1c12 0 21.167 -1.5 27.5 -4.5s12.333 -7.5 18 -13.5s11.834 -13.333 18.501 -22
s16.334 -19 29.001 -31l81.5 -96.5l92 -107l113 -132l145.5 -172.5c9.33301 0.666992 13.666 8 12.999 22v121c0.666992 52 0.833984 104 0.500977 156s-0.5 104 -0.5 156c0 9.33301 -0.166992 18.333 -0.5 27s-1.5 17.334 -3.5 26.001
c-3.33301 14.667 -11.166 23.834 -23.499 27.501s-25.333 5.66699 -39 6s-26 1.16602 -37 2.49902s-16.5 7.33301 -16.5 18c0 6.66699 2.33301 11.167 7 13.5s9.66699 3.5 15 3.5c21.333 0 42.666 -0.666992 63.999 -2s42.666 -2 63.999 -2c17.333 0 34.833 0.5 52.5 1.5
s35.167 1.5 52.5 1.5c14.667 0 22 -5.66699 22 -17c0 -8 -4.16699 -13.167 -12.5 -15.5s-17.833 -4 -28.5 -5s-21.334 -2.33301 -32.001 -4s-18.334 -5.5 -23.001 -11.5c-4 -5.33301 -7.33301 -14.666 -10 -27.999s-4.5 -27.5 -5.5 -42.5s-1.66699 -29.5 -2 -43.5
s-0.5 -24.333 -0.5 -31v-207c0 -38.667 -0.166992 -82.334 -0.5 -131.001s-0.5 -106 -0.5 -172c0 -11.333 -0.5 -21.833 -1.5 -31.5s-5.83301 -15.167 -14.5 -16.5c-3.33301 -0.666992 -6.66602 0.166016 -9.99902 2.49902s-6.5 5.16602 -9.5 8.49902l-9 10.5
c-3 3.66699 -5.5 6.83398 -7.5 9.50098l-57.5 68l-56.5 69c-0.666992 0.666992 -1.83398 2 -3.50098 4l-12.5 14.5l-31 36l-59 68.5l-95.5 111l-141.5 165c-11.333 13.333 -22.833 27.833 -34.5 43.5s-24.834 29.5 -39.501 41.5c-2 -11.333 -3 -22.666 -3 -33.999
c0 -36 0.333008 -69.833 1 -101.5s1.16699 -64.5 1.5 -98.5s0.833008 -70.833 1.5 -110.5s1 -85.5 1 -137.5c0 -30.667 2 -53 6 -67s10.167 -23.5 18.5 -28.5s19 -7.83301 32 -8.5s28.833 -3 47.5 -7c5.33301 -1.33301 10.5 -3.83301 15.5 -7.5s7.5 -8.83398 7.5 -15.501
c0 -4 -2 -6.66699 -6 -8s-7.66699 -2 -11 -2c-19.333 0 -38.666 0.666992 -57.999 2s-38.666 2 -57.999 2z" />
    <glyph glyph-name="O" unicode="O" horiz-adv-x="885" 
d="M701 410c-8 42.667 -21 83.3291 -39 121.996s-40.833 71.834 -68.5 99.501s-60.167 48 -97.5 61s-79.333 15.167 -126 6.5c-50 -9.33301 -89.333 -27.333 -118 -54s-49.5 -58 -62.5 -94s-19.667 -74.5 -20 -115.5s3.16699 -80.5 10.5 -118.5
c6.66699 -39.333 18.167 -78.666 34.5 -117.999s37.833 -74 64.5 -104s59 -52.667 97 -68s82.333 -18.333 133 -9c49.333 8.66699 88.333 26.834 117 54.501s49.667 60.334 63 98.001s20.333 77.5 21 119.5s-2.33301 82 -9 120zM825 364.995
c0 -53.333 -10.167 -103.831 -30.5 -151.498s-48.333 -89.334 -84 -125.001s-77.5 -64 -125.5 -85s-99.333 -31.5 -154 -31.5c-54 0 -103.833 9.5 -149.5 28.5s-84.834 45.5 -117.501 79.5s-58.167 74.167 -76.5 120.5s-27.5 97.166 -27.5 152.499
s9.33301 106.666 28 153.999s44.834 88.333 78.501 123s73.5 61.834 119.5 81.501s96.333 29.5 151 29.5c52.667 0 102.5 -9.16699 149.5 -27.5s88.167 -44 123.5 -77s63.333 -72.5 84 -118.5s31 -97 31 -153z" />
    <glyph glyph-name="P" unicode="P" horiz-adv-x="617" 
d="M469 514c0 22.667 -3.50684 44.502 -10.5068 65.502s-17.667 39.5 -32 55.5s-32.166 29 -53.499 39s-46 15.667 -74 17c-7.33301 0 -15.333 -0.5 -24 -1.5s-16 -4.16699 -22 -9.5c-6 -6 -10.167 -15.5 -12.5 -28.5s-3.5 -25.5 -3.5 -37.5v-20
c0 -34 0.333008 -67.667 1 -101l2 -101h-1v-74c-0.666992 -7.33301 -1.16699 -17.166 -1.5 -29.499s-0.666016 -25.333 -0.999023 -39s-0.5 -27.5 -0.5 -41.5v-37v-61c0 -8 0.333008 -16 1 -24s2.33398 -15.5 5.00098 -22.5s6.16699 -13.167 10.5 -18.5s10.5 -9 18.5 -11
c4 -1.33301 9.66699 -2.66602 17 -3.99902l22.5 -4c7.66699 -1.33301 14.667 -2.5 21 -3.5s10.833 -1.83301 13.5 -2.5c5.33301 -2.66699 7.16602 -5.66699 5.49902 -9s-3.16699 -7.33301 -4.5 -12c-3.33301 -2.66699 -7.33301 -4.33398 -12 -5.00098
s-9.33398 -1 -14.001 -1c-21.333 0 -43 1.16699 -65 3.5s-44 3.5 -66 3.5c-23.333 0 -46.166 -1.16699 -68.499 -3.5s-45.166 -3.5 -68.499 -3.5c-6.66699 0 -11 2.16699 -13 6.5s-3 9.16602 -3 14.499c0 2.66699 4.16699 5.16699 12.5 7.5l29 8c11 3 21.667 6.66699 32 11
s17.5 10.166 21.5 17.499c5.33301 11.333 8.33301 23.833 9 37.5s1 26.834 1 39.501c0 40 0.333008 80 1 120s1 80 1 120c0 44 -0.166992 87.833 -0.5 131.5s-0.5 87.5 -0.5 131.5c0 14.667 -2.66699 25.334 -8 32.001s-11.833 11.167 -19.5 13.5
s-16.167 3.16602 -25.5 2.49902s-17.833 -0.833984 -25.5 -0.500977s-14.167 1.83301 -19.5 4.5s-8 8.33398 -8 17.001c0 5.33301 2 9 6 11s8.33301 3.33301 13 4c32 3.33301 63.833 5.33301 95.5 6s63.5 1 95.5 1h57c36 0 70.333 -4.16699 103 -12.5
s61.334 -21.166 86.001 -38.499s44.334 -39.5 59.001 -66.5s22 -58.833 22 -95.5c0 -31.333 -6.33301 -59.833 -19 -85.5s-29.667 -47.834 -51 -66.501s-46.5 -33.167 -75.5 -43.5s-59.5 -15.5 -91.5 -15.5c-11.333 0 -18.166 0.833008 -20.499 2.5l-10.5 7.5
c-1.33301 1.33301 -2.83301 3.83301 -4.5 7.5s-2.66699 7.5 -3 11.5s0 7.5 1 10.5s3.16699 4.5 6.5 4.5c2.66699 -0.666992 4.33398 -1 5.00098 -1c24 0.666992 45.667 5.16699 65 13.5s36 19.666 50 33.999s24.833 31.666 32.5 51.999s11.5 42.5 11.5 66.5z" />
    <glyph glyph-name="Q" unicode="Q" horiz-adv-x="885" 
d="M701 410c-8 42.667 -20.834 83.332 -38.501 121.999s-40.5 71.834 -68.5 99.501s-60.667 48 -98 61s-79.333 15.167 -126 6.5c-44.667 -8.66699 -81 -26.334 -109 -53.001s-49.167 -58 -63.5 -94s-22.666 -74.667 -24.999 -116s0.166992 -81 7.5 -119
c6.66699 -39.333 18.167 -78.833 34.5 -118.5s37.833 -74.667 64.5 -105s59 -53 97 -68s82.333 -17.5 133 -7.5c38 8 70.833 25.667 98.5 53s49.5 59.833 65.5 97.5s26.333 77.834 31 120.501s3.66699 83 -3 121zM824.999 364.998
c0 -35.333 -4.99805 -69.499 -14.998 -102.499s-24.167 -63.833 -42.5 -92.5s-40 -55 -65 -79s-52.5 -44.667 -82.5 -62c16.667 -24 32.834 -43.5 48.501 -58.5s31.167 -27.5 46.5 -37.5s30.833 -18.167 46.5 -24.5l49.5 -19.5c2.66699 -1.33301 4.66699 -4 6 -8s2 -8 2 -12
c0 -4.66699 -0.833008 -9 -2.5 -13s-3.83398 -6 -6.50098 -6c-23.333 -2 -48 -0.666992 -74 4s-52.167 12.667 -78.5 24s-52.333 25.833 -78 43.5s-49.834 38.5 -72.501 62.5c-8 -2 -14.833 -3.83301 -20.5 -5.5s-11.334 -3 -17.001 -4s-11.5 -1.66699 -17.5 -2
s-13 -0.5 -21 -0.5c-54 0 -103.833 9.5 -149.5 28.5s-84.834 45.5 -117.501 79.5s-58.167 74.167 -76.5 120.5s-27.5 97.166 -27.5 152.499s9.33301 106.666 28 153.999s44.834 88.333 78.501 123s73.5 61.834 119.5 81.501s96.333 29.5 151 29.5
c52.667 0 102.5 -9.16699 149.5 -27.5s88.167 -44 123.5 -77s63.333 -72.5 84 -118.5s31 -97 31 -153z" />
    <glyph glyph-name="R" unicode="R" horiz-adv-x="718" 
d="M472 531c0 26.667 -4.33496 50 -13.002 70s-20.5 36.833 -35.5 50.5s-32.833 24 -53.5 31s-43.334 10.5 -68.001 10.5c-23.333 0 -38.666 -4.16699 -45.999 -12.5s-11 -20.5 -11 -36.5v-34c0 -26.667 -0.333008 -56.667 -1 -90s-1 -63.333 -1 -90
c0 -10 -0.166992 -18.5 -0.5 -25.5s0.333984 -12.833 2.00098 -17.5s5.33398 -8 11.001 -10s14.5 -3 26.5 -3c26.667 0 51.667 2.16699 75 6.5s43.5 12.333 60.5 24s30.333 27.667 40 48s14.5 46.5 14.5 78.5zM424.998 351
c13.333 -5.33301 26.1699 -17.1748 38.5029 -35.5078s24.666 -40.166 36.999 -65.499l39.5 -80.5c14 -28.333 29.667 -55.166 47 -80.499s36.666 -47.5 57.999 -66.5s46 -31.5 74 -37.5c7.33301 -3.33301 14.833 -5.83301 22.5 -7.5s11.5 -5.5 11.5 -11.5c0 -4 -3 -9 -9 -15
c-7.33301 -2.66699 -19.333 -4 -36 -4c-6.66699 0 -13.334 0.333008 -20.001 1s-12.334 1.33398 -17.001 2.00098c-56.667 10 -104.167 33 -142.5 69s-67.5 80 -87.5 132c-11.333 21.333 -21.833 43.333 -31.5 66s-20.667 43.167 -33 61.5s-26.666 33.5 -42.999 45.5
s-36.5 18 -60.5 18c-13.333 0 -21.5 -2.66699 -24.5 -8s-4.5 -16 -4.5 -32v-206c0 -17.333 2.16699 -30.333 6.5 -39s10.333 -15 18 -19s16.834 -6.66699 27.501 -8s22.667 -3.33301 36 -6c1.33301 -0.666992 4 -1 8 -1c5.33301 0 10.333 -0.666992 15 -2
s7 -4.66602 7 -9.99902c0 -9.33301 -3.33301 -15 -10 -17s-16.667 -3 -30 -3c-24 0 -48 1.16699 -72 3.5s-47.667 3.5 -71 3.5c-20.667 0 -41.167 -1 -61.5 -3s-40.833 -3 -61.5 -3c-8.66699 0 -14.334 0.833008 -17.001 2.5s-4 7.16699 -4 16.5
c0 4.66699 2.66699 7.83398 8 9.50098s12.166 3.16699 20.499 4.5s17.166 2.83301 26.499 4.5s18.166 4.83398 26.499 9.50098s15.166 11 20.499 19s8 19 8 33v206c0 56.667 0.5 113 1.5 169s1.5 112.333 1.5 169c0 13.333 -2.66699 23.666 -8 30.999
s-12.166 12.5 -20.499 15.5s-17.166 4.83301 -26.499 5.5s-18.166 1.33398 -26.499 2.00098s-15.166 2 -20.499 4s-8 6 -8 12c0 9.33301 3.5 14.833 10.5 16.5s14.167 2.5 21.5 2.5s14.833 -0.333008 22.5 -1s15.167 -1 22.5 -1h87c25.333 0 50.833 0.5 76.5 1.5
s51.167 1.5 76.5 1.5c22 0 45.667 -2.83301 71 -8.5s49 -16 71 -31s40.333 -35.167 55 -60.5s22 -57.666 22 -96.999c0 -21.333 -4.5 -41.166 -13.5 -59.499s-20.667 -34.833 -35 -49.5s-30.333 -27.667 -48 -39s-35.167 -21 -52.5 -29z" />
    <glyph glyph-name="S" unicode="S" horiz-adv-x="521" 
d="M60 -36c-4.66699 0 -7.66504 4.17188 -8.99805 12.5049s-2 18.166 -2 29.499s0.5 23 1.5 35s1.5 21.667 1.5 29c0 17.333 0.166992 33 0.5 47s1.16602 29.667 2.49902 47c0.666992 6 2.16699 10 4.5 12s4.83301 3 7.5 3s5.16699 -0.333008 7.5 -1s4.5 -1 6.5 -1
c4.66699 0 8.33398 -2.83301 11.001 -8.5s5 -12.667 7 -21l6.5 -26.5c2.33301 -9.33301 5.16602 -17.333 8.49902 -24c12 -26 30.667 -46.167 56 -60.5s51.666 -21.5 78.999 -21.5c20 0 38.5 3.16699 55.5 9.5s31.833 15.5 44.5 27.5s22.5 26.333 29.5 43
s10.5 35.667 10.5 57c0 31.333 -8.5 57.666 -25.5 78.999s-38.167 40.333 -63.5 57s-52.833 32.334 -82.5 47.001s-57.167 31.167 -82.5 49.5s-46.5 39.666 -63.5 63.999s-25.5 54.5 -25.5 90.5c0 32 5.83301 60.5 17.5 85.5s27.5 46 47.5 63s43.5 30 70.5 39
s55.5 13.5 85.5 13.5c14 0 29.667 -3.66699 47 -11s32 -14.666 44 -21.999c7.33301 -4 12.833 -4.16699 16.5 -0.5s7.16699 8.83398 10.5 15.501s7.5 13 12.5 19s12.5 9 22.5 9c4.66699 0 7.66699 -3.33301 9 -10s2 -14.667 2 -24s-0.5 -19 -1.5 -29s-1.5 -18.667 -1.5 -26
c0.666992 -34.667 -0.333008 -69.334 -3 -104.001c-1.33301 -6 -3 -10 -5 -12s-4.33301 -3 -7 -3s-5.33398 0.333008 -8.00098 1s-5 1 -7 1c-4 0 -7.33301 3 -10 9s-5 13.167 -7 21.5l-6 26c-2 9 -5 16.833 -9 23.5c-10.667 25.333 -26.334 45 -47.001 59s-41.667 21 -63 21
c-17.333 0 -33.833 -2.66699 -49.5 -8s-29.334 -13 -41.001 -23s-20.834 -22.333 -27.501 -37s-10 -31 -10 -49c0 -28 9.16699 -52.5 27.5 -73.5s40.833 -39.667 67.5 -56s54.834 -31.5 84.501 -45.5s55.834 -28.333 78.501 -43c28 -18.667 49.833 -43 65.5 -73
s23.834 -62 24.501 -96c0 -36.667 -5.83301 -68.834 -17.5 -96.501s-28 -50.834 -49 -69.501s-46 -32.834 -75 -42.501s-60.833 -14.834 -95.5 -15.501c-12.667 0 -24.5 1.66699 -35.5 5s-21.333 6.83301 -31 10.5l-27 10.5c-8.33301 3.33301 -16.166 5 -23.499 5
c-8 0 -13.833 -2.16699 -17.5 -6.5s-7.16699 -9.33301 -10.5 -15s-7.33301 -10.667 -12 -15s-12 -6.5 -22 -6.5z" />
    <glyph glyph-name="T" unicode="T" horiz-adv-x="706" 
d="M691 723c-4.66699 -12.667 -7.83496 -29.4941 -9.50195 -50.4941s-3.66699 -41.5 -6 -61.5s-5.66602 -37.333 -9.99902 -52s-11.5 -22 -21.5 -22c-8 0 -12.667 3.16699 -14 9.5s-1.5 14.333 -0.5 24s1.83301 20.167 2.5 31.5s-1 22 -5 32
c-3.33301 8 -9.83301 14.5 -19.5 19.5s-21.167 8.66699 -34.5 11s-27.5 4 -42.5 5s-29.167 1.5 -42.5 1.5c-10 0 -19 -0.166992 -27 -0.5s-14.667 -0.5 -20 -0.5c-4.66699 0 -9 0.166992 -13 0.5s-7.5 -1 -10.5 -4s-5.33301 -8.33301 -7 -16s-2.5 -19.167 -2.5 -34.5
l-2 -122c-1.33301 -58.667 -1.16602 -117.334 0.500977 -176.001s1.83398 -117.334 0.500977 -176.001c0 -10.667 0.166992 -21.334 0.5 -32.001s1.5 -21.334 3.5 -32.001c3.33301 -18.667 11.666 -31.167 24.999 -37.5s27.333 -10.333 42 -12l39.5 -4.5
c11.667 -1.33301 17.5 -6 17.5 -14c0 -10.667 -2.33301 -16.334 -7 -17.001s-11.334 -1 -20.001 -1c-26.667 0 -53.167 0.833008 -79.5 2.5s-52.833 2.5 -79.5 2.5c-24 0 -47.833 -0.833008 -71.5 -2.5s-47.5 -2.5 -71.5 -2.5c-5.33301 0 -10.833 0.333008 -16.5 1
s-8.5 4.66699 -8.5 12c0 8 3 13.167 9 15.5s12.333 3.5 19 3.5c6 0 10.333 0.333008 13 1c19.333 2 34.833 5.33301 46.5 10s20.5 11.167 26.5 19.5s10 18.833 12 31.5s3 28.334 3 47.001v484c0 3.33301 -0.166992 9.5 -0.5 18.5s-0.833008 15.167 -1.5 18.5
c-1.33301 6 -9 10.167 -23 12.5s-29 3.5 -45 3.5h-62c-15.333 0 -30.166 -2.16699 -44.499 -6.5s-28.166 -12.833 -41.499 -25.5c-3.33301 -3.33301 -7.66602 -10.333 -12.999 -21l-17 -33.5c-6 -11.667 -11.833 -22.167 -17.5 -31.5s-9.83398 -14 -12.501 -14
c-6.66699 0 -11.667 1.33301 -15 4s-5 7.66699 -5 15c0 11.333 2.66699 26.5 8 45.5s9.66602 45.833 12.999 80.5c0.666992 7.33301 1.33398 15.166 2.00098 23.499s2.16699 15.833 4.5 22.5s5.83301 12.167 10.5 16.5s11.334 6.5 20.001 6.5
c3.33301 0 6.16602 -1.66699 8.49902 -5s5.16602 -7.16602 8.49902 -11.499s7.83301 -8.5 13.5 -12.5s13.5 -6.33301 23.5 -7c40 -2 81 -3.5 123 -4.5s83 -1.5 123 -1.5c32 0 62.833 0.333008 92.5 1s60.5 1 92.5 1c10 0 20.167 0.166992 30.5 0.5
s20.5 1.16602 30.5 2.49902c8 1.33301 14.667 4.33301 20 9s10 9.66699 14 15s7.33301 10.166 10 14.499s5.66699 6.5 9 6.5c11.333 0 18.5 -4.33301 21.5 -13s3.16699 -16.667 0.5 -24z" />
    <glyph glyph-name="U" unicode="U" horiz-adv-x="812" 
d="M795 707c0 -7.33301 -3.99512 -12.9932 -11.9951 -16.9932s-17.333 -7.16699 -28 -9.5s-20.834 -4.16602 -30.501 -5.49902s-16.167 -3 -19.5 -5c-4.66699 -2.66699 -8 -13.167 -10 -31.5s-3.16699 -39.833 -3.5 -64.5s-0.333008 -50.334 0 -77.001s0.5 -50 0.5 -70
c0 -18 0.166992 -36 0.5 -54s0.5 -36 0.5 -54c0 -29.333 -0.833008 -60 -2.5 -92s-6.83398 -62.5 -15.501 -91.5s-21.667 -55.167 -39 -78.5s-42 -41.333 -74 -54c-28 -10.667 -57 -18.167 -87 -22.5s-59.333 -6.5 -88 -6.5c-34 0 -66.333 3.16699 -97 9.5
s-58 17.166 -82 32.499s-43.667 35.666 -59 60.999s-25 57.333 -29 96c-0.666992 6 -1.16699 12 -1.5 18s-0.5 12 -0.5 18v37c0 56.667 0.666992 112.667 2 168s2 111.333 2 168c0 9.33301 -0.166992 20 -0.5 32s-2 23.167 -5 33.5s-8 19.166 -15 26.499
s-17.167 11 -30.5 11h-11c-3.33301 0 -7.5 0.166992 -12.5 0.5s-10 1 -15 2s-9.33301 2.83301 -13 5.5s-5.5 6.33398 -5.5 11.001c0 12.667 6.66699 19 20 19c21.333 0 42.5 -1 63.5 -3s42.167 -3 63.5 -3c23.333 0 46.166 1 68.499 3s45.166 3 68.499 3
c5.33301 0 12 -0.666992 20 -2s12 -5.66602 12 -12.999c0 -9.33301 -4.5 -15.333 -13.5 -18s-19.167 -5 -30.5 -7s-22.5 -4.66699 -33.5 -8s-18.833 -10.333 -23.5 -21c-2 -4.66699 -3.66699 -11.334 -5 -20.001s-2.5 -18.334 -3.5 -29.001s-1.66699 -21.667 -2 -33
s-0.5 -22 -0.5 -32v-184c0 -20.667 0.166992 -41.334 0.5 -62.001s1.16602 -41.334 2.49902 -62.001c2.66699 -41.333 9.16699 -75.333 19.5 -102s24 -47.667 41 -63s37.167 -26 60.5 -32s49.333 -9 78 -9c34 0 63.167 3.16699 87.5 9.5s45 16.833 62 31.5
s30.833 33.5 41.5 56.5s19 51.5 25 85.5c4 18.667 6 38 6 58v214c0 15.333 0.333008 32.666 1 51.999s1 38 1 56s-1 34.167 -3 48.5s-6 24.166 -12 29.499s-13.667 8.66602 -23 9.99902s-18.5 2.83301 -27.5 4.5s-16.667 4.33398 -23 8.00098s-9.5 10.167 -9.5 19.5
c0 6.66699 2.33301 10.667 7 12s9.66699 2 15 2c17.333 0 34.833 -0.666992 52.5 -2s35.167 -2 52.5 -2c18 0 36 0.5 54 1.5s36 1.5 54 1.5c9.33301 -3.33301 14 -8.33301 14 -15z" />
    <glyph glyph-name="V" unicode="V" horiz-adv-x="768" 
d="M758 706c0 -8.66699 -2.83398 -14.3359 -8.50098 -17.0029s-12.5 -4.66699 -20.5 -6s-16.333 -3.5 -25 -6.5s-16 -8.83301 -22 -17.5c-2 -3.33301 -4.83301 -9.33301 -8.5 -18l-12 -28c-4.33301 -10 -8.33301 -19.833 -12 -29.5s-6.5 -16.834 -8.5 -21.501
c-14 -36 -28.5 -71.5 -43.5 -106.5l-44.5 -106.5l-72 -181l-72 -181c-1.33301 -4 -2.83301 -7.16699 -4.5 -9.5s-5.16699 -3.5 -10.5 -3.5c-4.66699 0 -8.33398 1.83301 -11.001 5.5s-4.66699 7.16699 -6 10.5l-47 116l-47 116l-83 215.5
c-27.333 71.667 -58 142.834 -92 213.501c-6 12.667 -14.5 21 -25.5 25s-21.833 7 -32.5 9s-20 4.16699 -28 6.5s-12 7.83301 -12 16.5c0 6 3.5 10.167 10.5 12.5s13.833 3.5 20.5 3.5h11c16 0 32 -1 48 -3s32 -3 48 -3c23.333 0 46.5 1 69.5 3s46.167 3 69.5 3
c6 0 11.333 -2 16 -6s7 -9 7 -15c0 -7.33301 -4.66699 -11.666 -14 -12.999s-19.833 -2.33301 -31.5 -3s-22.167 -2.5 -31.5 -5.5s-14 -9.83301 -14 -20.5c0 -2 0.333008 -4.16699 1 -6.5s1.33398 -4.5 2.00098 -6.5c3.33301 -10 10 -28.5 20 -55.5l35 -92.5l42.5 -109.5
l42.5 -106.5l35 -83c10 -22.667 17 -35.667 21 -39c2 -2 4.33301 -1.83301 7 0.5s5.16699 5.33301 7.5 9s4.33301 7.33398 6 11.001s2.83398 6.16699 3.50098 7.5c4 9.33301 10.833 26.5 20.5 51.5l33 85.5l38 101.5l36 99.5c11 30.667 20 56.834 27 78.501
s10.5 34.834 10.5 39.501c0 14 -5.33301 23 -16 27s-22.5 6.66699 -35.5 8s-24.833 3.16602 -35.5 5.49902s-16 8.5 -16 18.5c0 5.33301 2 9.83301 6 13.5s8.66699 5.5 14 5.5c21.333 0 43 -1.16699 65 -3.5s43.667 -3.5 65 -3.5c15.333 0 30.333 0.833008 45 2.5
s29.667 2.5 45 2.5c4.66699 0 8.16699 -1.66699 10.5 -5s3.5 -7 3.5 -11z" />
    <glyph glyph-name="W" unicode="W" horiz-adv-x="1096" 
d="M553 372l-55.501 140.997c-19 46 -39.5 92 -61.5 138c-6 12.667 -14.5 21 -25.5 25s-21.833 7 -32.5 9s-20 4.16699 -28 6.5s-12 7.83301 -12 16.5c0 6 3.5 10.167 10.5 12.5s13.833 3.5 20.5 3.5h11c16 0 32 -1 48 -3s32 -3 48 -3c23.333 0 46.5 1 69.5 3
s46.167 3 69.5 3c6 0 11.333 -2 16 -6s7 -9 7 -15c0 -7.33301 -4.66699 -11.666 -14 -12.999s-19.833 -2.33301 -31.5 -3s-22.167 -2.5 -31.5 -5.5s-14 -9.83301 -14 -20.5c0 -2 0.333008 -4.16699 1 -6.5s1.33398 -4.5 2.00098 -6.5c3.33301 -10 10 -28.5 20 -55.5
l35 -92.5l42.5 -109.5l42.5 -106.5l35 -83c10 -22.667 17 -35.667 21 -39c2 -2 4.33301 -1.83301 7 0.5s5.16699 5.33301 7.5 9s4.33301 7.33398 6 11.001s2.83398 6.16699 3.50098 7.5c4 9.33301 10.833 26.5 20.5 51.5l33 85.5l38 101.5l36 99.5
c11 30.667 20 56.834 27 78.501s10.5 34.834 10.5 39.501c0 14 -5.33301 23 -16 27s-22.5 6.66699 -35.5 8s-24.833 3.16602 -35.5 5.49902s-16 8.5 -16 18.5c0 5.33301 2 9.83301 6 13.5s8.66699 5.5 14 5.5c21.333 0 43 -1.16699 65 -3.5s43.667 -3.5 65 -3.5
c15.333 0 30.333 0.833008 45 2.5s29.667 2.5 45 2.5c4.66699 0 8.16699 -1.66699 10.5 -5s3.5 -7 3.5 -11c0 -8.66699 -2.83301 -14.334 -8.5 -17.001s-12.5 -4.66699 -20.5 -6s-16.333 -3.5 -25 -6.5s-16 -8.83301 -22 -17.5c-2 -3.33301 -4.83301 -9.33301 -8.5 -18
l-12 -28c-4.33301 -10 -8.33301 -19.833 -12 -29.5s-6.5 -16.834 -8.5 -21.501c-14 -36 -28.5 -71.5 -43.5 -106.5l-44.5 -106.5l-72 -181l-72 -181c-1.33301 -4 -2.83301 -7.16699 -4.5 -9.5s-5.16699 -3.5 -10.5 -3.5c-4.66699 0 -8.33398 1.83301 -11.001 5.5
s-4.66699 7.16699 -6 10.5l-47 116l-47 116l-33 84l-18 -34c-4 -5.33301 -11 -17.833 -21 -37.5l-31.5 -65l-32 -68.5c-10.333 -22 -17.5 -37.667 -21.5 -47l-11 -24.5c-4 -9 -8.33301 -17.5 -13 -25.5s-9.66699 -14.833 -15 -20.5s-10.333 -8.5 -15 -8.5
c-8.66699 0 -14.5 3.33301 -17.5 10s-5.83301 13.334 -8.5 20.001l-135 313l-138 311c-9.33301 20.667 -19.333 34.167 -30 40.5s-20.5 10.333 -29.5 12s-16.5 3.83398 -22.5 6.50098s-9 10.667 -9 24c0 4 1.66699 6.66699 5 8s7.33301 2.33301 12 3s9 0.833984 13 0.500977
s6.66699 -0.5 8 -0.5c14.667 0 29.167 -0.833008 43.5 -2.5s28.833 -2.5 43.5 -2.5c17.333 0 34.833 0.833008 52.5 2.5s35.167 2.5 52.5 2.5c5.33301 0 10 -1.33301 14 -4s6 -7 6 -13c0 -7.33301 -3.16699 -11.833 -9.5 -13.5s-13.5 -3 -21.5 -4s-15.167 -2.66699 -21.5 -5
s-9.5 -7.83301 -9.5 -16.5c0 -4.66699 4 -17.834 12 -39.501s18.333 -47.667 31 -78l42 -98l44 -100l38 -84.5l24 -52c2.66699 -6.66699 6.66699 -16 12 -28s10.833 -23.5 16.5 -34.5s11 -19.833 16 -26.5s8.5 -7.66699 10.5 -3z" />
    <glyph glyph-name="X" unicode="X" horiz-adv-x="780" 
d="M760 13c0 -12.667 -2.83496 -19.5029 -8.50195 -20.5029s-13.5 -1.5 -23.5 -1.5s-18.667 0.333008 -26 1l-21 2l-21 2c-7.33301 0.666992 -16 1 -26 1c-30 0 -58.833 -0.666992 -86.5 -2s-56.5 -2 -86.5 -2c-7.33301 0 -12.333 3 -15 9s-2.33398 12.333 0.999023 19
c5.33301 3.33301 13.333 5.33301 24 6s21.167 1.5 31.5 2.5s19.5 3.16699 27.5 6.5s12 9.33301 12 18c0 4 -1 7.83301 -3 11.5l-6 10.5l-17.5 25.5l-29 43l-35.5 51l-36 49c-11.333 15 -21.5 27.833 -30.5 38.5s-15.167 16.667 -18.5 18
c-7.33301 -4 -13.166 -9.16699 -17.499 -15.5s-8.83301 -12.5 -13.5 -18.5c-4.66699 -5.33301 -11 -13.666 -19 -24.999l-26.5 -37.5l-29.5 -43l-27.5 -43c-8.33301 -13.667 -15.166 -25.834 -20.499 -36.501s-8 -18.667 -8 -24c0 -10.667 5.16699 -17.667 15.5 -21
s21.833 -5.83301 34.5 -7.5s24.167 -3.83398 34.5 -6.50098s15.5 -9 15.5 -19c0 -4 -2.66699 -6.83301 -8 -8.5s-10.666 -2.5 -15.999 -2.5h-8c-15.333 0 -30.166 0.833008 -44.499 2.5s-29.166 2.5 -44.499 2.5c-13.333 0 -25.5 -0.333008 -36.5 -1
s-21.667 -1.16699 -32 -1.5s-20.833 -0.833008 -31.5 -1.5s-23 -1 -37 -1c-5.33301 0 -11 1 -17 3s-9 6.66699 -9 14c0 6.66699 2 11.334 6 14.001s9.5 4.5 16.5 5.5l23.5 3.5c8.66699 1.33301 18 4.66602 28 9.99902c13.333 7.33301 26 17.333 38 30
s23.667 26.334 35 41.001s22.333 29.667 33 45s21.334 29.333 32.001 42l29 33l35.5 41c11.667 14 21.834 27.167 30.501 39.5s13 21.5 13 27.5c-7.33301 14.667 -16.333 28.5 -27 41.5s-20.667 26.167 -30 39.5l-72.5 99.5l-74.5 97.5c-6.66699 8 -13 16.167 -19 24.5
s-12.667 16.166 -20 23.499c-8 8 -16.5 13.167 -25.5 15.5s-17 3.83301 -24 4.5s-12.833 2 -17.5 4s-7 7 -7 15c0 7.33301 3.83301 12.166 11.5 14.499s14.167 3.5 19.5 3.5c13.333 0 25.833 -0.333008 37.5 -1s23 -1.5 34 -2.5s22.333 -1.83301 34 -2.5s24.167 -1 37.5 -1
c17.333 0 34.833 1.16699 52.5 3.5s35.167 3.5 52.5 3.5h10c6.66699 0 12.834 -1.16699 18.501 -3.5s8.5 -6.5 8.5 -12.5c0 -10 -5.16699 -16.167 -15.5 -18.5s-21.833 -3.83301 -34.5 -4.5s-24.167 -2 -34.5 -4s-15.5 -7.33301 -15.5 -16c0 -4 5 -14.167 15 -30.5
s21.667 -34.166 35 -53.499l40.5 -57.5l31.5 -43.5c2 -2 5 -5.83301 9 -11.5l12.5 -18c4.33301 -6.33301 8.5 -11.833 12.5 -16.5s7.33301 -7 10 -7c3.33301 0 8.83301 4.16699 16.5 12.5s16.167 18.833 25.5 31.5l29.5 42l29 44.5l24.5 38.5
c7.33301 11.333 12.666 19.333 15.999 24c3.33301 4 7.16602 10.333 11.499 19s6.5 15.334 6.5 20.001c0 10.667 -4.5 17.834 -13.5 21.501s-18.667 6.33398 -29 8.00098s-20 3.33398 -29 5.00098s-13.5 5.83398 -13.5 12.501c0 8.66699 4.16699 13.667 12.5 15
s15.5 2 21.5 2c20.667 0 41 -1 61 -3s40.333 -3 61 -3c16 0 31.167 0.833008 45.5 2.5s29.833 2.5 46.5 2.5c5.33301 0 11.833 -0.333008 19.5 -1s11.5 -4.66699 11.5 -12c0 -4 -1.5 -7.33301 -4.5 -10s-6.16699 -4.66699 -9.5 -6c-10.667 -4 -20.667 -6.83301 -30 -8.5
s-18.333 -3.83398 -27 -6.50098s-17.334 -6.5 -26.001 -11.5s-17.334 -12.167 -26.001 -21.5c-34.667 -38 -67.667 -77.5 -99 -118.5l-92 -122.5c-5.33301 -6 -8.33301 -12.333 -9 -19c3.33301 -10 8 -19.333 14 -28l18 -26l94.5 -130l95.5 -127
c4.66699 -6 9.5 -11.667 14.5 -17s10.833 -10 17.5 -14c7.33301 -5.33301 15.166 -9.16602 23.499 -11.499s16 -4.33301 23 -6s12.833 -3.33398 17.5 -5.00098s7 -4.5 7 -8.5z" />
    <glyph glyph-name="Y" unicode="Y" horiz-adv-x="783" 
d="M32 724c18.667 0 37.002 -1.33984 55.002 -4.00684s36.333 -4 55 -4c25.333 0 50.833 1.16699 76.5 3.5s51.5 3.5 77.5 3.5c3.33301 0 7.5 -1.66699 12.5 -5s7.5 -6.66602 7.5 -9.99902c0 -10 -4.66699 -15.833 -14 -17.5s-19.5 -2.66699 -30.5 -3
s-21.167 -1.33301 -30.5 -3s-14 -7.16699 -14 -16.5c0 -7.33301 3.16699 -16.666 9.5 -27.999s13.666 -23.166 21.999 -35.499s17 -24.333 26 -36l22.5 -29.5l48 -69.5c16 -23 32.667 -45.167 50 -66.5l5.5 -7.5c1.66699 -2.33301 4.16699 -4.16602 7.5 -5.49902
c2 0.666992 4.16699 2 6.5 4s4.16602 3.66699 5.49902 5c4 4 11.167 12.833 21.5 26.5l36 48l42.5 59l40.5 58.5l30.5 46c8 12.667 12 20.334 12 23.001c0 11.333 -4.66699 18.5 -14 21.5s-19.5 4.83301 -30.5 5.5s-21.167 1.83398 -30.5 3.50098s-14 7.16699 -14 16.5
c0 8 1.83301 12.5 5.5 13.5s8.83398 1.5 15.501 1.5c15.333 0 30.666 -1 45.999 -3s30.666 -3 45.999 -3c17.333 0 34.5 1.16699 51.5 3.5s34.167 3.5 51.5 3.5c9.33301 0 17.833 -1.66699 25.5 -5s9.5 -9.33301 5.5 -18c-2.66699 -5.33301 -7.33398 -8.83301 -14.001 -10.5
s-14 -3.16699 -22 -4.5s-16.333 -3.66602 -25 -6.99902s-16.667 -9.33301 -24 -18c-24.667 -28.667 -48.5 -58 -71.5 -88l-69.5 -90l-35.5 -42.5c-13 -15 -25.333 -30.333 -37 -46s-21.334 -31.5 -29.001 -47.5s-11.5 -31.333 -11.5 -46v-199c0 -18 2.66699 -31.833 8 -41.5
s12 -16.5 20 -20.5s16.833 -6.33301 26.5 -7s19 -1.16699 28 -1.5s16.833 -1.33301 23.5 -3s11.334 -5.83398 14.001 -12.501c0 -6 -1.33301 -11.333 -4 -16s-7.66699 -7 -15 -7c-26 0 -52.167 1.16699 -78.5 3.5s-52.5 3.5 -78.5 3.5c-24 0 -47.833 -1.16699 -71.5 -3.5
s-47.5 -3.5 -71.5 -3.5c-2 0 -4.33301 0.333008 -7 1s-4 2.66699 -4 6c-3.33301 10 -1.33301 16.833 6 20.5s16.833 6.33398 28.5 8.00098s23.667 3.5 36 5.5s22.166 7 29.499 15c3.33301 4 6 10.5 8 19.5s3.5 19.333 4.5 31s1.66699 24.167 2 37.5s0.5 26 0.5 38v88
c0 20.667 -0.333008 38 -1 52s-5 26.667 -13 38l-107.5 152.5l-107.5 152.5c-7.33301 10.667 -16.666 18.334 -27.999 23.001s-22.166 8.16699 -32.499 10.5s-19.166 4.66602 -26.499 6.99902s-11 7.16602 -11 14.499c0 6.66699 2.33301 10.334 7 11.001s9.66699 1 15 1z
" />
    <glyph glyph-name="Z" unicode="Z" horiz-adv-x="757" 
d="M90 732c7.33301 0 12.665 -0.333008 15.998 -1s6.33301 -1.5 9 -2.5l9.5 -3.5c3.66699 -1.33301 9.16699 -2.33301 16.5 -3c6 -4 15 -6.66699 27 -8s23.333 -2 34 -2h19c30 0 63.333 0.333008 100 1s74.167 1.16699 112.5 1.5s76 0.833008 113 1.5s70.5 1 100.5 1
c6.66699 0 15 0.833008 25 2.5s19.167 2.83398 27.5 3.50098s15.333 -0.333008 21 -3s7.5 -8 5.5 -16c0 -0.666992 -5.66699 -7.83398 -17 -21.501l-45.5 -53.5l-65 -75.5l-75 -87.5l-77 -89.5l-70 -82l-54 -64c-15 -17.667 -24.833 -29.5 -29.5 -35.5
c-5.33301 -7.33301 -13.5 -17.5 -24.5 -30.5l-34 -41c-11.667 -14.333 -22 -28 -31 -41s-14.167 -23.5 -15.5 -31.5c0 -5.33301 2.16699 -9.33301 6.5 -12s9.5 -4.33398 15.5 -5.00098s12.333 -0.833984 19 -0.500977s12.667 0.5 18 0.5c30 0 62.5 0.166992 97.5 0.5
s67.5 0.5 97.5 0.5c23.333 0 48.666 0.5 75.999 1.5s52.666 4.83301 75.999 11.5c16.667 6.66699 29.5 15.834 38.5 27.501s18.167 25.167 27.5 40.5c4 7.33301 7.33301 15.5 10 24.5s5.83398 16.833 9.50098 23.5s8 10.834 13 12.501s11.5 -0.833008 19.5 -7.5
c2 -11.333 3 -22 3 -32c0 -11.333 -1.5 -22.833 -4.5 -34.5s-5.5 -23.167 -7.5 -34.5c-1.33301 -8 -2.5 -16.5 -3.5 -25.5s-2.83301 -17.333 -5.5 -25s-6.66699 -13.834 -12 -18.501s-13.333 -7 -24 -7c-25.333 0 -50.666 0.666992 -75.999 2s-50.666 2 -75.999 2h-87
c-60.667 0 -123.834 -1.16699 -189.501 -3.5s-128.834 -3.5 -189.501 -3.5c-10.667 0 -16 5 -16 15c0 1.33301 5.5 8.83301 16.5 22.5l43 54l61.5 76l72 87.5l73.5 89.5l67 81l52 63l28.5 35.5c4.66699 6 13.334 16 26.001 30l39 43.5l37 42.5
c11.333 13.333 18 22.333 20 27c1.33301 1.33301 3 3.83301 5 7.5s3.33301 6.5 4 8.5c0.666992 2.66699 -1.5 4.5 -6.5 5.5s-11.167 1.5 -18.5 1.5c-6.66699 0 -13.334 -0.166992 -20.001 -0.5s-11 -0.5 -13 -0.5h-70c-19.333 0 -39.333 -0.166992 -60 -0.5l-61.5 -1l-59 -1
c-19 -0.333008 -35.833 -0.833008 -50.5 -1.5c-21.333 -1.33301 -40.666 -4.66602 -57.999 -9.99902s-33.666 -16.333 -48.999 -33c-5.33301 -5.33301 -10.333 -12 -15 -20l-13.5 -24c-4.33301 -8 -8.83301 -14.833 -13.5 -20.5s-9 -8.5 -13 -8.5
c-3.33301 0 -8.16602 0.833008 -14.499 2.5s-8.5 5.16699 -6.5 10.5c4 17.333 8.66699 34.666 14 51.999l16 52c5.33301 14.667 9.83301 27.834 13.5 39.501s10.167 17.5 19.5 17.5z" />
    <glyph glyph-name="bracketleft" unicode="[" horiz-adv-x="333" 
d="M335 717c0 -11.333 -4.99707 -20.1689 -14.9971 -26.502s-21.5 -11.166 -34.5 -14.499s-26.167 -5.5 -39.5 -6.5s-23.333 -1.5 -30 -1.5c-6 0 -11.833 0.333008 -17.5 1s-11.167 1 -16.5 1c-9.33301 0 -17.166 -2.16699 -23.499 -6.5s-9.5 -11.166 -9.5 -20.499
c-2.66699 -38 -4.16699 -75 -4.5 -111s-0.5 -73 -0.5 -111c0 -88.667 -0.166992 -176 -0.5 -262s0.166992 -173.333 1.5 -262c0 -4.66699 0.666992 -11.667 2 -21s3.66602 -15.666 6.99902 -18.999c5.33301 -5.33301 13.5 -7.83301 24.5 -7.5s20.167 0.5 27.5 0.5
c6.66699 0 17 -0.5 31 -1.5s28.167 -3.33301 42.5 -7s26.666 -8.66699 36.999 -15s15.166 -14.5 14.499 -24.5c-0.666992 -4.66699 -2.66699 -7.66699 -6 -9s-6.66602 -2 -9.99902 -2c-8 0 -16 1.66699 -24 5s-16 5.66602 -24 6.99902
c-18.667 3.33301 -37.334 5.33301 -56.001 6s-37.334 -0.666016 -56.001 -3.99902c-11.333 -2 -22.166 -5.16699 -32.499 -9.5s-21.166 -6.5 -32.499 -6.5c-6.66699 0 -10.834 2 -12.501 6s-2.5 8.66699 -2.5 14l2 904c0 2.66699 0.166992 5.5 0.5 8.5
s2.16602 5.16699 5.49902 6.5c1.33301 1.33301 4.33301 2 9 2c14.667 0 29 -1.83301 43 -5.5s28.333 -6.5 43 -8.5c7.33301 -1.33301 15 -2.33301 23 -3s15.667 -1 23 -1c24.667 0 48.667 3 72 9c5.33301 1.33301 10.5 3 15.5 5s10.167 3 15.5 3
c2.66699 0 4.66699 -1.33301 6 -4s2 -5.33398 2 -8.00098z" />
    <glyph glyph-name="backslash" unicode="\" horiz-adv-x="327" 
d="M305 -21l-170 388l-170 388h57l169.5 -388l171.5 -388h-58z" />
    <glyph glyph-name="bracketright" unicode="]" horiz-adv-x="323" 
d="M0 717c0 2.66699 0.669922 5.33691 2.00293 8.00391s3.33301 4 6 4c5.33301 0 10.5 -1 15.5 -3s10.167 -3.66699 15.5 -5c22.667 -6 46.667 -9 72 -9c7.33301 0 15 0.333008 23 1s15.667 1.66699 23 3c14.667 2 29 4.83301 43 8.5s28.333 5.5 43 5.5
c4.66699 0 7.66699 -0.666992 9 -2c3.33301 -1.33301 5.16602 -3.5 5.49902 -6.5s0.5 -5.83301 0.5 -8.5l2 -904c0 -5.33301 -0.833008 -10 -2.5 -14s-5.83398 -6 -12.501 -6c-11.333 0 -22.166 2.16699 -32.499 6.5s-21.166 7.5 -32.499 9.5
c-18.667 3.33301 -37.334 4.66602 -56.001 3.99902s-37.334 -2.66699 -56.001 -6c-8 -1.33301 -16 -3.66602 -24 -6.99902s-16 -5 -24 -5c-3.33301 0 -6.66602 0.666992 -9.99902 2s-5.33301 4.33301 -6 9c-0.666992 10 4.16602 18.167 14.499 24.5s22.666 11.333 36.999 15
s28.5 6 42.5 7s24.333 1.5 31 1.5c7.33301 0 16.5 -0.166992 27.5 -0.5s19.167 2.16699 24.5 7.5c3.33301 3.33301 5.66602 9.66602 6.99902 18.999s2 16.333 2 21c1.33301 88.667 1.83301 176 1.5 262s-0.5 173.333 -0.5 262c0 38 -0.166992 75 -0.5 111
s-1.83301 73 -4.5 111c0 9.33301 -3.16699 16.166 -9.5 20.499s-14.166 6.5 -23.499 6.5c-5.33301 0 -10.833 -0.333008 -16.5 -1s-11.5 -1 -17.5 -1c-6.66699 0 -16.667 0.5 -30 1.5s-26.5 3.16699 -39.5 6.5s-24.5 8.16602 -34.5 14.499s-15 15.166 -15 26.499z" />
    <glyph glyph-name="asciicircum" unicode="^" horiz-adv-x="386" 
d="M25 490c-4 0 -6 2.33203 -6 6.99902c0 2 4 8 12 18l30 36.5l39.5 46l41 46l34 36.5c9.66699 10 15.834 16 18.501 18c2 -0.666992 5.33301 -3.33398 10 -8.00098l58.5 -67.5c19 -23 38.833 -45.167 59.5 -66.5c0.666992 -1.33301 3.5 -4.66602 8.5 -9.99902
s10 -11 15 -17l14 -16.5l6.5 -7.5c1.33301 -4 2 -6.66699 2 -8c0 -4.66699 -3 -7 -9 -7c-5.33301 0 -15.666 5.33301 -30.999 16l-49.5 36l-50.5 39.5c-16 13 -27.333 21.833 -34 26.5c-7.33301 -5.33301 -19 -14.5 -35 -27.5l-50.5 -39.5
c-17.667 -13.333 -34.334 -25.166 -50.001 -35.499s-26.834 -15.5 -33.501 -15.5z" />
    <glyph glyph-name="underscore" unicode="_" horiz-adv-x="604" 
d="M10 -139v55h584v-55h-584z" />
    <glyph glyph-name="grave" unicode="`" horiz-adv-x="437" 
d="M146 697l8.50098 7c1.66699 1.33301 3.5 2.66602 5.5 3.99902l7.5 5c3 2 7.5 5.33301 13.5 10c3.33301 5.33301 7.33301 6.83301 12 4.5s7.66699 -5.16602 9 -8.49902c3.33301 -6.66699 10.166 -18.167 20.499 -34.5l32.5 -51l30.5 -49.5
c9 -15.333 13.833 -25.333 14.5 -30c2 -6.66699 0.5 -11.667 -4.5 -15s-10.5 -2 -16.5 4l-29 26.5l-39.5 37.5l-38.5 38c-12 12 -21 21.667 -27 29c-4 4.66699 -6.16699 8.5 -6.5 11.5s2.16699 6.83301 7.5 11.5z" />
    <glyph glyph-name="a" unicode="a" 
d="M292 181c0 6.66699 -0.166016 12.501 -0.499023 17.501s-0.833008 9.16699 -1.5 12.5c-6 -1.33301 -13 -3.16602 -21 -5.49902s-16.167 -5 -24.5 -8l-24 -9c-7.66699 -3 -14.5 -5.5 -20.5 -7.5c-18 -6.66699 -34.5 -16.334 -49.5 -29.001s-22.5 -29.334 -22.5 -50.001
c0 -18.667 4.33301 -34 13 -46s23.667 -18 45 -18c14 0 28.167 3.5 42.5 10.5s26.166 15.5 35.499 25.5c5.33301 5.33301 11 13.166 17 23.499s9.33301 19.166 10 26.499c0 4.66699 0.166992 7.83398 0.5 9.50098s0.5 2.83398 0.5 3.50098v44v0zM460.001 70.001
c0 -0.666992 -0.670898 -3.66895 -2.00391 -9.00195c-5.33301 -21.333 -16.666 -38.5 -33.999 -51.5s-37 -19.5 -59 -19.5s-39.333 7 -52 21s-21.667 31 -27 51c-7.33301 -10 -16.5 -19.667 -27.5 -29s-23.167 -17.833 -36.5 -25.5s-27.166 -13.667 -41.499 -18
s-28.166 -6.5 -41.499 -6.5c-34 0 -57.833 9.83301 -71.5 29.5s-20.5 44.5 -20.5 74.5c0 14.667 3.83301 28.167 11.5 40.5s17.334 23.5 29.001 33.5s24.334 18.667 38.001 26s26.5 13.333 38.5 18c23.333 8.66699 44.5 16.167 63.5 22.5s40.5 12.5 64.5 18.5v77
c0 28 -5.16699 50.5 -15.5 67.5s-30.5 25.5 -60.5 25.5c-20 0 -36 -3.5 -48 -10.5s-21.5 -15.333 -28.5 -25s-11.833 -19.167 -14.5 -28.5l-6 -21c-3.33301 -10.667 -10.333 -19.667 -21 -27s-22.334 -11 -35.001 -11c-7.33301 0 -11.666 3.16699 -12.999 9.5
s-2 12.166 -2 17.499c0 16 6.66699 32.5 20 49.5s29.666 32.833 48.999 47.5s40.333 26.667 63 36s43.334 14 62.001 14c4.66699 0 10.5 -0.5 17.5 -1.5s14.167 -2.16699 21.5 -3.5s14.333 -3 21 -5s12 -4 16 -6c22 -11.333 35.667 -26.166 41 -44.499s8 -38.833 8 -61.5
c0 -25.333 -0.333008 -52.166 -1 -80.499s-1 -55.166 -1 -80.499c0 -6 -0.166992 -14.833 -0.5 -26.5s-0.333008 -23.667 0 -36s1 -24 2 -35s2.83301 -18.5 5.5 -22.5c2.66699 -4.66699 6.66699 -7.83398 12 -9.50098s10.666 -2.5 15.999 -2.5
c7.33301 0 13.333 1.16699 18 3.5s8.66699 5 12 8s6.33301 5.83301 9 8.5s5.66699 4.33398 9 5.00098c8 2 12 -0.333008 12 -7z" />
    <glyph glyph-name="b" unicode="b" horiz-adv-x="574" 
d="M435 199c0 27.333 -3.66113 53.8311 -10.9941 79.498s-18.5 48.5 -33.5 68.5s-33.833 36 -56.5 48s-49 18 -79 18c-16.667 0 -29.834 -2.16699 -39.501 -6.5s-21.5 -11.166 -35.5 -20.499c-6.66699 -6 -9.83398 -13.333 -9.50098 -22s0.5 -17 0.5 -25v-186
c0 -14.667 1.66699 -28.667 5 -42s9.66602 -25.666 18.999 -36.999c13.333 -15.333 27.333 -27.833 42 -37.5s32 -14.5 52 -14.5c23.333 0 44.166 5.16699 62.499 15.5s33.666 24 45.999 41s21.666 36 27.999 57s9.5 42.167 9.5 63.5zM524.006 228.998
c0 -35.333 -6.83398 -67.6641 -20.501 -96.9971s-32.334 -54.833 -56.001 -76.5s-50.834 -38.5 -81.501 -50.5s-63 -18 -97 -18c-6.66699 0 -12.167 0.166992 -16.5 0.5s-8.5 1 -12.5 2s-8.16699 2.16699 -12.5 3.5l-15.5 5
c-5.33301 1.33301 -13.166 4.66602 -23.499 9.99902s-22.5 8 -36.5 8c-7.33301 0 -13.166 -1.16699 -17.499 -3.5s-8 -5 -11 -8l-9.5 -9.5c-3.33301 -3.33301 -7.66602 -6 -12.999 -8c-8 -4.66699 -14.333 -5.16699 -19 -1.5s-5.33398 9.16699 -2.00098 16.5
c6 24 9.66699 51.833 11 83.5s2 64.5 2 98.5v68c1.33301 64.667 0.833008 128.334 -1.5 191.001s-3.5 126.334 -3.5 191.001v36c0 16 -3.16699 27.333 -9.5 34s-13.166 11.5 -20.499 14.5s-14.166 5.16699 -20.499 6.5s-9.5 4.66602 -9.5 9.99902s3 9.66602 9 12.999
c18 5.33301 33 10.666 45 15.999s22 10.166 30 14.499s14.833 7.83301 20.5 10.5s11.5 4 17.5 4c9.33301 0 15.166 -3 17.499 -9s3.5 -11.333 3.5 -16c0 -9.33301 -0.833008 -19 -2.5 -29s-2.5 -19.667 -2.5 -29c-0.666992 -50 0 -100 2 -150s2.33301 -101 1 -153l33.5 22.5
c10.333 7 20.666 13 30.999 18s21.333 9 33 12s24.834 4.5 39.501 4.5c31.333 0 60.333 -6.66699 87 -20s49.667 -31 69 -53s34.5 -47 45.5 -75s16.5 -57 16.5 -87z" />
    <glyph glyph-name="c" unicode="c" horiz-adv-x="458" 
d="M420 391c0.666992 -11.333 -2.66504 -20.1719 -9.99805 -26.5049s-16.333 -9.5 -27 -9.5s-20.334 4 -29.001 12s-17.334 16.833 -26.001 26.5s-18 18.5 -28 26.5s-21.667 12 -35 12c-25.333 0 -46.666 -6.16699 -63.999 -18.5s-31.5 -28.166 -42.5 -47.499
s-18.833 -40.5 -23.5 -63.5s-7 -45.5 -7 -67.5c0 -24 3 -47.667 9 -71s15.333 -44.166 28 -62.499s28.667 -33.166 48 -44.499s42.333 -17 69 -17h22c17.333 0 33.666 3.66699 48.999 11s29.666 16.333 42.999 27l9.5 7.5c3 2.33301 6.16699 4.5 9.5 6.5
c4 -3.33301 6 -7.33301 6 -12c0 -6 -2.33301 -12 -7 -18l-12 -16c-4 -5.33301 -9.5 -10.833 -16.5 -16.5s-14.667 -11.167 -23 -16.5s-16.666 -10 -24.999 -14s-15.5 -7 -21.5 -9c-23.333 -7.33301 -45 -11 -65 -11c-31.333 0 -59.5 6.16699 -84.5 18.5s-46.167 29 -63.5 50
s-30.5 45.167 -39.5 72.5s-13.5 56.333 -13.5 87c-0.666992 34 4.33301 66.333 15 97s26.167 57.834 46.5 81.501s44.666 42.5 72.999 56.5s59.833 21 94.5 21c10.667 0 24.167 -1 40.5 -3s31.833 -5.66699 46.5 -11s27.334 -12.666 38.001 -21.999s16 -21.333 16 -36z" />
    <glyph glyph-name="d" unicode="d" horiz-adv-x="587" 
d="M398 181c0 24.667 0.166016 51.001 0.499023 79.001s-2.33398 54 -8.00098 78s-15.667 43.833 -30 59.5s-36.166 23.5 -65.499 23.5c-27.333 0 -50.833 -5.33301 -70.5 -16s-36.167 -24.834 -49.5 -42.501s-23.166 -38 -29.499 -61s-9.5 -46.833 -9.5 -71.5
c0 -26 3.83301 -50.667 11.5 -74s18.667 -44 33 -62s32.333 -32.167 54 -42.5s46.5 -15.5 74.5 -15.5c4.66699 0 11.5 1.66699 20.5 5s18.167 7.33301 27.5 12s17.833 9.5 25.5 14.5s12.5 9.5 14.5 13.5c-0.666992 17.333 -0.666992 34.5 0 51.5s1 33.167 1 48.5z
M551.999 27.001c0 -4 -1.66797 -7.66602 -5.00098 -10.999c-2 -2 -9.5 -5 -22.5 -9s-27.333 -8 -43 -12s-30.667 -7.5 -45 -10.5s-23.5 -4.5 -27.5 -4.5s-6.33301 0.333008 -7 1c-3.33301 4 -5 10 -5 18c0 5.33301 0.333008 10.333 1 15s1 9.66699 1 15
c0 2.66699 -0.166992 5.66699 -0.5 9s-2.16602 5.66602 -5.49902 6.99902c-5.33301 -2.66699 -10.5 -6 -15.5 -10s-10.167 -7.66699 -15.5 -11c-24 -13.333 -43.833 -23 -59.5 -29s-32.834 -9 -51.501 -9c-28.667 0 -55.167 5.66699 -79.5 17s-45.5 26.666 -63.5 45.999
s-32.167 41.5 -42.5 66.5s-15.5 51.5 -15.5 79.5c0 34.667 6 67.5 18 98.5s28.833 58 50.5 81s47.334 41.167 77.001 54.5s62.5 20 98.5 20c11.333 0 20.833 -0.5 28.5 -1.5s14.834 -2.5 21.501 -4.5s13.667 -4.5 21 -7.5s16.333 -6.5 27 -10.5
c3.33301 3.33301 5.33301 7 6 11s1 8 1 12c0 26 0.5 52 1.5 78s1.5 51.667 1.5 77c0 13.333 0.166992 26.333 0.5 39s-0.166992 25.667 -1.5 39c-1.33301 14 -4.66602 22.833 -9.99902 26.5s-14 7.5 -26 11.5c-4 1.33301 -9.83301 3.83301 -17.5 7.5
s-11.5 8.16699 -11.5 13.5c0 3.33301 2.16699 6.83301 6.5 10.5s8.5 5.83398 12.5 6.50098c13.333 1.33301 26.666 3.33301 39.999 6s25.333 5.5 36 8.5l27.5 7.5c7.66699 2 12.5 3 14.5 3c2.66699 0 4.66699 -1.16699 6 -3.5s2 -4.5 2 -6.5v-92
c0 -13.333 -0.333008 -26.833 -1 -40.5s-1 -27.167 -1 -40.5c0 -84 -0.666992 -166.333 -2 -247s-2 -163 -2 -247v-15c0 -8 0.5 -17.333 1.5 -28s3.16699 -17.667 6.5 -21c4 -4 10.333 -6 19 -6c6 0 11.833 0.5 17.5 1.5s11.5 2.16699 17.5 3.5
c3.33301 -1.33301 6.66602 -2.5 9.99902 -3.5s5 -4.16699 5 -9.5z" />
    <glyph glyph-name="e" unicode="e" horiz-adv-x="459" 
d="M334 350c0 11.333 -2.5 22.3311 -7.5 32.998s-11.5 20 -19.5 28s-17.167 14.333 -27.5 19s-20.833 7 -31.5 7c-14 0 -27.667 -3.5 -41 -10.5s-25.166 -16.167 -35.499 -27.5s-18.5 -24.166 -24.5 -38.499s-9 -28.5 -9 -42.5c0 -2.66699 2.16699 -4.5 6.5 -5.5
s9.33301 -1.66699 15 -2s11.167 -0.333008 16.5 0s8.66602 0.5 9.99902 0.5c18.667 0 34.167 -0.166992 46.5 -0.5s27.5 0.166992 45.5 1.5c8 0.666992 15.333 1.33398 22 2.00098s12.5 2 17.5 4s9 5.5 12 10.5s4.5 12.167 4.5 21.5zM417 300.998
c0 -8.66699 -1.33691 -15.333 -4.00391 -20c-3.33301 -0.666992 -6.83301 -1.16699 -10.5 -1.5s-7.16699 -0.5 -10.5 -0.5h-249c-2.66699 0 -6 -0.666992 -10 -2c-2 0 -3.33301 -2.66699 -4 -8s-1 -10.666 -1 -15.999v-8c0.666992 -27.333 3.83398 -53.333 9.50098 -78
s14.834 -46.334 27.501 -65.001s29.334 -33.5 50.001 -44.5s46.334 -16.5 77.001 -16.5c12.667 0 23.834 1 33.501 3s18.667 5 27 9s16.666 9 24.999 15l27.5 20c0.666992 0.666992 3.33398 1 8.00098 1s7 -2 7 -6c0 -3.33301 -1.83301 -7.66602 -5.5 -12.999
s-7.83398 -10.666 -12.501 -15.999s-9.5 -10.333 -14.5 -15s-8.83301 -8 -11.5 -10c-20.667 -17.333 -40.667 -29.833 -60 -37.5s-42.333 -11.5 -69 -11.5c-31.333 0 -59 5.5 -83 16.5s-44.333 26.333 -61 46s-29.334 42.5 -38.001 68.5s-13.334 54 -14.001 84
c-0.666992 31.333 2.33301 63 9 95s17.667 60.833 33 86.5s35.5 46.667 60.5 63s55.167 24.5 90.5 24.5c40 0 74.167 -8.5 102.5 -25.5s48.5 -45.5 60.5 -85.5c2.66699 -8.66699 4.83398 -17.334 6.50098 -26.001s2.83398 -17.334 3.50098 -26.001z" />
    <glyph glyph-name="f" unicode="f" horiz-adv-x="337" 
d="M444 721c2 -8 0.832031 -15.667 -3.50098 -23s-10.166 -13.166 -17.499 -17.499s-15.166 -6.83301 -23.499 -7.5s-15.166 1.33301 -20.499 6c-4 2.66699 -7.16699 7.66699 -9.5 15s-6.66602 14.5 -12.999 21.5s-16.166 13.333 -29.499 19s-33 8.5 -59 8.5
c-14 0 -26 -4.33301 -36 -13s-18.333 -19.834 -25 -33.501s-12 -29.167 -16 -46.5s-7 -34.833 -9 -52.5s-3.33301 -34.5 -4 -50.5s-1 -29.667 -1 -41v-14c0 -8 0.166992 -17 0.5 -27s2.16602 -16.667 5.49902 -20h112c8.66699 0 15 -2 19 -6
c0 -3.33301 0.166992 -6.33301 0.5 -9s0.5 -5.66699 0.5 -9c0 -7.33301 -1.66699 -13.666 -5 -18.999c-3.33301 -0.666992 -7 -1.16699 -11 -1.5s-8 -0.5 -12 -0.5h-62h-20c-6 0 -12.333 -0.333008 -19 -1c-4.66699 -4.66699 -6.83398 -12 -6.50098 -22s0.5 -18 0.5 -24
c0 -46 -0.166992 -91.5 -0.5 -136.5s-0.5 -90.5 -0.5 -136.5c0 -14.667 2.33301 -25.667 7 -33s10.667 -12.833 18 -16.5s16 -6 26 -7s20.667 -2.5 32 -4.5c2.66699 -2.66699 4 -6.33398 4 -11.001s-1.66699 -7.66699 -5 -9l-1 -3c-4.66699 -2.66699 -11 -4 -19 -4
c-12.667 0 -25.334 1 -38.001 3s-25.334 3 -38.001 3c-19.333 0 -38.666 -1 -57.999 -3s-38.666 -3 -57.999 -3c-3.33301 0 -8.5 0.333008 -15.5 1s-10.5 3.66699 -10.5 9c0 9.33301 4 15 12 17l27 6.5c10 2.33301 19 7 27 14s12 20.167 12 39.5v290
c0 8.66699 -1 17.667 -3 27c-16 2 -31.667 3 -47 3c-5.33301 0 -11.333 0.666992 -18 2s-10 5.66602 -10 12.999c0 2.66699 0.166992 5.83398 0.5 9.50098s1.16602 6.83398 2.49902 9.50098c2 3.33301 6.16699 5.66602 12.5 6.99902s13.333 2.5 21 3.5
s15.334 1.83301 23.001 2.5s13.5 2 17.5 4c2 26 3.16699 52 3.5 78s3.83301 51.667 10.5 77c6 25.333 15.167 49.5 27.5 72.5s27.333 43.167 45 60.5s38 31 61 41s48.167 14.667 75.5 14c14 0 28.167 -1 42.5 -3s27.166 -5.83301 38.499 -11.5s20.666 -13.167 27.999 -22.5
s11.333 -21 12 -35z" />
    <glyph glyph-name="g" unicode="g" horiz-adv-x="515" 
d="M340 313c-2 16.667 -5.16406 32.168 -9.49707 46.501s-10.666 26.5 -18.999 36.5s-19.333 17.333 -33 22s-30.5 6 -50.5 4c-17.333 -2 -31.5 -7.33301 -42.5 -16s-19.833 -18.834 -26.5 -30.501s-11.167 -23.834 -13.5 -36.501s-3.16602 -23.667 -2.49902 -33
c1.33301 -15.333 4.16602 -30.666 8.49902 -45.999s10.666 -28.833 18.999 -40.5s19.166 -20.667 32.499 -27s29.333 -8.5 48 -6.5c19.333 2 35.166 6.33301 47.499 13s21.666 15.5 27.999 26.5s10.5 23.833 12.5 38.5s2.33301 31 1 49zM442.003 -123.999
c0 40 -13.6689 69.167 -41.002 87.5s-68 27.166 -122 26.499c-50 0 -88.833 -10.833 -116.5 -32.5s-41.5 -54.5 -41.5 -98.5c0 -14 4.33301 -27.167 13 -39.5s20 -23.166 34 -32.499s29.833 -16.666 47.5 -21.999s35.167 -8 52.5 -8c20.667 0 41.334 3 62.001 9
s39.334 14.333 56.001 25s30.167 23.167 40.5 37.5s15.5 30.166 15.5 47.499zM42.001 -132.999c0 7.33301 2.00098 16.334 6.00098 27.001s10.667 22 20 34s21.5 24.167 36.5 36.5s33.833 24.166 56.5 35.499c-38 -3.33301 -66.833 2 -86.5 16s-29.5 32 -29.5 54
c-0.666992 9.33301 3.66602 18.833 12.999 28.5s21 18.5 35 26.5s29 15.167 45 21.5s30.333 10.833 43 13.5c-15.333 8 -30 16.5 -44 25.5s-26.333 19.167 -37 30.5s-19 24.166 -25 38.499s-9 30.5 -9 48.5c0 24.667 4.83301 46.667 14.5 66s22.5 35.5 38.5 48.5
s34.5 23 55.5 30s43.167 10.5 66.5 10.5c18 0 34.833 -2.66699 50.5 -8s31.834 -11.666 48.501 -18.999c8 -3.33301 15.5 -7.33301 22.5 -12s15.833 -9.66699 26.5 -15c13.333 -6.66699 27 -8.66699 41 -6s28.667 4 44 4c7.33301 0 12 -3.16699 14 -9.5s3 -12.166 3 -17.499
c0 -6.66699 -2.5 -11.5 -7.5 -14.5s-11 -4.83301 -18 -5.5s-14.5 -0.833984 -22.5 -0.500977s-15 0.5 -21 0.5c-5.33301 0 -7.5 -0.333008 -6.5 -1s-0.5 -2.66699 -4.5 -6c1.33301 -7.33301 2.33301 -13.333 3 -18s1 -11 1 -19c0 -7.33301 -0.333008 -13.166 -1 -17.499
s-2.33398 -10.166 -5.00098 -17.499c-9.33301 -32 -26 -58.833 -50 -80.5s-53 -34.834 -87 -39.501c-10.667 -1.33301 -24.167 -3.5 -40.5 -6.5s-32 -7 -47 -12s-27.833 -11.5 -38.5 -19.5s-16 -17.333 -16 -28c0 -13.333 5.66699 -22.5 17 -27.5s25.333 -7.66699 42 -8
s34.5 0.666992 53.5 3s36.5 4.16602 52.5 5.49902c24.667 2 49.5 0.166992 74.5 -5.5s47.333 -15.167 67 -28.5s35.667 -30.5 48 -51.5s18.5 -45.5 18.5 -73.5c0.666992 -40.667 -7.16602 -73.5 -23.499 -98.5s-37.333 -44.333 -63 -58s-53.667 -22.834 -84 -27.501
s-59.5 -7 -87.5 -7c-27.333 0 -53.5 4 -78.5 12s-46.833 18.833 -65.5 32.5s-33.334 29.834 -44.001 48.501s-15.667 39 -15 61z" />
    <glyph glyph-name="h" unicode="h" horiz-adv-x="581" 
d="M553 11c0 -4 -0.670898 -6.66797 -2.00391 -8.00098h-1c-1.33301 -5.33301 -3.16602 -8.5 -5.49902 -9.5s-6.16602 -1.5 -11.499 -1.5c-14.667 0 -29.167 1 -43.5 3s-28.833 3 -43.5 3c-15.333 0 -30.166 -1 -44.499 -3s-29.166 -3 -44.499 -3
c-6 0 -12.5 0.333008 -19.5 1s-10.5 5 -10.5 13c0 6.66699 3.83301 10.5 11.5 11.5s16.167 2.5 25.5 4.5s17.833 6.5 25.5 13.5s11.5 20.167 11.5 39.5v249c0 28 -9.83301 48.5 -29.5 61.5s-42.5 19.5 -68.5 19.5c-53.333 0 -90.333 -25.333 -111 -76
c0 -44 -0.333008 -87.667 -1 -131s-1 -87 -1 -131c0 -14 2.83301 -23.833 8.5 -29.5s12.667 -9.5 21 -11.5s17.166 -3.33301 26.499 -4s18 -3.33398 26 -8.00098c1.33301 -5.33301 2 -8.33301 2 -9c0 -7.33301 -2.66699 -11.333 -8 -12s-10.666 -1 -15.999 -1
c-15.333 0 -30.5 1 -45.5 3s-30.167 3 -45.5 3h-28c-4.66699 0 -9.16699 -0.166992 -13.5 -0.5s-8.83301 -0.833008 -13.5 -1.5c-8 -0.666992 -16.167 -1.5 -24.5 -2.5s-16.5 -1.5 -24.5 -1.5c-5.33301 0 -10 0.5 -14 1.5s-6 4.83301 -6 11.5
c0 4.66699 2.33301 8.33398 7 11.001s10.167 4.66699 16.5 6s12.666 2.5 18.999 3.5s11.166 2.5 14.499 4.5c8.66699 5.33301 14.167 14.166 16.5 26.499s3.5 23.166 3.5 32.499v575c0 10 -3.5 18 -10.5 24s-14.5 11 -22.5 15s-15.5 7.5 -22.5 10.5s-10.5 6.5 -10.5 10.5
c0 3.33301 1.5 6.33301 4.5 9s6.16699 4.33398 9.5 5.00098c12 1.33301 28.333 5.83301 49 13.5l71 27.5c2.66699 0.666992 5.33398 -1 8.00098 -5c0.666992 -1.33301 1.16699 -7.66602 1.5 -18.999s0.5 -25.333 0.5 -42s0.166992 -35 0.5 -55s0.5 -39 0.5 -57v-210
c0 -2.66699 0.666992 -6 2 -10l33.5 30c11 10 22.5 18.833 34.5 26.5s24.833 13.834 38.5 18.501s28.834 7 45.501 7c30 0 54 -5 72 -15s31.833 -23.5 41.5 -40.5s15.834 -36.833 18.501 -59.5s4 -46.334 4 -71.001v-187c0 -3.33301 0.333008 -6.83301 1 -10.5
s1 -7.16699 1 -10.5c0 -5.33301 0.5 -11.166 1.5 -17.499s3.5 -11.5 7.5 -15.5c3.33301 -3.33301 8.16602 -6.16602 14.499 -8.49902s12.833 -4.33301 19.5 -6s12.5 -3.33398 17.5 -5.00098s8.16699 -3.5 9.5 -5.5z" />
    <glyph glyph-name="i" unicode="i" horiz-adv-x="313" 
d="M212 694c0 -14.667 -5.66699 -27.167 -17 -37.5s-24 -15.5 -38 -15.5c-15.333 0 -28.166 5.16699 -38.499 15.5s-15.5 23.166 -15.5 38.499c0 14 5.66699 26.333 17 37s24 16 38 16c15.333 0 28.166 -5.16699 38.499 -15.5s15.5 -23.166 15.5 -38.499zM274 5
c0 -7.33301 -3.50293 -11.3291 -10.5029 -11.9961s-12.833 -1 -17.5 -1c-12 0 -23.833 0.833008 -35.5 2.5s-23.167 2.5 -34.5 2.5c-17.333 0 -35 -0.833008 -53 -2.5s-35.667 -2.5 -53 -2.5h-11c-5.33301 0 -10.333 0.666992 -15 2s-7 5.66602 -7 12.999
c0 2 0.666992 3.66699 2 5l4 4c6 4.66699 12.833 7.5 20.5 8.5l22.5 3c7.33301 1 13.833 3.33301 19.5 7s9.5 10.834 11.5 21.501c1.33301 6.66699 2 11.334 2 14.001v15c0.666992 21.333 0.833984 42.166 0.500977 62.499s-0.166016 41.166 0.500977 62.499
c0.666992 16 1.5 31.833 2.5 47.5s1.5 31.5 1.5 47.5c0 8 -0.5 17.667 -1.5 29s-4.16699 20.333 -9.5 27c-3.33301 4 -8 7.33301 -14 10l-17.5 7.5c-5.66699 2.33301 -10.667 4.66602 -15 6.99902s-6.5 5.16602 -6.5 8.49902s2 6.33301 6 9s8.83301 5.16699 14.5 7.5
s11.167 4.33301 16.5 6s9.33301 2.83398 12 3.50098c4.66699 1.33301 11.334 4.33301 20.001 9l26.5 14.5l24.5 13.5c7.33301 4 12.333 6 15 6c4 0 6 -1.66699 6 -5c0 -10 -0.166992 -19.833 -0.5 -29.5s-0.833008 -19.5 -1.5 -29.5
c-0.666992 -20 -1.16699 -40.167 -1.5 -60.5s-0.5 -40.5 -0.5 -60.5c0 -24.667 0.166992 -49.167 0.5 -73.5s0.833008 -48.833 1.5 -73.5c0 -11.333 -0.166992 -22.833 -0.5 -34.5s0.166992 -23.167 1.5 -34.5c1.33301 -14 5.83301 -23.333 13.5 -28
s16 -7.83398 25 -9.50098s17.167 -3.33398 24.5 -5.00098s11 -6.5 11 -14.5z" />
    <glyph glyph-name="j" unicode="j" horiz-adv-x="270" 
d="M194 697c0 -15.333 -5.16699 -28.333 -15.5 -39s-23.166 -16 -38.499 -16c-14 0 -26.333 5.33301 -37 16s-16 23 -16 37c0 15.333 5 28.333 15 39s22.667 16 38 16s28.166 -5 38.499 -15s15.5 -22.667 15.5 -38zM185 432c0 -60 -0.166016 -119.171 -0.499023 -177.504
s-0.5 -117.5 -0.5 -177.5c0 -21.333 -0.5 -43.333 -1.5 -66s-2.83301 -44.667 -5.5 -66c-5.33301 -42 -20.333 -78.5 -45 -109.5s-53.334 -58.167 -86.001 -81.5c-3.33301 -2.66699 -8.5 -6.16699 -15.5 -10.5s-12.833 -6.5 -17.5 -6.5h-2
c-1.33301 2.66699 -2.5 5.16699 -3.5 7.5s-2.5 4.5 -4.5 6.5c1.33301 2.66699 3 5.16699 5 7.5s4 4.83301 6 7.5l33.5 38.5c11 12.333 20.833 26.5 29.5 42.5c9.33301 18 16 36.333 20 55s6.66699 37.834 8 57.501s1.83301 39.334 1.5 59.001s-0.5 39.167 -0.5 58.5
c0 36 0.166992 72.167 0.5 108.5s0.5 72.5 0.5 108.5c0 7.33301 -0.166992 16.833 -0.5 28.5s-2.16602 20.5 -5.49902 26.5c-4 8 -9.5 13.667 -16.5 17s-13.833 5.83301 -20.5 7.5s-12.5 3.33398 -17.5 5.00098s-7.5 5.16699 -7.5 10.5c0 4 1.66699 7.66699 5 11
c4 2.66699 12.5 7.33398 25.5 14.001l41.5 21l40.5 19.5c12.333 5.66699 20.166 8.5 23.499 8.5c4 0 7 -1.33301 9 -4c0 -4.66699 0.166992 -9.16699 0.5 -13.5s0.5 -8.83301 0.5 -13.5z" />
    <glyph glyph-name="k" unicode="k" horiz-adv-x="583" 
d="M573 1c0 -4.66699 -3.33301 -7.33203 -10 -7.99902s-11.334 -1 -14.001 -1c-15.333 0 -30.333 1.16699 -45 3.5s-29.334 3.5 -44.001 3.5c-17.333 0 -34.666 -1.16699 -51.999 -3.5s-34.666 -3.5 -51.999 -3.5h-7c-5.33301 0 -10.333 0.666992 -15 2s-7 5 -7 11
c0 6.66699 3.16699 10.834 9.5 12.501s13.333 3 21 4s14.667 2.83301 21 5.5s9.5 8 9.5 16c0 6.66699 -2.83301 14 -8.5 22s-12.5 16.333 -20.5 25s-16.333 17 -25 25s-16 15.333 -22 22l-19.5 23l-28 33c-9.66699 11.333 -19 21.5 -28 30.5s-15.5 14.167 -19.5 15.5
c-8.66699 -2 -14.834 -2.33301 -18.501 -1s-5.5 -2.33398 -5.5 -11.001v-134c0 -3.33301 0.166992 -7.66602 0.5 -12.999l1 -16.5c0.333008 -5.66699 1.16602 -11.167 2.49902 -16.5s3 -9.33301 5 -12c4.66699 -6 10.334 -9.66699 17.001 -11s13.334 -2.33301 20.001 -3
s12.334 -1.83398 17.001 -3.50098s7 -5.83398 7 -12.501s-3.16699 -10.5 -9.5 -11.5s-11.833 -1.5 -16.5 -1.5c-12.667 0 -25.167 1.16699 -37.5 3.5s-25.166 3.5 -38.499 3.5c-15.333 0 -30.5 -1.33301 -45.5 -4s-30.167 -4 -45.5 -4h-4
c-6.66699 0 -13.5 0.833008 -20.5 2.5s-10.5 6.16699 -10.5 13.5c0 4.66699 2.33301 7.83398 7 9.50098s10.334 3.16699 17.001 4.5s13.667 3.33301 21 6s13.666 7 18.999 13c6 7.33301 10.333 18.5 13 33.5s4.16699 31.333 4.5 49s0.333008 35.167 0 52.5s-0.5 32 -0.5 44
v450c0 12.667 -4 23.167 -12 31.5s-16.5 14.833 -25.5 19.5s-16.667 8.16699 -23 10.5s-7.5 4.16602 -3.5 5.49902l28.5 10.5c8.33301 3 17 6.66699 26 11l30.5 15l44 22.5c2.66699 1.33301 5 1.33301 7 0s3.33301 -3.5 4 -6.5s1.16699 -6.16699 1.5 -9.5s0.5 -6 0.5 -8
c0 -85.333 -0.166992 -169 -0.5 -251s-0.5 -165.667 -0.5 -251c0 -4.66699 2.33301 -7 7 -7c5.33301 0 13.333 3 24 9s22.334 13.5 35.001 22.5s25.5 19 38.5 30s24.833 21.5 35.5 31.5s19.5 18.833 26.5 26.5s10.5 12.834 10.5 15.501c0 6 -3 10.5 -9 13.5
s-12.833 5.5 -20.5 7.5s-14.5 4.33301 -20.5 7s-9 7 -9 13c0 5.33301 3.16699 8.66602 9.5 9.99902s11.5 2 15.5 2c22 0 44.167 -0.666992 66.5 -2s44.5 -2 66.5 -2c8.66699 0 17.167 0.5 25.5 1.5s16.833 1.5 25.5 1.5c5.33301 0 8.66602 -0.333008 9.99902 -1l7 -8
c0 -6.66699 -3.16699 -12 -9.5 -16s-12.166 -6.66699 -17.499 -8c-20 -3.33301 -39 -9.16602 -57 -17.499s-35.333 -18 -52 -29s-32.667 -23 -48 -36l-46 -38.5c-2 -1.33301 -4.83301 -3.5 -8.5 -6.5s-5.83398 -5.83301 -6.50098 -8.5
c1.33301 -2.66699 2.83301 -5.16699 4.5 -7.5s3.5 -4.5 5.5 -6.5v-1c13.333 -13.333 26.166 -26.833 38.499 -40.5l37.5 -41.5c13.333 -14.667 27 -30.5 41 -47.5s28.5 -33.333 43.5 -49s30.167 -29.334 45.5 -41.001s30.666 -19.5 45.999 -23.5
c6 -1.33301 10.667 -3.5 14 -6.5s5 -7.83301 5 -14.5z" />
    <glyph glyph-name="l" unicode="l" horiz-adv-x="316" 
d="M286 8c0 -7.33301 -3.33203 -12.001 -9.99902 -14.001c-0.666992 -0.666992 -2.33398 -1 -5.00098 -1h-4c-15.333 0 -30.833 0.833008 -46.5 2.5s-31.167 2.5 -46.5 2.5c-19.333 0 -38.333 -1 -57 -3s-37.667 -3 -57 -3c-3.33301 0 -8.33301 0.5 -15 1.5
s-10 4.16699 -10 9.5c0 8.66699 2 13.5 6 14.5s10.333 2.83301 19 5.5c11.333 3.33301 22 7.16602 32 11.499s17.333 12.5 22 24.5c2 5.33301 3.33301 12 4 20s1 15 1 21c0 90 0.333008 178.5 1 265.5s1 175.5 1 265.5c0 10 -0.5 20.833 -1.5 32.5s-5.16699 21.5 -12.5 29.5
c-2.66699 2.66699 -6.5 5.33398 -11.5 8.00098l-15 8c-5 2.66699 -9.5 5.33398 -13.5 8.00098s-6 5.66699 -6 9v4c0 1.33301 0.666992 2.33301 2 3c10 2.66699 22.333 6.5 37 11.5s29 10.333 43 16s25.833 10.667 35.5 15s14.5 6.83301 14.5 7.5l6 -4
c0 -9.33301 0.166992 -18.333 0.5 -27s0.5 -17.667 0.5 -27c0 -109.333 -0.166992 -217.333 -0.5 -324s-0.5 -214.667 -0.5 -324c0 -22 5.83301 -35.833 17.5 -41.5s26.5 -9.5 44.5 -11.5c1.33301 -1.33301 2.83301 -1.83301 4.5 -1.5s3.16699 0.5 4.5 0.5
c10.667 0 16 -5 16 -15z" />
    <glyph glyph-name="m" unicode="m" horiz-adv-x="897" 
d="M869 2c0 -5.33301 -3.5 -8.49805 -10.5 -9.49805s-12.167 -1.5 -15.5 -1.5c-18.667 0 -36.334 1 -53.001 3c-5.33301 0.666992 -12.666 1.33398 -21.999 2.00098s-16.666 1 -21.999 1c-20 0 -37.5 -0.666992 -52.5 -2s-32.5 -2 -52.5 -2h-5
c-4.66699 3.33301 -5.33398 10 -2.00098 20c8 3.33301 15 5 21 5c3.33301 0 6.83301 0.166992 10.5 0.5s7.16699 0.833008 10.5 1.5c16.667 2 27 11.333 31 28c3.33301 12.667 5.5 25.667 6.5 39s1.5 26.666 1.5 39.999v172c0 34 -9.66699 59.833 -29 77.5
s-45.333 26.5 -78 26.5c-15.333 0 -28.666 -2.16699 -39.999 -6.5s-23.333 -11.166 -36 -20.499c-5.33301 -3.33301 -11.166 -7.83301 -17.499 -13.5s-11.166 -11.167 -14.499 -16.5c-1.33301 -2 -2.5 -7.16699 -3.5 -15.5s-1.66699 -17.833 -2 -28.5
s-0.666016 -22 -0.999023 -34s-0.5 -22.667 -0.5 -32v-179c0 -9.33301 2.5 -16.333 7.5 -21s11.167 -8.33398 18.5 -11.001s15.166 -4.33398 23.499 -5.00098s15.5 -1.33398 21.5 -2.00098c2.66699 -1.33301 5.16699 -3.33301 7.5 -6s3.5 -5.66699 3.5 -9
c0 -5.33301 -3 -8.33301 -9 -9s-10.667 -1 -14 -1c-6.66699 0 -13.167 0.333008 -19.5 1l-19.5 2c-9.33301 0.666992 -18.833 1.16699 -28.5 1.5s-19.167 0.5 -28.5 0.5h-31c-5.33301 0 -10.333 -0.166992 -15 -0.5s-9.66699 -0.833008 -15 -1.5l-21 -2
c-6.66699 -0.666992 -13.667 -1 -21 -1c-8 0 -13 0.333008 -15 1c-2.66699 2.66699 -4 5.33398 -4 8.00098c0 4.66699 0.333008 8.16699 1 10.5s3.66699 4.16602 9 5.49902c6.66699 1.33301 13.5 2.5 20.5 3.5s13.667 2.5 20 4.5s11.833 5.16699 16.5 9.5s8 10.5 10 18.5
c2.66699 8 4 18.667 4 32c0 34 0.166992 67.333 0.5 100s0.5 66 0.5 100c0 8.66699 -0.166992 17.5 -0.5 26.5s-1.5 17.833 -3.5 26.5c-5.33301 23.333 -18 40 -38 50s-40.667 15 -62 15c-12.667 0 -25.334 -1.66699 -38.001 -5s-24.334 -8.33301 -35.001 -15
s-19.667 -15.167 -27 -25.5s-11.666 -22.5 -12.999 -36.5c-1.33301 -18 -1.83301 -36.167 -1.5 -54.5s-0.166992 -36.5 -1.5 -54.5c-0.666992 -6 -1 -12 -1 -18v-18v-58c0 -11.333 0.333008 -23.166 1 -35.499s2 -22.166 4 -29.499c4 -11.333 10.167 -18.833 18.5 -22.5
s16.833 -6.33398 25.5 -8.00098s16.167 -3.16699 22.5 -4.5s9.5 -5.33301 9.5 -12c0 -7.33301 -3.33301 -11.666 -10 -12.999s-12.667 -2 -18 -2c-11.333 0 -22.833 1 -34.5 3s-23.167 3 -34.5 3c-21.333 0 -43 -1 -65 -3s-43.667 -3 -65 -3c-4 0 -7 2 -9 6
s-3 7.66699 -3 11c0 2.66699 2.5 5.16699 7.5 7.5s10.833 4.16602 17.5 5.49902l19.5 4c6.33301 1.33301 10.833 2.66602 13.5 3.99902c7.33301 4.66699 12.666 12.5 15.999 23.5s5.5 22.667 6.5 35s1.33301 24.666 1 36.999s-0.5 22.166 -0.5 29.499
c0 19.333 0.333008 38.5 1 57.5s1 38.167 1 57.5v19c0 12.667 -0.666992 26.5 -2 41.5s-3.66602 24.5 -6.99902 28.5c-2 2 -5.5 4.33301 -10.5 7l-16 8.5c-5.66699 3 -10.5 6 -14.5 9s-6 5.83301 -6 8.5c0 4.66699 2 8.33398 6 11.001s8.66699 5.33398 14 8.00098
c4.66699 2.66699 12.334 6.83398 23.001 12.501l34 17.5c12 6 23.167 11.333 33.5 16s17.5 7 21.5 7c5.33301 0 8.33301 -3.16699 9 -9.5s1 -11.5 1 -15.5c0 -6.66699 -0.166992 -13.167 -0.5 -19.5s-0.5 -12.833 -0.5 -19.5c0 -6 0.333008 -9.66699 1 -11
c21.333 19.333 44.666 36.666 69.999 51.999s53 23 83 23c12 0 24.167 -1.83301 36.5 -5.5s24.333 -8.66699 36 -15s22.167 -13.833 31.5 -22.5s16.666 -18.334 21.999 -29.001c1.33301 -2.66699 2.5 -5.16699 3.5 -7.5s2.5 -4.5 4.5 -6.5l33 30c11.333 10 23.333 19 36 27
s25.834 14.5 39.501 19.5s28.167 7.5 43.5 7.5c7.33301 0 14.166 -0.5 20.499 -1.5s12.833 -2.16699 19.5 -3.5c21.333 -5.33301 39 -13.5 53 -24.5s25.167 -24.333 33.5 -40s14.166 -32.834 17.499 -51.501s5 -38 5 -58c0 -19.333 -0.333008 -38.666 -1 -57.999
s-1 -38.666 -1 -57.999v-100c0 -19.333 4 -32 12 -38s16.833 -9.66699 26.5 -11s18.5 -2.33301 26.5 -3s12 -5 12 -13z" />
    <glyph glyph-name="n" unicode="n" horiz-adv-x="586" 
d="M177 471c2.66699 0 5.1543 -1.66504 7.4873 -4.99805s3.5 -6 3.5 -8c0 -2.66699 -0.333008 -5.33398 -1 -8.00098s-1 -5.33398 -1 -8.00098v-54l2 -1c2 0.666992 4.66699 2.66699 8 6c22.667 19.333 45.667 35.833 69 49.5s50.333 20.5 81 20.5
c26.667 0 48.834 -4.33301 66.501 -13s31.834 -20.5 42.501 -35.5s18 -33 22 -54s6 -43.5 6 -67.5c0 -13.333 -0.333008 -26.333 -1 -39s-1 -25.667 -1 -39v-146c0 -22.667 6.66699 -36.667 20 -42s29.666 -8 48.999 -8c3.33301 0 5.5 -1.5 6.5 -4.5s1.5 -6.16699 1.5 -9.5
c0 -2.66699 -0.5 -5.33398 -1.5 -8.00098s-3.83301 -4 -8.5 -4c-9.33301 0 -18.5 0.5 -27.5 1.5s-18.167 1.5 -27.5 1.5h-75c-5.33301 0 -10.666 -0.166992 -15.999 -0.5s-10.666 -0.833008 -15.999 -1.5s-10.666 -1.16699 -15.999 -1.5s-10.666 -0.5 -15.999 -0.5
c-4 0 -9.83301 0.5 -17.5 1.5s-11.5 4.5 -11.5 10.5c0 6.66699 2.66699 11.167 8 13.5s11.833 4 19.5 5s15.334 2.33301 23.001 4s13.834 5.5 18.501 11.5c5.33301 6.66699 8.33301 15.667 9 27s1 21 1 29c0.666992 14.667 1 29 1 43v43v86
c0 17.333 -0.833008 34.333 -2.5 51s-5.66699 31.5 -12 44.5s-15.833 23.5 -28.5 31.5s-29.667 12 -51 12c-15.333 0 -29.166 -2.16699 -41.499 -6.5s-25.166 -10.166 -38.499 -17.499l-22.5 -13c-9 -5.33301 -15.167 -11.333 -18.5 -18
c-1.33301 -4 -2.5 -10.167 -3.5 -18.5s-1.83301 -17.833 -2.5 -28.5s-1 -21.667 -1 -33v-32v-163c0 -13.333 3 -24.333 9 -33c7.33301 -10 15.833 -15.667 25.5 -17s19.167 -2 28.5 -2c5.33301 0 10.666 -1 15.999 -3c4 -1.33301 6 -5 6 -11
c0 -5.33301 -1.33301 -9.33301 -4 -12c-5.33301 -2 -8.83301 -3.16699 -10.5 -3.5s-5.5 -0.5 -11.5 -0.5c-14.667 0 -29 0.833008 -43 2.5s-28 2.5 -42 2.5c-17.333 0 -34.166 -0.833008 -50.499 -2.5s-33.166 -2.5 -50.499 -2.5c-5.33301 0 -9.83301 0.833008 -13.5 2.5
s-5.5 5.5 -5.5 11.5c0 4 2.33301 7.16699 7 9.5s10.334 4.33301 17.001 6s13.167 3.66699 19.5 6s11.166 5.5 14.499 9.5c5.33301 7.33301 8.83301 17.5 10.5 30.5s2.5 24.167 2.5 33.5v206c0 16 -1.33301 29.667 -4 41c-1.33301 7.33301 -4.83301 13 -10.5 17
s-11.667 7.16699 -18 9.5s-12 4.33301 -17 6s-7.5 4.5 -7.5 8.5v2c2.66699 4.66699 6.33398 8.66699 11.001 12c2.66699 2 9.83398 6.66699 21.501 14s24.334 14.833 38.001 22.5l37 21c11 6.33301 17.167 9.5 18.5 9.5z" />
    <glyph glyph-name="o" unicode="o" horiz-adv-x="578" 
d="M435 209c0 18.667 -1.50195 37.998 -4.50195 57.998s-7.83301 39.333 -14.5 58s-15.667 35.834 -27 51.501s-25.333 28.834 -42 39.501c-9.33301 6.66699 -19.666 10.667 -30.999 12s-22.666 2 -33.999 2c-25.333 0 -47 -6.16699 -65 -18.5s-32.667 -28 -44 -47
s-19.5 -40 -24.5 -63s-7.5 -44.833 -7.5 -65.5c0 -23.333 2.66699 -48 8 -74s14 -50 26 -72s27.833 -40.167 47.5 -54.5s43.5 -21.5 71.5 -21.5c26.667 0 49 6 67 18s32.5 27.5 43.5 46.5s18.833 40 23.5 63s7 45.5 7 67.5zM527.998 227.998
c0 -34 -5.83105 -66.166 -17.498 -96.499s-27.834 -56.833 -48.501 -79.5s-45.667 -40.667 -75 -54s-61.333 -20 -96 -20c-35.333 0 -67.833 5.66699 -97.5 17s-55.167 27.5 -76.5 48.5s-37.833 46 -49.5 75s-17.5 61.5 -17.5 97.5c0 34 5.83301 66 17.5 96
s28 56.167 49 78.5s46 40.166 75 53.499s60.833 20 95.5 20c50 0 94.833 -13 134.5 -39s69.167 -62.333 88.5 -109c5.33301 -14 9.66602 -28.333 12.999 -43s5 -29.667 5 -45z" />
    <glyph glyph-name="p" unicode="p" horiz-adv-x="585" 
d="M457 206c0 25.333 -4.33008 49.333 -12.9971 72s-20.834 42.667 -36.501 60s-34.334 31 -56.001 41s-45.5 15 -71.5 15c-6 0 -14.333 -0.666992 -25 -2s-21 -3.5 -31 -6.5s-18.833 -7.16699 -26.5 -12.5s-11.5 -12 -11.5 -20v-117c0 -8 -0.166992 -20.167 -0.5 -36.5
s-0.333008 -33.5 0 -51.5s1.16602 -34.667 2.49902 -50s3.33301 -25.666 6 -30.999c4 -7.33301 9.83301 -13.666 17.5 -18.999s16 -9.83301 25 -13.5s18.333 -6.5 28 -8.5s18.167 -3 25.5 -3c26.667 0 50.334 4.83301 71.001 14.5s38.167 22.667 52.5 39
s25.166 35.666 32.499 57.999s11 46.166 11 71.499zM535.003 240c0 -34 -5.82422 -66.002 -17.4912 -96.002s-27.834 -56.5 -48.501 -79.5s-45.334 -41.333 -74.001 -55s-59.667 -20.834 -93 -21.501c-13.333 0 -24.333 0.666992 -33 2s-16.334 2.83301 -23.001 4.5
s-13.334 3.16699 -20.001 4.5s-14.667 2 -24 2c-8 0 -12.833 -3.5 -14.5 -10.5s-2.5 -14.5 -2.5 -22.5v-13c0 -24 0.333008 -48.167 1 -72.5s1 -48.5 1 -72.5v-9c0 -4 0.333008 -7 1 -9c0.666992 -3.33301 1.16699 -6.16602 1.5 -8.49902s1.5 -4.83301 3.5 -7.5
c3.33301 -5.33301 9.16602 -9 17.499 -11s17.166 -3.5 26.499 -4.5s17.833 -1.66699 25.5 -2s12.5 -1.16602 14.5 -2.49902c3.33301 -3.33301 5 -7 5 -11c0 -7.33301 -3.5 -11.833 -10.5 -13.5s-13.167 -2.5 -18.5 -2.5c-16 0 -32.167 1 -48.5 3s-32.5 3 -48.5 3
c-18 0 -35.833 -1.16699 -53.5 -3.5s-35.5 -3.5 -53.5 -3.5c-8.66699 0 -16 0.5 -22 1.5s-9 6.83301 -9 17.5c0 3.33301 3.16699 6 9.5 8s13.5 4 21.5 6s16.167 4.33301 24.5 7s14.5 6.33398 18.5 11.001c6.66699 3.33301 10.5 8.83301 11.5 16.5s1.5 15.834 1.5 24.501v13
c0 78.667 0.833008 156.834 2.5 234.501s2.5 155.834 2.5 234.501v18v9c0 3.33301 -0.333008 6.66602 -1 9.99902c-1.33301 16 -5.5 27.167 -12.5 33.5s-14.5 10.666 -22.5 12.999s-15.167 4.33301 -21.5 6s-9.5 6.16699 -9.5 13.5c0 2 2.16699 4 6.5 6
s7.16602 3.66699 8.49902 5c13.333 6 26.666 11.167 39.999 15.5s26.666 9.83301 39.999 16.5c2 1.33301 5.16699 3.33301 9.5 6l13.5 8.5c4.66699 3 9 5.66699 13 8s7 3.5 9 3.5c4 0 6.5 -2.16699 7.5 -6.5s1.5 -7.83301 1.5 -10.5c0 -7.33301 -0.666992 -14.5 -2 -21.5
s-2 -14.167 -2 -21.5c0 -6.66699 1.33301 -11.334 4 -14.001c0.666992 0 1.16699 -0.166992 1.5 -0.5s1.16602 -0.5 2.49902 -0.5c3.33301 0 6.16602 0.833008 8.49902 2.5s4.83301 3.16699 7.5 4.5c8 5.33301 17.167 10.5 27.5 15.5s21 9.5 32 13.5s22 7.33301 33 10
s21.167 4 30.5 4c29.333 0 56.333 -5.5 81 -16.5s45.834 -26 63.501 -45s31.334 -41.167 41.001 -66.5s14.5 -52.333 14.5 -81z" />
    <glyph glyph-name="q" unicode="q" horiz-adv-x="583" 
d="M410 243c0 22.667 -0.999023 44.4971 -2.99902 65.4971s-6.83301 39.5 -14.5 55.5s-19.334 28.667 -35.001 38s-37.167 14 -64.5 14c-26 0 -48.667 -5.33301 -68 -16s-35.5 -24.667 -48.5 -42s-22.667 -37.166 -29 -59.499s-9.5 -45.166 -9.5 -68.499
c0 -44 9.5 -83 28.5 -117s50.5 -58.333 94.5 -73c18 -6 36.333 -9 55 -9c7.33301 0 15.833 0.833008 25.5 2.5s19.167 4.33398 28.5 8.00098s17.5 8.5 24.5 14.5s11.5 13.333 13.5 22c1.33301 6.66699 1.83301 13.334 1.5 20.001s-0.5 13.334 -0.5 20.001
c0 21.333 0.166992 42.166 0.5 62.499s0.5 41.166 0.5 62.499zM558.001 -260.003c0 -6 -3.33105 -9.66602 -9.99805 -10.999s-12 -2 -16 -2s-8 0.166992 -12 0.5s-8 0.833008 -12 1.5c-13.333 1.33301 -26.833 2.33301 -40.5 3s-27.167 1 -40.5 1h-20h-10
c-2.66699 0 -5.66699 -0.333008 -9 -1c-8.66699 -0.666992 -17 -1.66699 -25 -3s-16.333 -2 -25 -2c-5.33301 0 -10.333 0.333008 -15 1s-7 4.33398 -7 11.001s3.16699 11.167 9.5 13.5s13.833 4.33301 22.5 6s17.667 4.5 27 8.5s16.666 11 21.999 21
c7.33301 13.333 10.666 29 9.99902 47s-1 34.333 -1 49c0 14 0.166992 28 0.5 42s0.5 28 0.5 42v33c0 13.333 -1.33301 24 -4 32c-2.66699 -1.33301 -5.16699 -3 -7.5 -5s-4.83301 -3.66699 -7.5 -5c-16.667 -11.333 -34.334 -20.5 -53.001 -27.5s-38 -10.5 -58 -10.5
c-31.333 0 -60.666 5.5 -87.999 16.5s-51.333 26.333 -72 46s-37 43 -49 70s-18 56.167 -18 87.5c0 36 6.16699 69 18.5 99s32.5 56.667 60.5 80c22 19.333 48.333 35.666 79 48.999s61 20 91 20h21c9.33301 0 19.333 -1.33301 30 -4s21 -5.83398 31 -9.50098
s19.167 -6.83398 27.5 -9.50098s15.166 -4 20.499 -4c1.33301 0 4.33301 0.666992 9 2s7.66699 2.33301 9 3c0.666992 2 2.33398 4.83301 5.00098 8.5s5.5 7.33398 8.5 11.001s6 6.83398 9 9.50098s5.16699 4 6.5 4c4.66699 0 10 -1.33301 16 -4
c2.66699 -13.333 2.66699 -26.833 0 -40.5s-4 -27.834 -4 -42.501c0 -10.667 0.166992 -21 0.5 -31s0.5 -20.333 0.5 -31c0 -42 -0.333008 -83.833 -1 -125.5s-1 -83.5 -1 -125.5v-237c0 -7.33301 0.166992 -14.833 0.5 -22.5s1.5 -15.167 3.5 -22.5
c2.66699 -8.66699 7.66699 -14.667 15 -18s14.833 -5.83301 22.5 -7.5s14.5 -3.5 20.5 -5.5s9 -5.66699 9 -11z" />
    <glyph glyph-name="r" unicode="r" horiz-adv-x="422" 
d="M408 379c0 -7.33301 -1.33105 -14.5068 -3.99805 -21.5068s-6.83398 -12.5 -12.501 -16.5s-12.834 -5.83301 -21.501 -5.5s-18.667 4.5 -30 12.5c-5.33301 3.33301 -8.83301 8.33301 -10.5 15s-3.5 13.334 -5.5 20.001s-4.66699 12.5 -8 17.5s-9.33301 7.5 -18 7.5
c-14 0 -27.333 -2.5 -40 -7.5s-24 -11.333 -34 -19s-18 -16.5 -24 -26.5s-9 -20 -9 -30v-243c0 -5.33301 0.333008 -9.66602 1 -12.999c1.33301 -11.333 4.83301 -20.333 10.5 -27s12.5 -11.667 20.5 -15s16.833 -5.33301 26.5 -6s19.167 -1 28.5 -1c6 0 9 -6 9 -18
c0 -4.66699 -1.83301 -7.5 -5.5 -8.5s-7.16699 -1.5 -10.5 -1.5c-16.667 0 -33.167 1.16699 -49.5 3.5s-32.833 3.5 -49.5 3.5c-18.667 0 -37.334 -1.16699 -56.001 -3.5s-37.334 -3.5 -56.001 -3.5c-4 0 -8.83301 1 -14.5 3s-8.5 6 -8.5 12
c0 6.66699 3.33301 10.834 10 12.501s14 3.33398 22 5.00098s15.833 4.5 23.5 8.5s12.5 11.667 14.5 23c2.66699 13.333 4.33398 26.666 5.00098 39.999s1 26.666 1 39.999c0 26 -0.166992 50 -0.5 72s-0.5 46 -0.5 72c0 8.66699 -0.166992 17.667 -0.5 27
s-2.16602 18 -5.49902 26c-2.66699 8 -6.66699 14 -12 18s-10.5 7.33301 -15.5 10s-9.66699 5.33398 -14 8.00098s-6.83301 6.66699 -7.5 12c1.33301 3.33301 3.66602 6 6.99902 8s6.33301 3.66699 9 5l19.5 10c6.33301 3.33301 12.833 7 19.5 11
c4.66699 2.66699 10 6.33398 16 11.001l18 14c6 4.66699 12 8.83398 18 12.501s11.333 5.83398 16 6.50098c2 0.666992 3.66699 0.5 5 -0.5s2.66602 -1.83301 3.99902 -2.5c1.33301 -2.66699 2.33301 -6.66699 3 -12s1 -11.333 1 -18v-31
c0.666992 2.66699 5.33398 7.33398 14.001 14.001s19.667 13.667 33 21s28 13.833 44 19.5s32 8.5 48 8.5c14.667 0 26.834 -2.5 36.501 -7.5s17.5 -11.333 23.5 -19s10.167 -16.167 12.5 -25.5s3.5 -18.333 3.5 -27z" />
    <glyph glyph-name="s" unicode="s" horiz-adv-x="385" 
d="M345 117c0 -14.667 -3.66406 -30.9971 -10.9971 -48.9971c-13.333 -32 -32.666 -55 -57.999 -69s-54.333 -21 -87 -21c-8 0 -19.333 0.833008 -34 2.5s-29.334 4.66699 -44.001 9s-27.334 10 -38.001 17s-16 15.833 -16 26.5l1 34
c0 7.33301 -0.166992 14.666 -0.5 21.999s-0.5 15.666 -0.5 24.999c0.666992 3.33301 2.5 5.33301 5.5 6s5.83301 1 8.5 1c4 0 6.83301 -1.33301 8.5 -4s3.16699 -5.66699 4.5 -9l16.5 -36c5.66699 -12 12.334 -22.5 20.001 -31.5s16.667 -16.333 27 -22
s23.166 -8.5 38.499 -8.5c24 0 43.333 7.33301 58 22s22 34.667 22 60c0 16.667 -5.33301 30.834 -16 42.501s-24 22.5 -40 32.5s-33.333 19.5 -52 28.5s-36 19.5 -52 31.5s-29.333 25.833 -40 41.5s-16 34.834 -16 57.501c0 24 3.83301 44.667 11.5 62
s18.167 31.5 31.5 42.5s29.166 19.167 47.499 24.5s38.166 8 59.499 8c15.333 0 32.333 -2.33301 51 -7s33.667 -13 45 -25c2.66699 -2.66699 5 -5.5 7 -8.5s3 -6.5 3 -10.5c0 -22.667 -1 -44.334 -3 -65.001c-0.666992 -4 -1.5 -7.83301 -2.5 -11.5
s-4.16699 -5.5 -9.5 -5.5c-4 0 -7.66699 5.33301 -11 16s-8.5 22.167 -15.5 34.5s-17 23.833 -30 34.5s-31.167 16 -54.5 16c-20 0 -35.167 -7.33301 -45.5 -22s-15.5 -32 -15.5 -52c0 -14.667 5.5 -27.834 16.5 -39.501s25 -22.834 42 -33.501s35.167 -21.5 54.5 -32.5
s37.5 -23 54.5 -36s31 -27.5 42 -43.5s16.5 -34.333 16.5 -55z" />
    <glyph glyph-name="t" unicode="t" horiz-adv-x="361" 
d="M331 426c0 -3.33301 -0.673828 -6.6709 -2.00684 -10.0039s-2.33301 -6.66602 -3 -9.99902c-2.66699 -3.33301 -7.66699 -5.16602 -15 -5.49902s-12.666 -0.5 -15.999 -0.5c-13.333 0 -26.166 0.333008 -38.499 1s-24.833 1 -37.5 1
c-4.66699 0 -11.167 -0.166992 -19.5 -0.5s-14.166 -2.16602 -17.499 -5.49902c-3.33301 0 -5 -1.33301 -5 -4c-2.66699 -4.66699 -4 -10.667 -4 -18c-1.33301 -22.667 -1.83301 -46.5 -1.5 -71.5s0.5 -48.833 0.5 -71.5c0 -20 -0.166992 -40 -0.5 -60s-0.5 -40 -0.5 -60
c0 -21.333 6.5 -38.333 19.5 -51s30.167 -19 51.5 -19c18 0 31.833 3.16699 41.5 9.5l35.5 22.5c7.33301 0 11 -3.33301 11 -10c0 -10.667 -3.5 -20.167 -10.5 -28.5s-14.5 -15.5 -22.5 -21.5c-12.667 -9.33301 -27.167 -16.166 -43.5 -20.499s-32.5 -6.5 -48.5 -6.5
c-41.333 0 -70.666 11.667 -87.999 35s-26 54.333 -26 93c0 42 0.5 82.833 1.5 122.5s1.5 80.5 1.5 122.5c0 12 -3.66699 19.833 -11 23.5s-15.166 5.66699 -23.499 6s-16.166 0.666016 -23.499 0.999023s-11 3.5 -11 9.5c0 1.33301 0.166992 2.33301 0.5 3
s0.5 1.66699 0.5 3c2.66699 2 6.83398 4.5 12.501 7.5s12 6.66699 19 11l21.5 14c7.33301 5 14 10.5 20 16.5l19 17.5c4.66699 4.33301 8.66699 8.5 12 12.5s7 8.66699 11 14s9 13 15 23c2.66699 6 7 9 13 9c4.66699 0 7.16699 -1.83301 7.5 -5.5
s0.833008 -7.16699 1.5 -10.5c-0.666992 -2 -1 -5.33301 -1 -10v-36c0 -4.66699 0.166992 -8 0.5 -10s0.833008 -4.66699 1.5 -8c6 -1.33301 12.833 -2.16602 20.5 -2.49902s15.667 -0.333008 24 0l25 1c8.33301 0.333008 15.5 0.5 21.5 0.5h10
c7.33301 0 15.833 -0.333008 25.5 -1s15.167 -1.66699 16.5 -3c4 -1.33301 6.5 -4 7.5 -8s1.5 -7.66699 1.5 -11z" />
    <glyph glyph-name="u" unicode="u" horiz-adv-x="567" 
d="M28 429c0 4 2.33398 7.33789 7.00098 10.0049c2 0.666992 6 1.33398 12 2.00098s12.333 1 19 1c7.33301 0 14.333 0.166992 21 0.5s11.667 0.5 15 0.5l35 4c12 1.33301 23.667 2 35 2c5.33301 0 8.33301 -3.83301 9 -11.5s1 -13.167 1 -16.5v-160
c0 -20 -0.166992 -40 -0.5 -60s-0.5 -40 -0.5 -60c0 -32.667 6.16699 -58.167 18.5 -76.5s35.5 -27.5 69.5 -27.5c14 0 26.333 1.16699 37 3.5s20.334 6.16602 29.001 11.499s16.834 12 24.501 20s15.834 17.667 24.501 29c0.666992 6.66699 1.16699 13.5 1.5 20.5
s0.666016 15.333 0.999023 25s0.5 21.167 0.5 34.5v51v99c0 9.33301 -0.333008 18.666 -1 27.999s-2 18.666 -4 27.999c-1.33301 6 -5.16602 10.667 -11.499 14s-13.333 5.66602 -21 6.99902s-14.834 2.5 -21.501 3.5s-11 2.16699 -13 3.5
c-3.33301 0 -7.33301 0.833008 -12 2.5s-7 4.83398 -7 9.50098c0 3.33301 3 6.66602 9 9.99902c1.33301 0.666992 8.33301 1.5 21 2.5s26.667 2.16699 42 3.5s29.833 2.5 43.5 3.5s22.167 1.5 25.5 1.5c13.333 0 21.833 -1.83301 25.5 -5.5s5.5 -12.5 5.5 -26.5
c0 -28.667 -0.333008 -57.334 -1 -86.001l-2 -86c0 -28 -0.166992 -56 -0.5 -84s-0.5 -56 -0.5 -84c0 -8.66699 2.16699 -16 6.5 -22s11.166 -9 20.499 -9c15.333 0 28.666 1.33301 39.999 4c3.33301 0.666992 7 0.666992 11 0s6 -4 6 -10c0 -3.33301 -2 -6.5 -6 -9.5
s-7.33301 -5.16699 -10 -6.5c-1.33301 -0.666992 -6.83301 -2.5 -16.5 -5.5l-32 -10c-11.667 -3.66699 -22.834 -7 -33.501 -10s-17.334 -4.83301 -20.001 -5.5c-1.33301 0 -3.66602 -0.5 -6.99902 -1.5s-7.16602 -2 -11.499 -3s-8.66602 -1.83301 -12.999 -2.5
s-7.5 -0.666992 -9.5 0s-3.33301 3.16699 -4 7.5s-1 9.16602 -1 14.499s0.166992 10.5 0.5 15.5s0.5 8.5 0.5 10.5v17c0 8.66699 -1.33301 11.667 -4 9l-32 -28c-10.667 -9.33301 -21.834 -17.833 -33.501 -25.5s-24 -14 -37 -19s-26.833 -7.5 -41.5 -7.5h-19
c-24.667 0 -44.667 4.66699 -60 14s-27.333 21.666 -36 36.999s-14.667 32.833 -18 52.5s-5 40.167 -5 61.5c0 36 0.333008 71.833 1 107.5s1 71.5 1 107.5c0 17.333 -2.16699 30.333 -6.5 39s-16.5 13 -36.5 13c-2.66699 1.33301 -5.83398 2.33301 -9.50098 3
s-7 1.33398 -10 2.00098s-5.5 2 -7.5 4s-3 5 -3 9z" />
    <glyph glyph-name="v" unicode="v" horiz-adv-x="526" 
d="M516 436c0 -4 -1.50195 -7.00293 -4.50195 -9.00293s-6.16699 -3.66699 -9.5 -5c-7.33301 -2 -14.333 -3.33301 -21 -4s-13 -3.66699 -19 -9c-6.66699 -5.33301 -12.167 -11.333 -16.5 -18s-8.16602 -13.667 -11.499 -21c-26 -56.667 -50 -113.334 -72 -170.001l-67 -172
c-0.666992 -2 -2 -5.66699 -4 -11s-4.33301 -11 -7 -17s-5.33398 -11.167 -8.00098 -15.5s-5 -6.5 -7 -6.5c-2.66699 0 -5 0.833008 -7 2.5s-3.66699 3.16699 -5 4.5c0 0.666992 -2.16699 5.83398 -6.5 15.501l-14 32.5l-14.5 34.5l-9 21.5l-54 119.5l-53 119.5
c-5.33301 11.333 -10.166 22.5 -14.499 33.5s-9.16602 21.833 -14.499 32.5c-4 7.33301 -9.66699 12.5 -17 15.5s-14.833 5.5 -22.5 7.5s-14.167 4 -19.5 6s-8 6 -8 12c0 4 1.66699 7.16699 5 9.5s6.66602 3.5 9.99902 3.5c2 0.666992 10.667 1 26 1h46
c16.667 0 32.667 -0.166992 48 -0.5s26.333 -0.5 33 -0.5s13.334 0.166992 20.001 0.5s13.334 0.5 20.001 0.5h11c2.66699 0 6.66699 -0.666992 12 -2l5 -8c-0.666992 -3.33301 -1.33398 -6.16602 -2.00098 -8.49902s-2.66699 -4.16602 -6 -5.49902
c-4 -2 -9.66699 -3.16699 -17 -3.5s-14.333 -1 -21 -2s-12.5 -2.83301 -17.5 -5.5s-7.5 -7.33398 -7.5 -14.001c0 -4.66699 0.833008 -9.16699 2.5 -13.5s3.16699 -8.83301 4.5 -13.5l34 -86l35 -86c8.66699 -23.333 18.667 -46.333 30 -69
c1.33301 -1.33301 2.5 -3.16602 3.5 -5.49902s2.83301 -3.5 5.5 -3.5c3.33301 0 6.33301 2.83301 9 8.5l6 12.5c3.33301 6.66699 7.83301 16.667 13.5 30s11.667 28.5 18 45.5l20 53.5c7 18.667 13.167 36.334 18.5 53.001s9.83301 31.5 13.5 44.5s5.5 22.167 5.5 27.5
c0 6 -2.5 10.667 -7.5 14s-10.833 6 -17.5 8s-13.5 3.33301 -20.5 4s-12.5 1 -16.5 1c-1.33301 1.33301 -2.83301 3 -4.5 5s-2.5 4.33301 -2.5 7c0 6.66699 2.83301 10.5 8.5 11.5s10.834 1.5 15.501 1.5c6 0 11.833 -0.333008 17.5 -1s11.5 -1 17.5 -1h49
c7.33301 0 15 0.333008 23 1s15.667 1 23 1h10c5.33301 0 11.166 -1 17.499 -3s9.5 -5.66699 9.5 -11z" />
    <glyph glyph-name="w" unicode="w" horiz-adv-x="789" 
d="M378 302c0 11.333 -3.16504 23 -9.49805 35s-11.833 23 -16.5 33l-12 25.5c-4 8.33301 -10.667 14.5 -20 18.5c-3.33301 1.33301 -8.33301 2.5 -15 3.5s-13.667 1.66699 -21 2l-21 1c-6.66699 0.333008 -12 0.5 -16 0.5h-24c-8.66699 0 -16.334 -1 -23.001 -3
c-4 -1.33301 -9 -3.83301 -15 -7.5s-9 -8.16699 -9 -13.5c0 -2 0.666992 -3.66699 2 -5c0 -4 0.833008 -8 2.5 -12l4.5 -11l30.5 -76c10.333 -24.667 21.166 -49 32.499 -73c7.33301 -15.333 13.5 -31 18.5 -47s11.167 -31.333 18.5 -46c1.33301 -4 4.33301 -7.66699 9 -11
c2.66699 0.666992 6.5 5.33398 11.5 14.001s10.5 19.334 16.5 32.001l19 41.5l18.5 42.5c5.66699 13.333 10.167 25.166 13.5 35.499s5 17.166 5 20.499zM779.002 439c0 -1.33301 -0.508789 -4.66797 -1.50879 -10.001s-4.16699 -8.66602 -9.5 -9.99902
c-1.33301 -0.666992 -3.66602 -1 -6.99902 -1c-2.66699 0 -4.66699 -0.333008 -6 -1c-13.333 -2 -24 -7 -32 -15s-14.667 -17.667 -20 -29l-44.5 -97.5l-43.5 -99.5l-27.5 -61.5l-26.5 -62.5c-3.33301 -7.33301 -6.33301 -14.5 -9 -21.5l-8 -21.5
c-1.33301 -3.33301 -2.33301 -7 -3 -11s-1.66699 -7.66699 -3 -11c-2.66699 -4.66699 -6 -7 -10 -7s-8 1.83301 -12 5.5s-7 7.16699 -9 10.5c-2 2.66699 -4.66699 8.16699 -8 16.5l-10.5 27c-3.66699 9.66699 -7 19 -10 28s-5.16699 15.833 -6.5 20.5l-26 72
c-8.66699 24 -18.667 47.333 -30 70c-2 4 -4.16699 7.5 -6.5 10.5s-5.5 5.83301 -9.5 8.5c-3.33301 0 -5.66602 -1 -6.99902 -3l-4 -6c-7.33301 -11.333 -13.166 -23 -17.499 -35s-9.16602 -24 -14.499 -36l-38.5 -92l-38.5 -92c-3.33301 -2.66699 -7 -4 -11 -4
c-5.33301 0 -9.33301 2.5 -12 7.5s-4.66699 9.5 -6 13.5l-28 69l-28 69l-46.5 107l-47.5 107l-10 22c-3.33301 7.33301 -7.33301 14 -12 20s-10.167 11 -16.5 15s-14.166 6.66699 -23.499 8c-6 0.666992 -12.333 1.16699 -19 1.5s-10 5.16602 -10 14.499
c0 8 3.16699 12.5 9.5 13.5s12.5 1.5 18.5 1.5c38 0 76 -0.333008 114 -1s76 -1 114 -1s76.167 0.166992 114.5 0.5s76.5 0.5 114.5 0.5c2 0 4.66699 -1 8 -3s5 -5.66699 5 -11c0 -7.33301 -1.66699 -11.666 -5 -12.999s-8.33301 -2.33301 -15 -3
c-3.33301 0 -8.16602 -0.166992 -14.499 -0.5s-12.666 -1.16602 -18.999 -2.49902s-11.833 -3.5 -16.5 -6.5s-7 -6.83301 -7 -11.5c0 -4 2 -11.667 6 -23s9 -24.5 15 -39.5l20 -48l21.5 -49l19 -42.5l12.5 -28c0.666992 -2 2 -5.66699 4 -11l6.5 -17
c2.33301 -6 4.83301 -11.167 7.5 -15.5s5 -6.5 7 -6.5s4.16699 2.33301 6.5 7l4.5 9c2.66699 5.33301 6.83398 15 12.501 29l18.5 47.5l21.5 55.5c7.66699 19.333 14.5 37.333 20.5 54s11 31.167 15 43.5s6 20.166 6 23.499c0 10.667 -4.5 18.334 -13.5 23.001
s-17.833 7.66699 -26.5 9c-2.66699 0.666992 -6 0.833984 -10 0.500977s-7.33301 0.166992 -10 1.5c-3.33301 1.33301 -5.16602 3.33301 -5.49902 6s-0.5 5.66699 -0.5 9c0 1.33301 0.166992 2.66602 0.5 3.99902s1.5 3.66602 3.5 6.99902c4 1.33301 7.33301 2 10 2h10
c13.333 0 26.333 -0.5 39 -1.5s25.667 -1.5 39 -1.5c12.667 0 25 0.5 37 1.5s24.333 1.5 37 1.5c3.33301 0 6.5 -0.833008 9.5 -2.5s4.5 -4.16699 4.5 -7.5z" />
    <glyph glyph-name="x" unicode="x" horiz-adv-x="509" 
d="M494 1c0 -3.33301 -2.66504 -5.50684 -7.99805 -6.50684s-10.666 -1.5 -15.999 -1.5h-7c-16.667 0 -32.167 0.833008 -46.5 2.5s-30.166 2.5 -47.499 2.5c-12 0 -24 -0.833008 -36 -2.5s-24.333 -2.5 -37 -2.5c-4 0 -9.16699 0.333008 -15.5 1s-9.5 4 -9.5 10
c0 3.33301 0.833008 7 2.5 11s4.16699 6 7.5 6c2.66699 0 7 0.166992 13 0.5s11.833 1.16602 17.5 2.49902s10.334 3.5 14.001 6.5s4.83398 7.16699 3.50098 12.5c-0.666992 2 -5 9.33301 -13 22l-27 41l-28 40.5c-8.66699 12.333 -14 19.5 -16 21.5
c-1.33301 2.66699 -3 4.83398 -5 6.50098s-4 3.5 -6 5.5c-5.33301 -1.33301 -12.833 -7.66602 -22.5 -18.999s-19.5 -24.166 -29.5 -38.499s-18.667 -28.333 -26 -42s-11 -22.834 -11 -27.501c0 -11.333 3.33301 -18.833 10 -22.5s13.834 -6.33398 21.501 -8.00098
s14.5 -3.83398 20.5 -6.50098s8.33301 -8 7 -16c-1.33301 -3.33301 -4.83301 -5.16602 -10.5 -5.49902s-11.834 -0.5 -18.501 -0.5c-12.667 0 -25.334 0.5 -38.001 1.5s-25.667 1.5 -39 1.5c-3.33301 0 -6.83301 -0.166992 -10.5 -0.5s-8.16699 -0.5 -13.5 -0.5
s-12.333 -0.166992 -21 -0.5s-19.334 -0.5 -32.001 -0.5c-3.33301 0.666992 -5.16602 2 -5.49902 4s-0.5 4 -0.5 6c0 3.33301 1.66699 6.16602 5 8.49902l9 6.5l17 8.5c6 3 13 8.16699 21 15.5c7.33301 6.66699 14.166 13.334 20.499 20.001l19.5 21l44 49
c14.667 16 28.334 33 41.001 51c0.666992 0.666992 1.83398 2.33398 3.50098 5.00098s3.5 5.33398 5.5 8.00098s3.66699 5.16699 5 7.5s2 3.83301 2 4.5c0 1.33301 -3 6.5 -9 15.5s-13.667 19.833 -23 32.5l-31 41l-32 41.5l-27 34.5l-16 20c-2 2.66699 -6 6.16699 -12 10.5
s-10.667 7.16602 -14 8.49902c-5.33301 2.66699 -11.5 5 -18.5 7s-10.5 7 -10.5 15s3.33301 12.333 10 13l10 2h11c11.333 0 22.833 -0.333008 34.5 -1s23.167 -1 34.5 -1s22.666 0.166992 33.999 0.5s22.666 0.5 33.999 0.5c5.33301 0 11 0.166992 17 0.5
s11.667 -0.166992 17 -1.5c6.66699 -0.666992 10 -4.66699 10 -12c0 -5.33301 -1.83301 -8.66602 -5.5 -9.99902s-8 -2.5 -13 -3.5s-10.5 -2.16699 -16.5 -3.5s-11 -4 -15 -8c-3.33301 -3.33301 -5 -6.66602 -5 -9.99902c0 -6 3.66699 -15.167 11 -27.5s16 -25.333 26 -39
s20.167 -26.334 30.5 -38.001s18.166 -19.5 23.499 -23.5c4 2 10.833 8.83301 20.5 20.5s19.334 24.5 29.001 38.5s18.167 27.5 25.5 40.5s11 21.833 11 26.5c0 6 -1.66699 10.167 -5 12.5s-7.33301 4 -12 5s-9 1.66699 -13 2s-7 1.16602 -9 2.49902
c-2.66699 0.666992 -5.16699 1.33398 -7.5 2.00098s-4.5 1.33398 -6.5 2.00098l-4 6c0.666992 7.33301 2.5 12.166 5.5 14.499s7.83301 3.5 14.5 3.5c13.333 0 26.666 -0.5 39.999 -1.5s26.666 -1.5 39.999 -1.5c11.333 0 23 0.666992 35 2s23.667 2 35 2h8
c5.33301 0 10.666 -0.666992 15.999 -2s8 -4 8 -8c0 -3.33301 -1 -6.83301 -3 -10.5s-5.66699 -6.16699 -11 -7.5c-4 -0.666992 -9 -1.66699 -15 -3s-12.333 -3.16602 -19 -5.49902s-13.334 -5.16602 -20.001 -8.49902s-12.334 -7 -17.001 -11
c-3.33301 -3.33301 -6.5 -6.66602 -9.5 -9.99902s-6.16699 -6.66602 -9.5 -9.99902l-34.5 -40l-33.5 -41l-16 -20c-5.33301 -6.66699 -11 -13 -17 -19c-0.666992 -2.66699 -1.66699 -4.66699 -3 -6s-1.33301 -3.66602 0 -6.99902
c0.666992 -2.66699 3.83398 -8.16699 9.50098 -16.5l20 -29l25.5 -35l26 -34.5l21.5 -28c6.33301 -8 10.5 -12.667 12.5 -14l31 -37.5c10.667 -13 22.667 -21.5 36 -25.5c4.66699 -2 9.33398 -3 14.001 -3c5.33301 -0.666992 8.66602 -3 9.99902 -7s2 -7.66699 2 -11z" />
    <glyph glyph-name="y" unicode="y" horiz-adv-x="537" 
d="M527 433c0 -8 -4.16797 -12.6699 -12.501 -14.0029s-17.166 -4.66602 -26.499 -9.99902c-8 -4.66699 -14.5 -11.5 -19.5 -20.5s-9.16699 -17.5 -12.5 -25.5l-31 -66l-31 -66l-70.5 -153.5l-68.5 -153.5c-14 -34 -29.167 -69 -45.5 -105s-33.5 -71 -51.5 -105
c-2 -3.33301 -5.5 -4.83301 -10.5 -4.5s-10 1.83301 -15 4.5s-9 6 -12 10s-3.83301 7.66699 -2.5 11l57 124l56 124c1.33301 6.66699 0.166016 14.667 -3.50098 24s-6.5 17 -8.5 23l-63.5 178.5c-21 59 -44.833 116.833 -71.5 173.5c-4.66699 10 -11.167 17.5 -19.5 22.5
s-16.5 8.66699 -24.5 11s-15 4.5 -21 6.5s-9 5.66699 -9 11c0 10.667 6.33301 16 19 16c16 0 32 -0.833008 48 -2.5s32 -2.5 48 -2.5c16.667 0 33.334 0.666992 50.001 2s33.334 1.66602 50.001 0.999023h15c4.66699 -2.66699 7 -6.66699 7 -12
c0 -7.33301 -2.5 -11.833 -7.5 -13.5s-10.167 -2.5 -15.5 -2.5c-4.66699 0 -9.83398 -0.333008 -15.501 -1s-11.167 -2 -16.5 -4s-9.83301 -4.83301 -13.5 -8.5s-5.5 -8.5 -5.5 -14.5c0 -4.66699 2.16699 -13.667 6.5 -27l16 -47.5l21.5 -59.5l23 -61l20 -52.5l13 -34.5
c1.33301 -2.66699 2.33301 -5.16699 3 -7.5s2 -4.16602 4 -5.49902c4 2 7 6 9 12c3.33301 8 8.5 19.333 15.5 34l23.5 49.5l26 57l24 56c7.33301 17.667 13.333 33.334 18 47.001s7 23.834 7 30.501c0 12 -3.66699 20.167 -11 24.5s-15.333 7.5 -24 9.5l-24 5.5
c-7.33301 1.66699 -11 6.16699 -11 13.5c0 5.33301 1.16699 8.66602 3.5 9.99902s5.5 2 9.5 2c12 0 23.833 -0.166992 35.5 -0.5s23.167 -0.5 34.5 -0.5c13.333 0 26.5 0.333008 39.5 1s26.167 1 39.5 1c6.66699 0 13.667 -0.166992 21 -0.5s11 -5.16602 11 -14.499z" />
    <glyph glyph-name="z" unicode="z" horiz-adv-x="465" 
d="M421 86c0 -8 -0.167969 -16.6748 -0.500977 -26.0078s-1 -18.166 -2 -26.499s-2.16699 -15.666 -3.5 -21.999s-3 -10.166 -5 -11.499c-2.66699 -4.66699 -6.16699 -5.83398 -10.5 -3.50098s-8.83301 3.5 -13.5 3.5c-50 0 -98.333 -0.333008 -145 -1s-95 -1 -145 -1h-14
c-5.33301 0 -11 0.166992 -17 0.5s-11.667 0.833008 -17 1.5s-9.83301 1.83398 -13.5 3.50098s-5.5 3.5 -5.5 5.5c0 3.33301 0.666992 6 2 8s2.66602 4.33301 3.99902 7c5.33301 8 11.333 15.667 18 23s13 14.666 19 21.999l86.5 114.5l83.5 115.5c4 6 10 14.167 18 24.5
l24 32l22.5 31.5c7 10 11.5 17.667 13.5 23c0.666992 2.66699 -1.66602 4.5 -6.99902 5.5s-11.833 1.66699 -19.5 2s-15.167 0.333008 -22.5 0s-13 -0.5 -17 -0.5h-31c-17.333 0 -35.5 -0.166992 -54.5 -0.5s-35.167 -2.16602 -48.5 -5.49902
c-11.333 -2 -20.166 -6 -26.499 -12s-12 -12.333 -17 -19s-9.83301 -12.5 -14.5 -17.5s-11 -7.5 -19 -7.5c-3.33301 0 -6.66602 0.5 -9.99902 1.5s-4.33301 3.83301 -3 8.5c2 6.66699 3.5 11.334 4.5 14.001s2 5 3 7s2 4.33301 3 7s2.5 7.33398 4.5 14.001
c1.33301 5.33301 2.83301 11 4.5 17s3.5 11.667 5.5 17c1.33301 4 3.33301 7.83301 6 11.5s6.66699 5.5 12 5.5c9.33301 0 17.5 -1.5 24.5 -4.5s17.833 -4.5 32.5 -4.5h156c12 0 24.167 0.333008 36.5 1s24.5 1 36.5 1h15c9.33301 0 19.666 -0.666992 30.999 -2
s18.666 -3.66602 21.999 -6.99902c3.33301 -4.66699 3.66602 -9.66699 0.999023 -15l-94.5 -129.5l-94.5 -129.5l-47.5 -62.5c-17.667 -22.333 -31.167 -44.166 -40.5 -65.499c-1.33301 -3.33301 1 -5 7 -5h57c14 0 29 0.166992 45 0.5s31.5 1.33301 46.5 3
s28.167 3.66699 39.5 6s19.333 5.5 24 9.5s8.33398 9.5 11.001 16.5s4.83398 14 6.50098 21l5 20.5c1.66699 6.66699 4.16699 11.667 7.5 15h5c6.66699 0.666992 11 -0.666016 13 -3.99902s3 -8 3 -14v-23z" />
    <glyph glyph-name="braceleft" unicode="{" horiz-adv-x="342" 
d="M137 189c0 14.667 -3.33301 27.3291 -10 37.9961s-15.334 20 -26.001 28s-23 14.667 -37 20s-28.333 10 -43 14c14.667 4 29 8.66699 43 14s26.333 12 37 20s19.334 17.333 26.001 28s10 23.334 10 38.001l-1 214c0 26 4.33301 47 13 63s21.167 28.5 37.5 37.5
s35.833 15 58.5 18s48 4.5 76 4.5c4.66699 0 8.16699 -2 10.5 -6s3.5 -8.66699 3.5 -14c0 -4.66699 -1.16699 -9.16699 -3.5 -13.5s-5.83301 -6.5 -10.5 -6.5c-22.667 0 -41.5 -1.5 -56.5 -4.5s-27 -8 -36 -15s-15.333 -16.167 -19 -27.5s-5.5 -25 -5.5 -41v-196
c0 -16 -0.666992 -30.167 -2 -42.5s-4.5 -23 -9.5 -32s-12.167 -16.5 -21.5 -22.5s-22 -11 -38 -15c16 -4 28.667 -9.33301 38 -16s16.5 -14.667 21.5 -24s8.16699 -20.166 9.5 -32.499s2 -26.166 2 -41.499v-252c0 -16 1.83301 -29.667 5.5 -41s10 -20.5 19 -27.5
s21 -12 36 -15s33.833 -4.5 56.5 -4.5c4.66699 0.666992 8 -1 10 -5s2.83301 -8.66699 2.5 -14s-1.5 -10.166 -3.5 -14.499s-5 -6.5 -9 -6.5c-28 0 -53.333 1.5 -76 4.5s-42 9 -58 18s-28.5 21.5 -37.5 37.5s-13.5 37 -13.5 63z" />
    <glyph glyph-name="bar" unicode="|" horiz-adv-x="203" 
d="M99 792c5.33301 0 11.665 -0.166992 18.998 -0.5s13 -2.16602 17 -5.49902c-1.33301 -28.667 -2.16602 -65.334 -2.49902 -110.001s-0.5 -95 -0.5 -151c0 -44.667 0.166992 -91.167 0.5 -139.5s0.5 -97.5 0.5 -147.5s0.166992 -98.833 0.5 -146.5
s0.5 -92.834 0.5 -135.501c0 -48.667 -0.166992 -92.5 -0.5 -131.5s-1.16602 -70.833 -2.49902 -95.5c-6 0 -11.833 -0.166992 -17.5 -0.5s-11.5 -0.5 -17.5 -0.5c-4 0 -8.33301 0.166992 -13 0.5s-9 0.833008 -13 1.5c-0.666992 28.667 -1.16699 70 -1.5 124
s-0.5 115.333 -0.5 184s0.166992 140 0.5 214s0.5 145.333 0.5 214c0 70 0.166992 133.333 0.5 190s0.5 101.334 0.5 134.001c2.66699 0.666992 5 1.16699 7 1.5s4.33301 0.5 7 0.5h15v0z" />
    <glyph glyph-name="braceright" unicode="}" horiz-adv-x="342" 
d="M209 -81c0 -26 -4.5 -46.9951 -13.5 -62.9951s-21.5 -28.5 -37.5 -37.5s-35.333 -15 -58 -18s-48 -4.5 -76 -4.5c-4 0 -7 2.16699 -9 6.5s-3.16699 9.16602 -3.5 14.499s0.5 10 2.5 14s5.33301 5.66699 10 5c22.667 0 41.5 1.5 56.5 4.5s27 8 36 15
s15.333 16.167 19 27.5s5.5 25 5.5 41v252c0 15.333 0.666992 29.166 2 41.499s4.5 23.166 9.5 32.499s12.167 17.333 21.5 24s22 12 38 16c-16 4 -28.667 9 -38 15s-16.5 13.5 -21.5 22.5s-8.16699 19.667 -9.5 32s-2 26.5 -2 42.5v196c0 16 -1.83301 29.667 -5.5 41
s-10 20.5 -19 27.5s-21 12 -36 15s-33.833 4.5 -56.5 4.5c-4.66699 0 -8.16699 2.16699 -10.5 6.5s-3.5 8.83301 -3.5 13.5c0 5.33301 1.16699 10 3.5 14s5.83301 6 10.5 6c28 0 53.333 -1.5 76 -4.5s42.167 -9 58.5 -18s28.833 -21.5 37.5 -37.5s13 -37 13 -63l-1 -214
c0 -14.667 3.16699 -27.334 9.5 -38.001s15 -20 26 -28s23.333 -14.667 37 -20s28.167 -10 43.5 -14c-15.333 -4 -29.833 -8.66699 -43.5 -14s-26 -12 -37 -20s-19.667 -17.333 -26 -28s-9.5 -23.334 -9.5 -38.001z" />
    <glyph glyph-name="asciitilde" unicode="~" horiz-adv-x="435" 
d="M414 518c-4 -13.333 -9.50098 -26.166 -16.501 -38.499s-15.167 -23.333 -24.5 -33s-20.333 -17.5 -33 -23.5s-26.334 -9 -41.001 -9c-16 0 -30.5 3.66699 -43.5 11s-25.667 15.166 -38 23.499s-25 16.166 -38 23.499s-27.5 11 -43.5 11
c-13.333 0 -23.833 -1.83301 -31.5 -5.5s-14.5 -8.5 -20.5 -14.5s-11.667 -12.5 -17 -19.5s-12.333 -13.833 -21 -20.5c-6 4.66699 -13.667 12 -23 22c2.66699 4.66699 5.33398 10 8.00098 16c10 26 24.333 46 43 60s42.334 21 71.001 21c14.667 0 29 -3.5 43 -10.5
s27.667 -14.833 41 -23.5s26.5 -16.5 39.5 -23.5s25.5 -10.5 37.5 -10.5c19.333 0 35 6.5 47 19.5s22 27.167 30 42.5c6.66699 -1.33301 12.167 -3.66602 16.5 -6.99902z" />
    <glyph glyph-name="uni00A0" unicode="&#xa0;" horiz-adv-x="427" 
 />
    <glyph glyph-name="exclamdown" unicode="&#xa1;" horiz-adv-x="229" 
d="M61 452c0 18.667 6.5 33.332 19.5 43.999s28.167 16 45.5 16c16 0 29.333 -6.33301 40 -19s16 -26.667 16 -42c0 -17.333 -5.83301 -32.166 -17.5 -44.499s-26.167 -18.5 -43.5 -18.5c-16 0 -30 6.66699 -42 20s-18 28 -18 44zM178 -203.002
c0.666992 -10 -0.000976562 -16.666 -2.00098 -19.999s-5.5 -5.16602 -10.5 -5.49902s-11.5 0.166992 -19.5 1.5s-18 2 -30 2c-10 0 -19 -0.5 -27 -1.5s-15 -1.5 -21 -1.5c-7.33301 0 -12.666 1.5 -15.999 4.5s-4.33301 9.83301 -3 20.5c2.66699 24.667 6.5 57.5 11.5 98.5
l16 130.5l17.5 137.5c6 45.667 11.667 85.167 17 118.5c0.666992 3.33301 3.5 4.66602 8.5 3.99902s8.83301 -2 11.5 -4c3.33301 -36 7.33301 -74.833 12 -116.5l14.5 -126.5c5 -42.667 9.33301 -84.834 13 -126.501s6.16699 -80.167 7.5 -115.5z" />
    <glyph glyph-name="cent" unicode="&#xa2;" horiz-adv-x="458" 
d="M128 390c0 -20.667 2.16699 -41.167 6.5 -61.5s11 -39 20 -56s20.5 -31.833 34.5 -44.5s30.667 -21.667 50 -27v191v95c0 32 -0.333008 64.333 -1 97c-20 -4.66699 -37 -13.667 -51 -27s-25.333 -29 -34 -47s-15 -37.5 -19 -58.5s-6 -41.5 -6 -61.5zM283 701
c0 -8.66699 0.167969 -17.3369 0.500977 -26.0039s0.5 -17.667 0.5 -27v-30c11.333 0 24.833 -1.16699 40.5 -3.5s30.5 -6.33301 44.5 -12s26 -13 36 -22s15 -20.5 15 -34.5c0.666992 -11.333 -2.66602 -20.166 -9.99902 -26.499s-16.333 -9.5 -27 -9.5
c-9.33301 0 -17.833 3 -25.5 9s-15.167 13.167 -22.5 21.5s-15 16.5 -23 24.5s-17 14 -27 18c0.666992 -66 0.833984 -131 0.500977 -195s-0.166016 -128.333 0.500977 -193h18c17.333 0 33.666 3.66699 48.999 11s29.666 16.333 42.999 27l9.5 7.5
c3 2.33301 6.16699 4.5 9.5 6.5c4 -3.33301 6 -7.33301 6 -12c0 -6 -2.33301 -12 -7 -18l-12 -16c-4 -5.33301 -9.5 -10.833 -16.5 -16.5s-14.667 -11.167 -23 -16.5s-16.666 -10 -24.999 -14s-15.5 -7 -21.5 -9c-5.33301 -1.33301 -10.333 -2.66602 -15 -3.99902
s-9.66699 -2.66602 -15 -3.99902c0 -15.333 0.166992 -28.333 0.5 -39l1 -30.5c0.333008 -9.66699 0.666016 -20 0.999023 -31s0.5 -24.167 0.5 -39.5c-1.33301 -1.33301 -4.33301 -1 -9 1s-11.667 3 -21 3c-6 0 -12.667 -1.33301 -20 -4v138
c-30 1.33301 -56.667 8.33301 -80 21s-43 29.334 -59 50.001s-28.333 44.5 -37 71.5s-13 55.167 -13 84.5c-0.666992 30 3.33301 59.167 12 87.5s21.167 53.666 37.5 75.999s36.166 41.333 59.499 57s49.666 26.167 78.999 31.5v114
c5.33301 4.66699 12.333 6.33398 21 5.00098s16.667 -1.33301 24 0v-32z" />
    <glyph glyph-name="sterling" unicode="&#xa3;" horiz-adv-x="572" 
d="M530 125c0 -2.66699 -1.1582 -7.83691 -3.49121 -15.5039s-5 -16 -8 -25s-6 -17.5 -9 -25.5s-5.16699 -13.333 -6.5 -16c-6 -12.667 -12.167 -22.834 -18.5 -30.501s-13.333 -13.667 -21 -18s-16.5 -7.16602 -26.5 -8.49902s-22 -2 -36 -2c-21.333 0 -42 4.33301 -62 13
s-38.5 18 -55.5 28s-31.833 19.333 -44.5 28s-22.334 13 -29.001 13l-1 -3c-10 -5.33301 -19.833 -12.333 -29.5 -21s-19.5 -17 -29.5 -25s-20.5 -15 -31.5 -21s-22.833 -9 -35.5 -9c-14 0 -25.833 3.83301 -35.5 11.5s-14.5 19.167 -14.5 34.5
c0 16 2.83301 26.833 8.5 32.5s12.667 9 21 10s17.666 0.833008 27.999 -0.5s20.5 -0.666016 30.5 2.00098c11.333 2.66699 23.5 7.66699 36.5 15s25 16.166 36 26.499s20 21.666 27 33.999s10.167 24.5 9.5 36.5c-1.33301 28 -7 56.167 -17 84.5s-23 53.833 -39 76.5
c-6.66699 -0.666992 -13.334 -1 -20.001 -1h-21h-40c-4.66699 0 -9.66699 -0.166992 -15 -0.5s-10.166 0 -14.499 1s-8 2.83301 -11 5.5s-4.5 7.33398 -4.5 14.001c0 8.66699 3.16699 14.334 9.5 17.001s13.166 4 20.499 4c13.333 0 26.5 -0.333008 39.5 -1
s26.167 -1 39.5 -1c-9.33301 20.667 -17.5 42 -24.5 64s-10.5 44.667 -10.5 68c0 34 7.83301 64.5 23.5 91.5s38.5 48.5 68.5 64.5c11.333 6.66699 23.333 11.834 36 15.501s25.667 7.16699 39 10.5c16 4 32.333 6 49 6c24.667 0 50 -4 76 -12s48.667 -19.667 68 -35
c6.66699 -5.33301 12.5 -11.666 17.5 -18.999s7.5 -15.666 7.5 -24.999c0 -6.66699 -1.33301 -13.334 -4 -20.001s-5 -13 -7 -19c-1.33301 -4 -2.83301 -9.16699 -4.5 -15.5s-3.66699 -12.833 -6 -19.5s-5 -12.667 -8 -18s-6.5 -9 -10.5 -11
c-10.667 1.33301 -17.334 5.66602 -20.001 12.999s-4 15.666 -4 24.999c0 12.667 -1 25 -3 37c-2 14.667 -6.66699 27.5 -14 38.5s-16.5 20.167 -27.5 27.5s-23.167 12.833 -36.5 16.5s-27 5.5 -41 5.5c-34 0 -61.333 -9.83301 -82 -29.5s-31 -46.5 -31 -80.5
c0 -12 2.16699 -26 6.5 -42s9.5 -32.333 15.5 -49s12.5 -32.667 19.5 -48l18.5 -40h166c4 0 7.16699 -1.5 9.5 -4.5s3.5 -6.5 3.5 -10.5s-0.333008 -6.33301 -1 -7c0 -6 -2 -10.333 -6 -13c-2 -1.33301 -4.33301 -2.16602 -7 -2.49902s-5.33398 -0.5 -8.00098 -0.5
c-23.333 0 -46.5 -0.166992 -69.5 -0.5s-46.167 -0.5 -69.5 -0.5c5.33301 -15.333 10.166 -30.833 14.499 -46.5s6.5 -31.5 6.5 -47.5c0 -28.667 -7.66699 -55.667 -23 -81c-6.66699 -12.667 -14.334 -26 -23.001 -40s-18.667 -25.667 -30 -35
c6.66699 -1.33301 11.667 -2 15 -2c6.66699 0 11.667 -0.333008 15 -1c24 -3.33301 47.667 -8.33301 71 -15s47.333 -10 72 -10c18 0 33.333 3.33301 46 10s23.667 13.834 33 21.501s17.166 14.834 23.499 21.501s12.166 10 17.499 10c2 0 3.66699 -0.666992 5 -2
c0 -1.33301 0.166992 -2.5 0.5 -3.5s0.5 -2.16699 0.5 -3.5z" />
    <glyph glyph-name="currency" unicode="&#xa4;" horiz-adv-x="754" 
d="M610 270c0 -5.33301 -0.170898 -11.3301 -0.503906 -17.9971s-2.16602 -12 -5.49902 -16c-13.333 1.33301 -26.833 1.66602 -40.5 0.999023s-27.167 -1 -40.5 -1h-41c-8 0 -18.167 -0.166992 -30.5 -0.5s-28.5 -0.5 -48.5 -0.5c-19.333 0 -43.666 -0.166992 -72.999 -0.5
s-65.333 -0.5 -108 -0.5c8 -30.667 19 -59.334 33 -86.001s31.333 -49.834 52 -69.501s44.834 -35.167 72.501 -46.5s59.167 -17 94.5 -17c16 0 32.667 1.83301 50 5.5s34.166 9 50.499 16s31.666 15.5 45.999 25.5s26.833 21.667 37.5 35
c3.33301 4.66699 7.16602 11 11.499 19l13.5 24c4.66699 8 9 15 13 21s7.66699 9 11 9c7.33301 0 12.5 -1.33301 15.5 -4s4.5 -7.66699 4.5 -15c0 -5.33301 -0.833008 -14 -2.5 -26s-3.83398 -24.5 -6.50098 -37.5s-5.66699 -24.833 -9 -35.5s-6.66602 -17.667 -9.99902 -21
c-11.333 -10 -26.333 -18.5 -45 -25.5s-38.667 -12.833 -60 -17.5s-43.166 -8 -65.499 -10s-42.5 -3 -60.5 -3c-45.333 0 -87.166 6.5 -125.499 19.5s-72.666 31.167 -102.999 54.5s-56.5 50.666 -78.5 81.999s-39.333 65.666 -52 102.999l-53 2
c-18 0.666992 -33.667 1.33398 -47 2.00098c0 6 -0.166992 11.833 -0.5 17.5s-0.5 11.5 -0.5 17.5c0 4 0.166992 8 0.5 12s0.833008 8 1.5 12h6c2 0 5.5 0.166992 10.5 0.5s12.5 0.5 22.5 0.5h45c-4.66699 21.333 -7 47.333 -7 78v15c0 6 0.333008 10.667 1 14l-38.5 2
l-38.5 2c0 6 -0.166992 11.833 -0.5 17.5s-0.5 11.5 -0.5 17.5c0 4 0.166992 8 0.5 12s0.833008 8 1.5 12c5.33301 0 15.5 0.166992 30.5 0.5s32.833 0.5 53.5 0.5c8.66699 42.667 23.667 80.834 45 114.501s47.666 62 78.999 85s67 40.5 107 52.5s83 18 129 18
c22.667 0 45.167 -1.33301 67.5 -4s44.833 -6.33398 67.5 -11.001c5.33301 -1.33301 11.5 -3.16602 18.5 -5.49902s14.167 -4.5 21.5 -6.5c4.66699 -4 8.66699 -3.83301 12 0.5s7 9.83301 11 16.5s9 13.167 15 19.5s14 9.5 24 9.5c4.66699 0 7.66699 -3.33301 9 -10
s2 -14.667 2 -24s-0.5 -19 -1.5 -29s-1.5 -18.667 -1.5 -26c0 -17.333 -0.333008 -34.666 -1 -51.999s-1.66699 -34.666 -3 -51.999c-1.33301 -6 -3 -10 -5 -12s-4.33301 -3 -7 -3s-5.16699 0.333008 -7.5 1s-4.5 1 -6.5 1c-4 0 -7.33301 3 -10 9s-5 13.167 -7 21.5l-6.5 26
c-2.33301 9 -5.5 16.833 -9.5 23.5c-21.333 23.333 -47.5 41.166 -78.5 53.499s-62.833 18.5 -95.5 18.5c-38 0 -71.333 -6.16699 -100 -18.5s-53.167 -29 -73.5 -50s-36.833 -45.833 -49.5 -74.5s-22 -59.334 -28 -92.001h14c60.667 1.33301 123.834 1.83301 189.501 1.5
s129.834 -0.833008 192.501 -1.5c2 -9.33301 3 -18.666 3 -27.999c0 -5.33301 -0.166992 -11.333 -0.5 -18s-2.16602 -12 -5.49902 -16c-13.333 1.33301 -26.833 1.66602 -40.5 0.999023s-27.167 -1 -40.5 -1l-319 -2v-28c0 -13.333 0.333008 -26.5 1 -39.5
s1.66699 -26.167 3 -39.5h66c23.333 0 50.166 -0.166992 80.499 -0.5s65.833 -0.5 106.5 -0.5h145c0.666992 -2.66699 1.16699 -5 1.5 -7s0.5 -4.33301 0.5 -7v-13v0z" />
    <glyph glyph-name="yen" unicode="&#xa5;" horiz-adv-x="783" 
d="M696 193c0 -5.33301 -0.168945 -11.8398 -0.501953 -19.5068s-2.16602 -13.5 -5.49902 -17.5c-13.333 1.33301 -26.833 2.16602 -40.5 2.49902s-27.167 0.5 -40.5 0.5h-34c-10 0 -21.333 -0.166992 -34 -0.5s-27.667 -0.5 -45 -0.5h-64v-57
c0 -18 2.66699 -31.833 8 -41.5s12 -16.5 20 -20.5s16.833 -6.33301 26.5 -7s19 -1.16699 28 -1.5s16.833 -1.33301 23.5 -3s11.334 -5.83398 14.001 -12.501c0 -6 -1.33301 -11.333 -4 -16s-7.66699 -7 -15 -7c-26 0 -52.167 1.16699 -78.5 3.5s-52.5 3.5 -78.5 3.5
c-24 0 -47.833 -1.16699 -71.5 -3.5s-47.5 -3.5 -71.5 -3.5c-2 0 -4.33301 0.333008 -7 1s-4 2.66699 -4 6c-3.33301 10 -1.33301 16.833 6 20.5s16.833 6.33398 28.5 8.00098s23.667 3.5 36 5.5s22.166 7 29.499 15c2.66699 2.66699 4.83398 8 6.50098 16s3 17.333 4 28
s1.83301 21.834 2.5 33.501s1 22.167 1 31.5h-110c-22 0 -43.833 0.333008 -65.5 1s-43.5 1.66699 -65.5 3c0 6 -0.166992 11.833 -0.5 17.5s-0.5 11.5 -0.5 17.5c0 4 0.166992 8 0.5 12s0.833008 8 1.5 12h4c0 0.666992 1 1 3 1h234v84h-111
c-22 0 -43.833 0.333008 -65.5 1s-43.5 1.66699 -65.5 3c0 6 -0.166992 11.833 -0.5 17.5s-0.5 11.5 -0.5 17.5c0 4 0.166992 8 0.5 12s0.833008 8 1.5 12c3.33301 0 4.83301 0.166992 4.5 0.5s0.166992 0.5 1.5 0.5h209l-101.5 144l-101.5 144
c-7.33301 10.667 -16.666 18.334 -27.999 23.001s-22.166 8.16699 -32.499 10.5s-19.166 4.66602 -26.499 6.99902s-11 7.16602 -11 14.499c0 6.66699 2.33301 10.334 7 11.001s9.66699 1 15 1c18.667 0 37 -1.33301 55 -4s36.333 -4 55 -4
c25.333 0 50.833 1.16699 76.5 3.5s51.5 3.5 77.5 3.5c3.33301 0 7.5 -1.66699 12.5 -5s7.5 -6.66602 7.5 -9.99902c0 -10 -4.66699 -15.833 -14 -17.5s-19.5 -2.66699 -30.5 -3s-21.167 -1.33301 -30.5 -3s-14 -7.16699 -14 -16.5c0 -7.33301 3.16699 -16.666 9.5 -27.999
s13.666 -23.166 21.999 -35.499s17 -24.333 26 -36l22.5 -29.5l48 -69.5c16 -23 32.667 -45.167 50 -66.5l5.5 -7.5c1.66699 -2.33301 4.16699 -4.16602 7.5 -5.49902c2 0.666992 4.16699 2 6.5 4s4.16602 3.66699 5.49902 5c4 4 11.167 12.833 21.5 26.5l36 48l42.5 59
l40.5 58.5l30.5 46c8 12.667 12 20.334 12 23.001c0 11.333 -4.66699 18.5 -14 21.5s-19.5 4.83301 -30.5 5.5s-21.167 1.83398 -30.5 3.50098s-14 7.16699 -14 16.5c0 8 1.83301 12.5 5.5 13.5s8.83398 1.5 15.501 1.5c15.333 0 30.666 -1 45.999 -3s30.666 -3 45.999 -3
c17.333 0 34.5 1.16699 51.5 3.5s34.167 3.5 51.5 3.5c9.33301 0 17.833 -1.66699 25.5 -5s9.5 -9.33301 5.5 -18c-2.66699 -5.33301 -7.33398 -8.83301 -14.001 -10.5s-14 -3.16699 -22 -4.5s-16.333 -3.66602 -25 -6.99902s-16.667 -9.33301 -24 -18
c-24.667 -28.667 -48.5 -58 -71.5 -88l-69.5 -90c-13.333 -17.333 -28.5 -35.666 -45.5 -54.999s-31.833 -39 -44.5 -59h239c0.666992 -2.66699 1.16699 -5 1.5 -7s0.5 -4.33301 0.5 -7v-13c0 -5.33301 -0.166992 -11.833 -0.5 -19.5s-2.16602 -13.5 -5.49902 -17.5
c-13.333 1.33301 -26.833 2.16602 -40.5 2.49902s-27.167 0.5 -40.5 0.5h-34c-10 0 -21.333 -0.166992 -34 -0.5s-27.667 -0.5 -45 -0.5h-64v-86h262c0.666992 -2.66699 1.16699 -5 1.5 -7s0.5 -4.33301 0.5 -7v-13v0z" />
    <glyph glyph-name="brokenbar" unicode="&#xa6;" horiz-adv-x="203" 
d="M99 792c5.33301 0 11.665 -0.166016 18.998 -0.499023s13 -2.16602 17 -5.49902c-0.666992 -10.667 -1.16699 -22.834 -1.5 -36.501s-0.666016 -29.834 -0.999023 -48.501s-0.5 -40.334 -0.5 -65.001v-85v-151c-11.333 -7.33301 -21.166 -11.333 -29.499 -12
s-19.833 3.33301 -34.5 12c0 61.333 0.333008 119.833 1 175.5s1 103.834 1 144.501v70c2.66699 0.666992 5 1.16699 7 1.5s4.33301 0.5 7 0.5h15v0zM69.999 -269.999c0 10.667 -0.167969 23.668 -0.500977 39.001s-0.5 33.666 -0.5 54.999c0 20.667 -0.166992 45 -0.5 73
s-0.5 60 -0.5 96v168c12 8.66699 23 12.167 33 10.5s20.667 -5.16699 32 -10.5c0.666992 -18 1 -36 1 -54v-52v-99c0 -48.667 -0.166992 -92.5 -0.5 -131.5s-1.16602 -70.833 -2.49902 -95.5c-6 0 -11.833 -0.166992 -17.5 -0.5s-11.5 -0.5 -17.5 -0.5
c-4 0 -8.33301 0.166992 -13 0.5s-9 0.833008 -13 1.5z" />
    <glyph glyph-name="section" unicode="&#xa7;" horiz-adv-x="595" 
d="M452 -11c8 29.333 7.00293 56.166 -2.99707 80.499s-24.5 47.5 -43.5 69.5s-40.333 43.667 -64 65s-45.5 43.666 -65.5 66.999s-35.833 48.166 -47.5 74.499s-14.834 55.833 -9.50098 88.5c-20 -4.66699 -37.833 -13.667 -53.5 -27s-26.5 -31.666 -32.5 -54.999
c-7.33301 -27.333 -5 -53.5 7 -78.5s28.667 -49 50 -72s44.5 -45.167 69.5 -66.5s46.5 -42 64.5 -62c21.333 -24 35.666 -51.667 42.999 -83s7.66602 -63 0.999023 -95c19.333 6.66699 36.5 17.834 51.5 33.501s25.833 35.834 32.5 60.501zM549.003 12
c-14.667 -54 -39.498 -94.335 -74.498 -121.002s-75.5 -41 -121.5 -43c-20.667 -48 -50.5 -81.833 -89.5 -101.5s-82.833 -27.167 -131.5 -22.5l11 38c30 0.666992 56.5 9.5 79.5 26.5s38.833 41.833 47.5 74.5c8 30 6.66699 57.667 -4 83s-26.167 49.333 -46.5 72
s-42.666 45 -66.999 67s-46.333 45.167 -66 69.5s-34.5 50.5 -44.5 78.5s-10.333 59.333 -1 94c12.667 48.667 36.334 84.834 71.001 108.501s74 35.834 118 36.501c9.33301 26.667 22.666 49 39.999 67s37.166 32 59.499 42s46.5 15.667 72.5 17
s52.333 -1.33398 79 -8.00098l-10 -34h-2c-16.667 4.66699 -33.167 6.5 -49.5 5.5s-31.5 -4.83301 -45.5 -11.5s-26.167 -16 -36.5 -28s-17.833 -27 -22.5 -45c-7.33301 -27.333 -4.83301 -53.333 7.5 -78s29.166 -48.5 50.499 -71.5s44.5 -45 69.5 -66
s46.5 -41.833 64.5 -62.5c22 -25.333 36.667 -54.666 44 -87.999s6.66602 -66.333 -2.00098 -99z" />
    <glyph glyph-name="dieresis" unicode="&#xa8;" horiz-adv-x="430" 
d="M162 616c0 -15.333 -5.49805 -27.666 -16.498 -36.999s-23.833 -14 -38.5 -14s-27.334 4.83301 -38.001 14.5s-16 22.167 -16 37.5s5.66699 28.166 17 38.499s24.666 15.5 39.999 15.5c14.667 0 27 -5.66699 37 -17s15 -24 15 -38zM367.002 619
c0 -16.667 -5.5 -29.998 -16.5 -39.998s-24.5 -15 -40.5 -15c-2 0 -3.33301 0.333008 -4 1c-14 1.33301 -25.167 7.16602 -33.5 17.499s-12.5 22.166 -12.5 35.499c0 15.333 5 28 15 38s23 15 39 15c15.333 0 28 -4.83301 38 -14.5s15 -22.167 15 -37.5z" />
    <glyph glyph-name="copyright" unicode="&#xa9;" horiz-adv-x="885" 
d="M573 576c4.66699 0 7.00098 -6.33887 7.00098 -19.0059c0 -4.66699 -0.333008 -9.83398 -1 -15.501s-1 -10.5 -1 -14.5v-38c0 -7.33301 -0.166992 -14.166 -0.5 -20.499s-0.833008 -12.166 -1.5 -17.499c-1.33301 -6.66699 -3.5 -9.5 -6.5 -8.5s-5.83301 1.5 -8.5 1.5
c-2 0 -3.66699 1.66699 -5 5s-2.66602 7.33301 -3.99902 12l-4 14.5c-1.33301 5 -3 9.5 -5 13.5c-12 13.333 -26.5 23.333 -43.5 30s-34.833 10 -53.5 10c-26 0 -47.167 -4.16699 -63.5 -12.5s-29.166 -19.666 -38.499 -33.999s-15.833 -31.666 -19.5 -51.999
s-5.5 -42.5 -5.5 -66.5c0 -26 1.83301 -50.167 5.5 -72.5s10.334 -41.833 20.001 -58.5s23.167 -29.834 40.5 -39.501s39.666 -14.5 66.999 -14.5c18 0 36.667 4 56 12s35 19.333 47 34c2 2 4 5.33301 6 10s4.33301 9.33398 7 14.001s5.16699 8.66699 7.5 12s4.5 5 6.5 5
c7.33301 0 11 -3.66699 11 -11c0 -3.33301 -0.5 -9.16602 -1.5 -17.499s-2.33301 -17.166 -4 -26.499s-3.33398 -17.833 -5.00098 -25.5s-3.5 -12.5 -5.5 -14.5c-6.66699 -5.33301 -15.167 -10 -25.5 -14s-21.333 -7.33301 -33 -10s-23.667 -4.5 -36 -5.5
s-23.833 -1.5 -34.5 -1.5c-32.667 0 -62 6 -88 18s-48.167 28.333 -66.5 49s-32.5 44.334 -42.5 71.001s-15 55 -15 85c0 32 5 60.667 15 86s24.167 46.5 42.5 63.5s40.166 30 65.499 39s53 13.5 83 13.5c21.333 0 46.333 -2.66699 75 -8
c3.33301 -0.666992 6.83301 -1.66699 10.5 -3l11.5 -4c2.66699 -2 4.83398 -1.83301 6.50098 0.5s3.66699 5.5 6 9.5s5.16602 7.66699 8.49902 11s7.66602 5 12.999 5zM745.001 353.994c1.33301 42.667 -4.66992 83.3301 -18.0029 121.997s-33 72.5 -59 101.5
s-58 52.333 -96 70s-80.667 27.167 -128 28.5c-50.667 1.33301 -95 -6.5 -133 -23.5s-69.667 -39.667 -95 -68s-44.666 -61 -57.999 -98s-20.333 -74.833 -21 -113.5c-1.33301 -40 3.83398 -79.833 15.501 -119.5s30 -75.667 55 -108s56.5 -58.833 94.5 -79.5
s82.667 -31.667 134 -33c50 -1.33301 94 7.33398 132 26.001s69.833 43.334 95.5 74.001s45.334 65.334 59.001 104.001s21.167 77.667 22.5 117zM824.998 364.99c0 -53.333 -10.167 -103.831 -30.5 -151.498s-48.333 -89.334 -84 -125.001s-77.5 -64 -125.5 -85
s-99.333 -31.5 -154 -31.5c-54 0 -103.833 9.5 -149.5 28.5s-84.834 45.5 -117.501 79.5s-58.167 74.167 -76.5 120.5s-27.5 97.166 -27.5 152.499s9.33301 106.666 28 153.999s44.834 88.333 78.501 123s73.5 61.834 119.5 81.501s96.333 29.5 151 29.5
c52.667 0 102.5 -9.16699 149.5 -27.5s88.167 -44 123.5 -77s63.333 -72.5 84 -118.5s31 -97 31 -153z" />
    <glyph glyph-name="ordfeminine" unicode="&#xaa;" horiz-adv-x="406" 
d="M230 507c0 10 -0.332031 16.667 -0.999023 20c-9.33301 -2 -20.333 -5.33301 -33 -10s-23 -8.33398 -31 -11.001c-12.667 -4.66699 -23 -11.5 -31 -20.5s-12 -20.833 -12 -35.5c0 -13.333 4.16699 -21.666 12.5 -24.999s19.833 -5 34.5 -5c10 0 17.667 2.5 23 7.5
l19 18.5c3.33301 4 7.16602 9 11.499 15s6.83301 11.667 7.5 17v29v0zM51.001 273c0 3.33301 5.00098 5.33203 15.001 5.99902s19.667 1 29 1h17c38 0 76 -0.333008 114 -1s76 0 114 2c4 0 6 -6 6 -18v-40c0 -3.33301 -3.5 -5.5 -10.5 -6.5s-14.5 -1.5 -22.5 -1.5h-226
c-8 0 -16 0.333008 -24 1s-12 2 -12 4c-0.666992 4.66699 -0.833984 10.334 -0.500977 17.001s0.5 18.667 0.5 36zM359.002 428.999c0 -8 -2.16309 -15.4971 -6.49609 -22.4971s-9.66602 -13 -15.999 -18s-13.5 -8.83301 -21.5 -11.5s-15.667 -4 -23 -4
c-15.333 0 -29.333 5 -42 15s-20.667 22 -24 36c-5.33301 -7.33301 -11.833 -14.333 -19.5 -21s-16.167 -12.5 -25.5 -17.5s-19 -9.16699 -29 -12.5s-20 -5 -30 -5c-14 0 -25.333 2.16699 -34 6.5s-15.334 10.333 -20.001 18s-7.66699 16.334 -9 26.001s-2 19.834 -2 30.501
c0 10 2.83301 19.5 8.5 28.5s12.667 17 21 24s17.333 13.167 27 18.5s18.5 9.66602 26.5 12.999c16 6 30.667 11.167 44 15.5s28.666 8.83301 45.999 13.5v41c0 19.333 -3.5 33.666 -10.5 42.999s-21.167 14 -42.5 14c-14 0 -25.333 -2.33301 -34 -7s-15.5 -10 -20.5 -16
s-8.5 -12 -10.5 -18s-3.33301 -10.667 -4 -14c-2.66699 -7.33301 -7.66699 -13.833 -15 -19.5s-15.666 -8.5 -24.999 -8.5c-5.33301 0 -8.33301 3.83301 -9 11.5s-1 13.5 -1 17.5c0 11.333 4.33301 23.166 13 35.499s19.667 23.666 33 33.999s28 18.833 44 25.5
s31.667 10 47 10c6.66699 0 15.667 -0.5 27 -1.5s23.666 -6.16699 36.999 -15.5c14.667 -10 24 -21 28 -33s6 -26 6 -42c0 -18 -0.166992 -36.167 -0.5 -54.5s-0.5 -36.5 -0.5 -54.5v-42c0 -8.66699 0.333008 -16.667 1 -24s2 -12.333 4 -15
c1.33301 -3.33301 4.16602 -5.5 8.49902 -6.5s8.16602 -1.5 11.499 -1.5c10.667 0 17.667 2.5 21 7.5s7.66602 8.16699 12.999 9.5c2.66699 1.33301 4.66699 0.666016 6 -2.00098s2 -5 2 -7z" />
    <glyph glyph-name="guillemotleft" unicode="&#xab;" horiz-adv-x="572" 
d="M475 77c0 -1.33301 -0.499023 -2.99707 -1.49902 -4.99707s-2.16699 -3 -3.5 -3c-2 0 -4.66699 0.833008 -8 2.5s-6 3.16699 -8 4.5c-0.666992 0.666992 -2.66699 2.5 -6 5.5l-11.5 10l-11.5 10c-3.33301 3 -5.33301 5.16699 -6 6.5c-14 14 -28.667 27.333 -44 40l-45 39
l-22 21l-23 20l-9 7c-3.33301 2.66699 -5.33301 5.66699 -6 9c0.666992 1.33301 2.66699 3.66602 6 6.99902s7 6.66602 11 9.99902s7.66699 6.66602 11 9.99902l7 7l47 42l47 43l28.5 26c9.66699 8.66699 18.167 18 25.5 28c5.33301 1.33301 8.66602 2 9.99902 2
c6 0 9 -3.33301 9 -10c0 -6 -5.16699 -16.333 -15.5 -31s-22.166 -30.5 -35.499 -47.5l-38.5 -49.5c-12.333 -16 -20.5 -28.333 -24.5 -37c11.333 -18 24.666 -36.667 39.999 -56l20 -24c8 -9.33301 15.833 -19 23.5 -29s14.667 -20.167 21 -30.5s10.5 -19.5 12.5 -27.5z
M299.001 76.0029c0 -4 -2.00195 -6.00195 -6.00195 -6.00195c-2 0 -8.16699 3.83301 -18.5 11.5s-22.666 17.5 -36.999 29.5l-46 39.5l-46 40.5l-37 33.5c-10.333 9.66699 -16.5 15.834 -18.5 18.501c0.666992 2 3.33398 5.33301 8.00098 10c22 20.667 44.333 40.5 67 59.5
s44.667 38.833 66 59.5c0.666992 1.33301 3.66699 4.33301 9 9l17 15l24 21c4 1.33301 6.66699 2 8 2c5.33301 0 8 -3 8 -9c0 -5.33301 -5.16699 -15.666 -15.5 -30.999s-22.333 -31.833 -36 -49.5l-39.5 -51c-12.667 -16.333 -21.334 -27.833 -26.001 -34.5
c4.66699 -7.33301 13.5 -19 26.5 -35l40 -50.5c13.667 -17.667 25.834 -34.167 36.501 -49.5s16 -26.333 16 -33z" />
    <glyph glyph-name="logicalnot" unicode="&#xac;" horiz-adv-x="645" 
d="M597 327c5.33301 2 9.00293 0.5 11.0029 -4.5s2.66699 -9.16699 2 -12.5c-0.666992 -7.33301 -0.833984 -20.5 -0.500977 -39.5l1 -60c0.333008 -21 0.333008 -40.333 0 -58s-1.5 -28.5 -3.5 -32.5c-1.33301 -3.33301 -5 -5.66602 -11 -6.99902
s-12.5 -1.83301 -19.5 -1.5s-13.333 1.66602 -19 3.99902s-8.83398 5.5 -9.50098 9.5c0.666992 18 0.666992 40.167 0 66.5s-1.33398 50.5 -2.00098 72.5c-6.66699 0.666992 -13.667 1 -21 1h-22h-36c-50 0 -99.5 -0.333008 -148.5 -1s-98.5 -1 -148.5 -1
c-22 0 -45.167 0.333008 -69.5 1s-47.5 1.66699 -69.5 3c0 6 -0.166992 11.833 -0.5 17.5s-0.5 11.5 -0.5 17.5c0 4 0.166992 8 0.5 12s0.833008 8 1.5 12c4.66699 0.666992 9 1 13 1h13h539v0z" />
    <glyph glyph-name="minus" unicode="&#xad;" 
d="M440 250c0 -5.33301 -0.168945 -11.166 -0.501953 -17.499s-2.16602 -11.5 -5.49902 -15.5c-7.33301 0.666992 -15.333 1 -24 1h-27h-75c-30 0 -66.167 -0.166992 -108.5 -0.5s-92.833 -0.5 -151.5 -0.5c-7.33301 11.333 -11.333 21.166 -12 29.499
s3.33301 19.833 12 34.5c61.333 0 119.833 -0.333008 175.5 -1s103.834 -1 144.501 -1h70c1.33301 -6.66699 2 -11.667 2 -15v-14v0z" />
    <glyph glyph-name="registered" unicode="&#xae;" horiz-adv-x="576" 
d="M333 648c0 11.333 -3.33203 20.333 -9.99902 27s-18.334 10 -35.001 10c-10 0 -16.333 -2.16699 -19 -6.5s-4 -10.5 -4 -18.5c0 -5.33301 -0.166992 -10.5 -0.5 -15.5s-0.5 -14.167 -0.5 -27.5c0 -5.33301 0.833008 -9.33301 2.5 -12s6.16699 -4 13.5 -4
c19.333 0 33 3.83301 41 11.5s12 19.5 12 35.5zM388.001 648c0 -15.333 -4.17578 -29.5 -12.5088 -42.5s-18.5 -23.167 -30.5 -30.5c9.33301 -5.33301 17 -14 23 -26s12 -24.667 18 -38c6 -16 12.667 -30.833 20 -44.5s15.666 -20.5 24.999 -20.5
c2.66699 0 6.33398 4.66699 11.001 14s9.5 20.833 14.5 34.5s9.33301 28.167 13 43.5s5.83398 29 6.50098 41c0.666992 26.667 -3.16602 51.834 -11.499 75.501s-20.5 44.5 -36.5 62.5s-35.667 32.333 -59 43s-49.666 16.667 -78.999 18
c-31.333 0.666992 -58.666 -4.16602 -81.999 -14.499s-42.833 -24.333 -58.5 -42s-27.5 -37.834 -35.5 -60.501s-12.333 -46 -13 -70c-1.33301 -24.667 1.5 -49.334 8.5 -74.001s18.333 -47 34 -67s35.167 -36.333 58.5 -49s51 -19.334 83 -20.001
c50.667 -2 91.334 12 122.001 42c-17.333 7.33301 -33 17.333 -47 30s-24 27.667 -30 45c-4 6.66699 -6.83301 13.834 -8.5 21.501s-4 14.5 -7 20.5s-7.66699 11 -14 15s-16.166 6 -29.499 6c-4 0 -6 -3.33301 -6 -10v-71c0 -8.66699 1.66699 -14.334 5 -17.001
s8.33301 -4 15 -4s12.334 -1.66699 17.001 -5s7.5 -7 8.5 -11s0 -7.66699 -3 -11s-8.5 -5 -16.5 -5c-9.33301 0 -18.166 0.333008 -26.499 1s-16.833 1 -25.5 1c-7.33301 0 -15 -0.333008 -23 -1s-15.667 -1 -23 -1c-4 0 -7.33301 1.5 -10 4.5s-4.16699 6.5 -4.5 10.5
s0.666992 7.66699 3 11s6.16602 5.33301 11.499 6c5.33301 1.33301 11 3 17 5s9 6.66699 9 14l1 192c0 7.33301 -2.5 11.5 -7.5 12.5s-10.167 1.83301 -15.5 2.5s-9.5 1.33398 -12.5 2.00098s-4.83301 4 -5.5 10c-1.33301 11.333 -0.166016 18.833 3.50098 22.5
s7.83398 5.5 12.501 5.5h77c3.33301 0.666992 8.33301 1 15 1h15c8 0 17 -1.16699 27 -3.5s19.333 -6.5 28 -12.5s16 -14 22 -24s9 -22.667 9 -38zM535.992 586c0 -34.667 -6.50391 -67.332 -19.5039 -97.999s-31 -57.667 -54 -81s-50 -41.833 -81 -55.5
s-64.167 -20.5 -99.5 -20.5s-67.666 6.16699 -96.999 18.5s-54.666 29.5 -75.999 51.5s-37.833 48.167 -49.5 78.5s-17.5 63.166 -17.5 98.499c0 36 6 69.333 18 100s28.833 57.167 50.5 79.5s47.334 39.833 77.001 52.5s62.167 19 97.5 19c34 0 66.333 -5.83301 97 -17.5
s57.334 -28.167 80.001 -49.5s40.667 -47 54 -77s20 -63 20 -99z" />
    <glyph glyph-name="macron" unicode="&#xaf;" horiz-adv-x="471" 
d="M115 651c0 3.33301 5.00293 5.33203 15.0029 5.99902s19.667 1 29 1h17c18.667 0 35 -0.166992 49 -0.5s27.333 -0.5 40 -0.5h39c7.33301 0 15.166 0.166992 23.499 0.5s17.166 0.833008 26.499 1.5c4 0 6 -6 6 -18v-40c0 -3.33301 -3.5 -5.5 -10.5 -6.5
s-14.5 -1.5 -22.5 -1.5h-176c-8 0 -16 0.333008 -24 1s-12 2 -12 4c-0.666992 4.66699 -0.833984 10.334 -0.500977 17.001s0.5 18.667 0.5 36z" />
    <glyph glyph-name="degree" unicode="&#xb0;" horiz-adv-x="290" 
d="M212 589c0 17.333 -6.83398 32.332 -20.501 44.999s-29.167 19 -46.5 19c-15.333 0 -29 -6.33301 -41 -19s-18 -26.667 -18 -42c0 -7.33301 1.5 -14.833 4.5 -22.5s7 -14.667 12 -21s10.833 -11.666 17.5 -15.999s13.667 -6.83301 21 -7.5
c0.666992 -0.666992 2.33398 -1 5.00098 -1c18 0 33.5 6.33301 46.5 19s19.5 28 19.5 46zM245.999 587.999c0 -14 -2.83203 -27.1719 -8.49902 -39.5049s-13.167 -23.166 -22.5 -32.499s-20.333 -16.666 -33 -21.999s-26 -8 -40 -8c-2.66699 0 -5.33398 0.666992 -8.00098 2
c-12 0.666992 -23.167 4.5 -33.5 11.5s-19.5 15.5 -27.5 25.5s-14.333 21 -19 33s-7 23.667 -7 35c0 12.667 2.5 24.834 7.5 36.501s11.833 22 20.5 31s18.667 16.167 30 21.5s23 8 35 8c13.333 0 26.333 -2.66699 39 -8s24 -12.666 34 -21.999s18 -20.166 24 -32.499
s9 -25.5 9 -39.5z" />
    <glyph glyph-name="plusminus" unicode="&#xb1;" 
d="M440 32c0 -5.33301 -0.168945 -11.166 -0.501953 -17.499s-2.16602 -11.5 -5.49902 -15.5c-7.33301 0.666992 -15.333 1 -24 1h-27h-75c-30 0 -66.167 -0.166992 -108.5 -0.5s-92.833 -0.5 -151.5 -0.5c-7.33301 11.333 -11.333 21.166 -12 29.499
s3.33301 19.833 12 34.5c61.333 0 119.833 -0.333008 175.5 -1s103.834 -1 144.501 -1h70c1.33301 -6.66699 2 -11.667 2 -15v-14v0zM238.998 109c-5.33301 0 -11.167 0.169922 -17.5 0.50293s-11.5 2.16602 -15.5 5.49902c1.33301 17.333 1.83301 38.666 1.5 63.999
s-0.5 58.666 -0.5 99.999h-159c-7.33301 11.333 -11.333 21.166 -12 29.499s3.33301 19.833 12 34.5c14 -0.666992 27.667 -1 41 -1h40h77v159c11.333 7.33301 21.166 11.333 29.499 12s19.833 -3.33301 34.5 -12c-0.666992 -14 -1 -28 -1 -42v-40v-78h169
c1.33301 -6.66699 2 -11.667 2 -15v-14c0 -5.33301 -0.166992 -11.166 -0.5 -17.499s-2.16602 -11.5 -5.49902 -15.5c-17.333 1.33301 -38.833 1.83301 -64.5 1.5s-59.5 -0.5 -101.5 -0.5v-169c-6.66699 -1.33301 -11.667 -2 -15 -2h-14v0z" />
    <glyph glyph-name="twosuperior" unicode="&#xb2;" horiz-adv-x="398" 
d="M55 668c0 2.66699 1.1709 6.50195 3.50391 11.502s5.16602 10 8.49902 15s6.83301 9.83301 10.5 14.5s6.5 8 8.5 10c10 8.66699 18.5 15.667 25.5 21s13.833 9.33301 20.5 12s13.5 4.5 20.5 5.5s15.5 1.5 25.5 1.5c48 0 83 -15.167 105 -45.5s26 -70.5 12 -120.5
c-5.33301 -19.333 -15.666 -37.166 -30.999 -53.499s-31.833 -30.833 -49.5 -43.5s-34.167 -22.834 -49.5 -30.501s-26 -12.834 -32 -15.501c8.66699 -4 19.667 -6.66699 33 -8s26.666 -1.5 39.999 -0.5s25.833 3.5 37.5 7.5s20.167 9.33301 25.5 16l21.5 29l22 31
l18.5 26.5l10 14.5c5.33301 7.33301 11.833 9.5 19.5 6.5s12.834 -7.5 15.501 -13.5c-16.667 -26.667 -28.167 -50.334 -34.5 -71.001s-10.5 -38 -12.5 -52s-3.33301 -24.667 -4 -32s-3.66699 -11 -9 -11c-19.333 0 -35.333 0.666992 -48 2s-25 3 -37 5s-24.833 4 -38.5 6
s-30.834 3.33301 -51.501 4h-17c-2.66699 0 -4.83398 -0.166992 -6.50098 -0.5s-3.83398 -0.5 -6.50098 -0.5h-17c-2.66699 0 -6.16699 -2.83301 -10.5 -8.5s-7.83301 -7.83398 -10.5 -6.50098c-6.66699 0 -11.667 1.33301 -15 4s-5 8.33398 -5 17.001
c0 3.33301 1.66699 6.66602 5 9.99902c18.667 20.667 35.667 37.167 51 49.5l42 33.5c12.667 10 23.834 20.5 33.501 31.5s18.167 25.5 25.5 43.5c14 36.667 14 65.667 0 87s-38 32 -72 32c-10 0 -18.333 -2 -25 -6s-12.334 -8.66699 -17.001 -14
s-8.83398 -10.5 -12.501 -15.5s-7.5 -8.5 -11.5 -10.5s-7.83301 -1.66699 -11.5 1s-5.5 6.33398 -5.5 11.001z" />
    <glyph glyph-name="threesuperior" unicode="&#xb3;" horiz-adv-x="290" 
d="M40 709c-0.666992 4.66699 1.33496 9.83105 6.00195 15.498s11 11.167 19 16.5s16.833 10 26.5 14s18.834 6.66699 27.501 8c10 1.33301 21 1.5 33 0.5s23.167 -3.66699 33.5 -8s19.166 -10.666 26.499 -18.999s11 -19.166 11 -32.499c0 -8.66699 -2.83301 -18 -8.5 -28
s-12.5 -19.667 -20.5 -29s-16.333 -17.833 -25 -25.5s-15.667 -13.5 -21 -17.5c16.667 2 32.167 0.5 46.5 -4.5s26.5 -12.167 36.5 -21.5s17.833 -20.5 23.5 -33.5s8.5 -26.833 8.5 -41.5c0 -22 -7.5 -43.5 -22.5 -64.5s-33.333 -39.5 -55 -55.5
s-44.834 -28.833 -69.501 -38.5s-47 -14.5 -67 -14.5c-2.66699 0 -4.5 1.33301 -5.5 4s-1.33301 5.83398 -1 9.50098s1 6.83398 2 9.50098s2.16699 4 3.5 4c18 5.33301 35.167 12 51.5 20s30.666 17.5 42.999 28.5s22 23.667 29 38s10.5 30.5 10.5 48.5c0 40 -20 64 -60 72
c-8 1.33301 -16.333 2.33301 -25 3s-17 -1 -25 -5c-2.66699 -1.33301 -6.5 -3.66602 -11.5 -6.99902s-8.5 -5 -10.5 -5c-1.33301 0 -2.5 1.33301 -3.5 4s-1.83301 5.66699 -2.5 9s-1.16699 6.66602 -1.5 9.99902s-0.5 5.66602 -0.5 6.99902c0 3.33301 2.5 6.33301 7.5 9
l11.5 6c8.66699 4.66699 18 10.834 28 18.501s19.333 15.5 28 23.5s15.834 16 21.501 24s8.5 14.667 8.5 20c0 18.667 -4.16699 29.667 -12.5 33s-18.833 4 -31.5 2c-12 -2 -21.833 -5.5 -29.5 -10.5s-15.834 -12.833 -24.501 -23.5
c-0.666992 -0.666992 -1.5 0.166016 -2.5 2.49902s-2 5 -3 8s-1.83301 6.16699 -2.5 9.5s-1 5.66602 -1 6.99902z" />
    <glyph glyph-name="acute" unicode="&#xb4;" horiz-adv-x="456" 
d="M284 701c4 -3.33301 6.99902 -5.5 8.99902 -6.5s3.83301 -2.16699 5.5 -3.5s4 -3 7 -5l13.5 -9c5.33301 -2 7.83301 -5.5 7.5 -10.5s-2.16602 -8.83301 -5.49902 -11.5c-4.66699 -5.33301 -13 -15.5 -25 -30.5l-38 -47l-37.5 -44.5
c-11.667 -13.333 -19.167 -21 -22.5 -23c-6 -4 -11.5 -4.16699 -16.5 -0.5s-5.5 9.16699 -1.5 16.5c3.33301 8.66699 8.66602 20.834 15.999 36.501l23 49l23.5 48.5c7.66699 15.333 13.834 27 18.501 35c3.33301 5.33301 6.5 8.66602 9.5 9.99902s7.5 0 13.5 -4z" />
    <glyph glyph-name="mu" unicode="&#xb5;" horiz-adv-x="567" 
d="M548 39c0 -4 -3.83203 -8 -11.499 -12s-17.334 -8 -29.001 -12s-24.334 -8 -38.001 -12s-26.834 -7.66699 -39.501 -11c-1.33301 0 -3.66602 -0.5 -6.99902 -1.5s-7.16602 -2 -11.499 -3s-8.66602 -1.83301 -12.999 -2.5s-7.5 -0.666992 -9.5 0
c-4 0.666992 -6 5.66699 -6 15c0 8.66699 0.333008 17.834 1 27.501s1 17.834 1 24.501c0 7.33301 -1.33301 9.66602 -4 6.99902l-32 -28c-10.667 -9.33301 -21.834 -17.833 -33.501 -25.5s-24 -14 -37 -19s-26.833 -7.5 -41.5 -7.5h-19c-15.333 0 -29 2 -41 6
c-5.33301 2 -9 -1.5 -11 -10.5s-3 -20.167 -3 -33.5c0 -24.667 0.5 -44.667 1.5 -60s2 -27.833 3 -37.5s2 -17.5 3 -23.5s1.5 -12 1.5 -18c0 -29.333 -11.333 -44 -34 -44c-11.333 0 -20.5 4 -27.5 12s-10.5 20 -10.5 36c0 8 0.333008 17.833 1 29.5s1.5 23.834 2.5 36.501
l3 37c1 12 1.5 22.333 1.5 31c0 12.667 -0.333008 24 -1 34l-2 29l-2 29c-0.666992 10 -1 21.333 -1 34l-1 293c0 17.333 -2.16699 30.333 -6.5 39s-16.5 13 -36.5 13c-2.66699 1.33301 -5.83398 2.33301 -9.50098 3s-7 1.33398 -10 2.00098s-5.5 2 -7.5 4s-3 5 -3 9
c0 4.66699 2.66699 7.83398 8 9.50098s11.833 2.66699 19.5 3s15.5 0.5 23.5 0.5c8.66699 0 16.334 0.333008 23.001 1l35 4c12 1.33301 23.667 2 35 2c5.33301 0 8.33301 -3.83301 9 -11.5s1 -13.167 1 -16.5v-160c0 -20 -0.166992 -40 -0.5 -60s-0.5 -40 -0.5 -60
c0 -32.667 6.16699 -58.167 18.5 -76.5s35.5 -27.5 69.5 -27.5c14 0 26.333 1.16699 37 3.5s20.334 6.16602 29.001 11.499s16.834 12 24.501 20s15.834 17.667 24.501 29c0.666992 6.66699 1.16699 13.5 1.5 20.5s0.666016 15.333 0.999023 25s0.5 21.167 0.5 34.5v51v99
c0 9.33301 -0.333008 18.666 -1 27.999s-2 18.666 -4 27.999c-1.33301 6 -5.16602 10.667 -11.499 14s-13.333 5.66602 -21 6.99902s-14.834 2.5 -21.501 3.5s-11 2.16699 -13 3.5c-3.33301 0 -7.33301 0.833008 -12 2.5s-7 4.83398 -7 9.50098
c0 3.33301 5.16699 6.33301 15.5 9s23 4.83398 38 6.50098s30.5 3 46.5 4s29.667 1.5 41 1.5c13.333 0 21.833 -1.83301 25.5 -5.5s5.5 -12.5 5.5 -26.5c0 -56.667 -0.666992 -113.334 -2 -170.001s-2 -113.334 -2 -170.001c0 -8.66699 2.16699 -16 6.5 -22
s11.166 -9 20.499 -9c15.333 0 28.666 1.33301 39.999 4c3.33301 0.666992 7 0.666992 11 0s6 -4 6 -10z" />
    <glyph glyph-name="paragraph" unicode="&#xb6;" horiz-adv-x="544" 
d="M44 215c0 60 10.6631 120.499 31.9961 181.499s51.666 116 90.999 165s86.333 89 141 120s115.667 46.5 183 46.5h18c2.66699 0 4.83398 -1.66699 6.50098 -5s2.5 -7.33301 2.5 -12s-0.666992 -8.66699 -2 -12s-3.66602 -5 -6.99902 -5h-22
c-15.333 0 -30.333 -1.5 -45 -4.5s-29 -6.5 -43 -10.5c-26 -8 -43.5 -21.167 -52.5 -39.5s-12.667 -39.833 -11 -64.5s7.16699 -51.834 16.5 -81.501l30 -91.5c10.667 -31.333 20.167 -62.5 28.5 -93.5s12.5 -59.833 12.5 -86.5c0 -30.667 -3.16699 -63.5 -9.5 -98.5
l-19.5 -104c-6.66699 -34.333 -12 -67.333 -16 -99s-4.16699 -59.5 -0.5 -83.5s12.834 -43.167 27.501 -57.5s37.667 -21.5 69 -21.5h18c4.66699 0 10.334 0.666992 17.001 2c4 0 7 -1.83301 9 -5.5s3 -7.5 3 -11.5s-1 -7.83301 -3 -11.5s-5 -5.5 -9 -5.5
c-6.66699 0 -13.334 -0.166992 -20.001 -0.5s-14.667 -0.5 -24 -0.5c-35.333 0 -70.333 6.83301 -105 20.5s-67.667 32.334 -99 56.001s-60.166 51.334 -86.499 83.001s-49.166 65.667 -68.499 102s-34.5 74 -45.5 113s-16.5 77.5 -16.5 115.5z" />
    </font>
</defs>
</svg>
